<svg width="1647" height="591" viewBox="0 0 1647 591" fill="none" xmlns="http://www.w3.org/2000/svg">
    <g id="wizmirnet">
        <path id="Path" d="M630.155 188.193C622.535 188.203 615.21 185.243 609.735 179.943C522.345 95.4725 431.945 54.8225 340.985 59.1125C201.555 65.6725 104.865 176.753 103.905 177.873C98.8503 183.805 91.6455 187.487 83.8758 188.108C76.1062 188.729 68.4082 186.238 62.4753 181.183C56.5424 176.127 52.8606 168.923 52.2399 161.153C51.6191 153.383 54.1103 145.685 59.1653 139.753C63.7153 134.393 172.495 8.51249 337.555 0.402485C445.555 -4.84751 550.865 41.2825 650.555 137.653C654.762 141.721 657.658 146.953 658.872 152.678C660.086 158.403 659.563 164.361 657.369 169.786C655.175 175.212 651.411 179.859 646.559 183.131C641.707 186.403 635.988 188.152 630.135 188.153L630.155 188.193Z" fill="#6F6F6F" />
        <path id="Path_2" d="M547.035 264.613C539.415 264.625 532.092 261.661 526.625 256.353C467.625 199.353 406.905 171.823 346.075 174.623C252.845 178.933 187.645 253.563 186.995 254.323C181.911 260.148 174.735 263.734 167.025 264.303C159.314 264.872 151.69 262.379 145.805 257.364C139.92 252.349 136.25 245.217 135.589 237.514C134.928 229.81 137.33 222.157 142.275 216.213C145.555 212.353 223.805 121.753 342.665 115.963C420.505 112.073 496.115 145.163 567.455 214.103C571.666 218.171 574.565 223.404 575.781 229.131C576.997 234.858 576.474 240.817 574.28 246.245C572.086 251.673 568.32 256.321 563.465 259.594C558.611 262.867 552.89 264.615 547.035 264.613Z" fill="#505050" />
        <path id="Path_3" d="M461.435 334.602C453.817 334.613 446.495 331.653 441.025 326.352C411.205 297.532 381.025 283.562 351.285 284.882C305.625 286.882 272.875 323.992 272.555 324.362C267.472 330.212 260.285 333.816 252.558 334.391C244.83 334.966 237.189 332.466 231.296 327.433C225.404 322.401 221.738 315.244 221.098 307.522C220.457 299.8 222.893 292.137 227.875 286.202C229.875 283.902 276.665 229.722 347.925 226.202C394.655 223.912 439.735 243.382 481.855 284.082C486.062 288.151 488.958 293.383 490.172 299.108C491.386 304.833 490.862 310.79 488.669 316.216C486.475 321.642 482.71 326.288 477.858 329.561C473.006 332.833 467.287 334.582 461.435 334.582V334.602Z" fill="#404040" />
        <path id="Path_4" d="M0.135093 407.903L25.4751 409.243L57.4751 583.993H117.475L151.475 441.923H155.475L192.165 583.323H248.855L291.545 369.223H238.905L218.905 510.623L178.905 367.893H129.525L98.8051 510.623L94.1351 509.953L75.5051 383.893C75.5051 383.893 66.8351 363.893 33.5051 363.893C0.175087 363.893 1.50509 387.893 1.50509 387.893C1.50509 387.893 -0.534907 408.573 0.135093 407.903Z" fill="#EE4035" />
        <path id="Path_5" d="M328.955 417.242V584.652H382.955V416.582C382.955 416.582 330.955 417.242 328.955 417.242Z" fill="#6F6F6F" />
        <path id="Path_6" d="M422.995 418.583V462.583H490.995L418.295 541.953V583.303H554.385V539.973H478.385L552.385 457.973V418.373C552.385 418.373 422.995 418.433 422.995 418.583Z" fill="#494949" />
        <path id="Path_7" d="M646.655 584.433H592.405V419.433H645.805V432.763H652.915C652.915 432.763 688.045 393.643 728.505 428.323C728.505 428.323 733.395 426.543 756.505 416.763C766.725 413.643 821.415 410.533 821.415 447.883V583.993H769.805V465.263C769.805 465.263 762.245 447.923 740.455 458.593L733.805 464.823V583.543H682.225V465.753C682.225 465.753 671.995 447.523 657.325 456.413C642.655 465.303 645.805 479.053 645.805 479.053C645.805 479.053 647.095 584.433 646.655 584.433Z" fill="#4D4D4D" />
        <path id="Path_8" d="M961.905 420.353V584.873H1014.8V471.043C1014.8 471.043 1034.36 461.713 1061.93 464.823L1061.48 413.683C1061.48 413.683 1035.25 412.353 1015.69 439.033V418.583H961.805L961.905 420.353Z" fill="#818286" />
        <path id="Path_9" d="M1102.81 589.753C1098.48 589.739 1094.17 589.005 1090.08 587.583C1088.25 586.912 1086.76 585.542 1085.95 583.774C1085.13 582.007 1085.04 579.986 1085.72 578.158C1086.39 576.329 1087.76 574.842 1089.52 574.023C1091.29 573.205 1093.31 573.122 1095.14 573.793C1097.76 574.723 1105.54 576.383 1110.28 573.043C1115.02 569.703 1115.96 561.963 1115.96 556.043V371.893C1115.96 370.311 1116.47 368.773 1117.42 367.506C1118.37 366.239 1119.7 365.312 1121.21 364.862C1122.73 364.413 1124.35 364.465 1125.83 365.011C1127.32 365.557 1128.59 366.568 1129.45 367.893L1249.35 551.343V369.223C1249.31 368.235 1249.48 367.251 1249.83 366.328C1250.18 365.405 1250.72 364.563 1251.4 363.851C1252.09 363.14 1252.91 362.574 1253.82 362.187C1254.73 361.801 1255.71 361.602 1256.7 361.602C1257.68 361.602 1258.66 361.801 1259.57 362.187C1260.48 362.574 1261.3 363.14 1261.99 363.851C1262.67 364.563 1263.21 365.405 1263.56 366.328C1263.91 367.251 1264.08 368.235 1264.04 369.223V575.983C1264.04 577.564 1263.53 579.103 1262.58 580.37C1261.63 581.636 1260.3 582.564 1258.79 583.013C1257.27 583.463 1255.65 583.411 1254.17 582.865C1252.68 582.318 1251.41 581.308 1250.55 579.983L1130.66 396.553V555.973C1130.66 569.743 1126.66 579.533 1118.66 585.083C1113.98 588.236 1108.45 589.867 1102.81 589.753Z" fill="#E52C1E" />
        <path id="Path_10" d="M1456.14 586.664H1347.42C1345.47 586.664 1343.61 585.891 1342.23 584.514C1340.85 583.138 1340.08 581.271 1340.08 579.324V373.224C1340.08 371.277 1340.85 369.41 1342.23 368.034C1343.61 366.657 1345.47 365.884 1347.42 365.884H1451.47C1452.46 365.847 1453.44 366.011 1454.36 366.363C1455.29 366.716 1456.13 367.251 1456.84 367.937C1457.55 368.622 1458.12 369.444 1458.51 370.354C1458.89 371.263 1459.09 372.241 1459.09 373.229C1459.09 374.217 1458.89 375.195 1458.51 376.104C1458.12 377.013 1457.55 377.836 1456.84 378.521C1456.13 379.207 1455.29 379.742 1454.36 380.095C1453.44 380.447 1452.46 380.61 1451.47 380.574H1354.81V571.974H1456.18C1457.17 571.937 1458.15 572.101 1459.07 572.453C1460 572.806 1460.84 573.341 1461.55 574.027C1462.26 574.712 1462.83 575.534 1463.22 576.444C1463.6 577.353 1463.8 578.331 1463.8 579.319C1463.8 580.307 1463.6 581.285 1463.22 582.194C1462.83 583.103 1462.26 583.925 1461.55 584.611C1460.84 585.297 1460 585.832 1459.07 586.185C1458.15 586.537 1457.17 586.7 1456.18 586.664H1456.14Z" fill="#E52C1E" />
        <path id="Path_11" d="M1497.47 407.233C1495.93 407.235 1494.44 406.753 1493.19 405.856C1491.94 404.958 1491.01 403.69 1490.53 402.233C1490.01 400.683 1485.7 386.813 1493.22 376.373C1497.89 369.893 1505.61 366.603 1516.17 366.603H1638.89C1639.88 366.566 1640.86 366.729 1641.78 367.082C1642.71 367.435 1643.55 367.97 1644.26 368.655C1644.97 369.341 1645.54 370.163 1645.93 371.072C1646.31 371.982 1646.51 372.96 1646.51 373.948C1646.51 374.936 1646.31 375.914 1645.93 376.823C1645.54 377.732 1644.97 378.554 1644.26 379.24C1643.55 379.926 1642.71 380.461 1641.78 380.813C1640.86 381.166 1639.88 381.329 1638.89 381.293H1516.17C1510.62 381.293 1506.92 382.513 1505.17 384.933C1502.47 388.633 1503.8 395.503 1504.48 397.613C1504.84 398.716 1504.93 399.889 1504.74 401.034C1504.56 402.179 1504.11 403.265 1503.43 404.203C1502.74 405.141 1501.85 405.904 1500.82 406.431C1499.78 406.957 1498.64 407.232 1497.48 407.233H1497.47Z" fill="#E52C1E" />
        <path id="Path_12" d="M1568.85 590.004C1566.9 590.004 1565.03 589.229 1563.65 587.851C1562.27 586.472 1561.5 584.603 1561.5 582.654V375.224C1561.57 373.322 1562.37 371.523 1563.74 370.202C1565.11 368.882 1566.94 368.145 1568.84 368.145C1570.75 368.145 1572.58 368.882 1573.95 370.202C1575.32 371.523 1576.12 373.322 1576.19 375.224V582.654C1576.19 584.601 1575.42 586.469 1574.04 587.847C1572.66 589.225 1570.8 590.001 1568.85 590.004Z" fill="#E52C1E" />
        <path id="Path_13" d="M1428.8 477.294H1347.37C1345.47 477.223 1343.67 476.419 1342.35 475.049C1341.03 473.679 1340.29 471.851 1340.29 469.949C1340.29 468.046 1341.03 466.218 1342.35 464.848C1343.67 463.478 1345.47 462.674 1347.37 462.604H1428.8C1430.7 462.674 1432.5 463.478 1433.82 464.848C1435.14 466.218 1435.88 468.046 1435.88 469.949C1435.88 471.851 1435.14 473.679 1433.82 475.049C1432.5 476.419 1430.7 477.223 1428.8 477.294Z" fill="#E52C1E" />
        <path id="Path_14" d="M356.655 354.754C356.655 354.754 389.775 356.754 389.555 369.874C389.335 382.994 369.985 397.664 355.555 397.664H355.205C340.755 397.664 321.415 382.984 321.205 369.874C320.995 356.764 354.075 354.754 354.075 354.754H356.655Z" fill="#6F6F6F" />
        <path id="Path_15" d="M865.695 417.242V584.652H919.695V416.582C919.695 416.582 867.695 417.242 865.695 417.242Z" fill="#6F6F6F" />
        <path id="Path_16" d="M893.395 354.754C893.395 354.754 926.525 356.754 926.295 369.874C926.065 382.994 906.735 397.664 892.295 397.664H891.945C877.485 397.664 858.145 382.984 857.945 369.874C857.745 356.764 890.805 354.754 890.805 354.754H893.395Z" fill="#6F6F6F" />
    </g>
</svg>
