<svg version="1.2" xmlns="http://www.w3.org/2000/svg" viewBox="0 0 1059 160" width="1059" height="160"><style>.a{fill:#fefefe}</style><path class="a" d="m109.8 151.3h-5.3v-46.6h5.3zm0.1-47.7h-5.4v-4.6h5.4z"/><path class="a" d="m151.5 109.6l-29.3 37h29.9v4.7h-36.3v-4.6l29.3-37.3h-28.4v-4.7h34.8z"/><path class="a" d="m186.4 151.3h-5.2l-17.7-42.6h-0.1v42.6h-5.3v-46.6h9.1l16.5 39.9 16.5-39.9h9.2v46.6h-5.3v-42.6h-0.1z"/><path class="a" d="m223.5 151.3h-5.3v-46.6h5.3zm0.1-47.7h-5.5v-4.6h5.5z"/><path fill-rule="evenodd" class="a" d="m237.4 151.3h-5.3v-46.6h21.5c10.1 0 14.5 2.8 14.5 13.4 0 6.5-0.7 11.4-8.1 12.3v0.1c5.2 0.4 7.5 3.4 7.5 8.4v12.4h-5.3v-9.9c0-5.9-1.4-8.7-7.8-8.7h-17zm16.3-23.3c8.1-0.3 9.1-2.8 9.1-10.5 0-5.9-0.8-8.2-9.1-8.2h-16.3v18.7z"/><path fill-rule="evenodd" class="a" d="m296.8 151.3v-46.6h23.2c9.1 0 13.7 1.9 13.7 12.1 0 5.4-1 9-6.7 10.3v0.3c6.6 0.7 7.8 5 7.8 10.9 0 10.3-4.2 13-14 13zm8.9-7.7h12.3c5.3 0 7.8-0.3 7.8-6 0-5.1-1.1-6.6-6.4-6.6h-13.7zm0-19.5h12.9c5 0 6.1-1.5 6.1-6.5 0-5-2-5.3-6.4-5.3h-12.6z"/><path fill-rule="evenodd" class="a" d="m380.2 104.7v33.1c0 13-8.2 13.9-19.6 13.9-10.9 0-19.3-0.8-19.3-13.9v-33.1h9v33.1c0 4.8 1.7 6.2 10.3 6.2 8.3 0 10.6-1.2 10.6-6.2v-33.1zm-22.7-10.6v5.5h-6.1v-5.5zm12.7 0v5.5h-6.2v-5.5z"/><path class="a" d="m409.2 133.4v17.9h-8.9v-17.9l-16.9-28.7h10.2l11.1 19.9h0.2l11.2-19.9h10.3z"/><path fill-rule="evenodd" class="a" d="m468.6 104.7v33.1c0 13-8.1 13.9-19.5 13.9-10.9 0-19.3-0.8-19.3-13.9v-33.1h8.9v33.1c0 4.8 1.8 6.2 10.4 6.2 8.3 0 10.6-1.2 10.6-6.2v-33.1zm-22.7-10.6v5.5h-6.2v-5.5zm12.8 0v5.5h-6.2v-5.5z"/><path class="a" d="m485.6 123.7h4.2l15.5-19h11l-18.9 22.7 20.8 23.9h-11.3l-17.1-20h-4.2v20h-8.9v-46.6h8.9z"/><path class="a" d="m527.1 136.9v2.2c0 5.3 2.3 5.7 10.6 5.6 8.1-0.1 9.2-1.6 9.2-7 0-6.6-3.6-5.7-10.5-6-10.1-0.6-18.1-0.1-18.2-13.7-0.1-12.8 8-13.2 19.2-13.3 9.5-0.1 17.3 0.2 17.4 12.4v1.5l-9 0.1v-1.5c0-5-2.1-5.2-8.3-5.2-8.9 0.1-10.3 1-10.3 6 0 5.7 1.2 5.8 10.3 6.3 14.3 0.8 18.3 1.5 18.4 13.4 0.1 13.1-6.2 14.2-18.1 14.3-10.4 0.1-19.5 0.5-19.6-12.9l-0.1-2.1zm15 19.4l-8.1 3.3-1.7-2.9 7-4.3z"/><path class="a" d="m570.2 124.1l21.8-0.2 0.1 7.3-21.8 0.2 0.1 12.4 23.1-0.2 0.1 7.6-32.1 0.3-0.4-46.6 32-0.2v7.6l-23 0.2z"/><path class="a" d="m640.1 150.9l-8.9 0.1-0.2-19.9-21.7 0.1 0.2 19.9-9 0.1-0.3-46.6 8.9-0.1 0.2 19.1 21.7-0.2-0.2-19 9-0.1z"/><path class="a" d="m647.9 104.2h9l0.3 46.6h-8.9zm1.3-6.8l6.2-0.1v5.5l-6.1 0.1z"/><path fill-rule="evenodd" class="a" d="m674.9 135.9v15.4h-9v-46.6h23.8c10.2 0.2 14.1 3.4 14.1 14 0 6.9-0.3 11.9-8.2 13.1v0.2c6.3 0.6 7.9 4 7.9 10.6v8.7h-9v-8.7c0-3.9-1.6-6.7-5.9-6.7zm11.8-7.7c6.6 0 8.2-1.3 8.2-8.1 0-6.6-1.2-7.8-7.6-7.8h-12.4v15.9z"/><path fill-rule="evenodd" class="a" d="m732.2 151.3v-46.6h23.6c8.8 0 10.8 4.2 10.8 12.3 0 4.9-1 8.2-5.8 9.8v0.1c6.2 1.2 7.2 5.6 7.2 11.4 0 8.4-3.1 13-11 13zm5.3-4.7h16.7c5.7 0 8.5-0.7 8.5-7.8 0-6.1-0.9-9.3-7.9-9.1h-17.3zm0-21.6h15.3c6.3 0 8.5-1.5 8.5-8.7 0-6.3-2.4-7-7.9-7h-15.9z"/><path class="a" d="m779.3 125.2h23.7v4.3h-23.7v17.1h24.7v4.7h-29.9v-46.6h29.9v4.7h-24.7z"/><path class="a" d="m816.2 146.6h23.8v4.7h-29v-46.6h5.2z"/><path class="a" d="m848.8 125.2h23.6v4.3h-23.6v17.1h24.6v4.7h-29.9v-46.6h29.9v4.7h-24.6z"/><path fill-rule="evenodd" class="a" d="m879.7 104.7h22.7c5.6 0 15.9 0.7 15.9 18v11.1c0 4.6-0.7 17.5-14.7 17.5h-23.9zm22.7 41.9c9.3 0 10.5-5.4 10.7-13.8v-12.2c0-2.6-1-11.3-9.9-11.3h-18.2v37.3z"/><path class="a" d="m931.1 151.3h-5.3v-46.6h5.3zm0.1-47.7h-5.5v-4.6h5.5z"/><path class="a" d="m957.5 131.8v19.5h-5.3v-19.5l-17.1-27.1h6.1l13.8 21.8 13.8-21.8h6.3z"/><path class="a" d="m982.5 125.2h23.7v4.3h-23.7v17.1h24.7v4.7h-29.9v-46.6h29.9v4.7h-24.7z"/><path class="a" d="m1011.7 117.9c0-12.5 5.7-13.6 17.2-13.6 10.1 0 17.4 0.5 16.8 13.1h-5.3c-0.2-8.1-1.8-8.4-11.6-8.4-10.4 0-11.8 1.3-11.8 7.7 0 8.9 4.2 8.2 12.9 8.4 11.1 0.7 16.7 0.3 16.7 13 0 13.1-6.2 13.6-18 13.6-11.8 0-18-1.5-17-14.9h5.3c-0.1 10.2 1.8 10.2 11.7 10.2 10 0 12.7 0 12.7-9.1 0-8.9-4-7.4-12.5-8.1-9.2-0.8-17.1 0.4-17.1-11.9z"/><path class="a" d="m1058.3 151.3h-5.3v-46.6h5.3zm0.1-47.7h-5.4v-4.6h5.4z"/><path fill-rule="evenodd" class="a" d="m101.8 150.2q0 0.6 0 1.1-50.5 0-100.9 0 0-0.5 0-1.1 1.8 0 3.7 0 0-0.5 0-1 1.9 0 3.7 0 0-0.6 0-1.1 6.4 0 12.8 0c0-0.2 0.1-0.5 0.1-0.6-0.6-0.1-0.9-0.6-1-1.1 0-0.2 0.1-0.2 0.2-0.3 0.2-0.4-0.6-0.8-0.9-0.9q0-0.1 0-0.1-0.1 0-0.2 0 0-0.1 0-0.1c0.3-0.2 0.9-0.2 1.4-0.1q0-0.4 0-0.8c0 0 0.2 0 0.1-0.2q-0.1-0.1-0.2-0.2 0-0.4 0-0.8 0.2-0.1 0.4-0.2 0-0.3 0.1-0.4 0.1 0 0.3 0c0-0.2 0.1-0.3 0.1-0.4q0-1 0-2.1 0-1.3 0-2.6c0-0.4 0.1-1 0-1.4q0-0.5 0-1-0.1 0.1-0.2 0.1c-0.5-0.2-0.2-0.7-0.3-1q-0.2-0.2-0.3-0.3 0-0.2 0-0.3 0-0.6 0-1.2 0-3.7 0-7.5c0.1 0 0.1-0.1 0.1-0.3q-0.1 0-0.2-0.1 0 0 0 0-0.1-0.1-0.2-0.1 0 0-0.1 0c0.1-0.2 0.2-0.3 0.1-0.4 0-0.2-0.6-0.2-0.9-0.4 0-0.4 0.2-0.4 0.4-0.5q0-1.3 0-2.6c0.4 0 0.6 0.3 0.7 0.7q0.1 0 0.2 0c0.1 0.1 0.1 0.3 0 0.4-0.3 0.1-0.4 0.4-0.3 0.6 0.2 0.2 0.6 0.2 0.8 0.1 0.1-0.3-0.1-0.5 0.2-0.7q0 0 0 0c0.1 0.2 0.2 0.7 0.5 0.8 0.2 0.1 0.4 0 0.5-0.1 0.1-0.3 0-0.7-0.4-0.7q0-0.2 0-0.5 0.2 0 0.3 0c0.1-0.3 0.2-0.6 0.5-0.7 0.5-0.1 0.8 0.4 0.8 0.7q0.3 0 0.5 0c0-1.7 1.4-3.2 2.7-3.9q0.6-0.3 1.1-0.5c0.7-0.3 1.1-0.3 1.1-1.2-0.1 0-0.1 0-0.2-0.1q0-0.1 0-0.2 0.1 0 0.2 0 0-0.1 0-0.1c-0.3 0-0.5-0.1-0.7-0.2 0-0.2 0-0.2 0.1-0.3q0.3-0.1 0.6-0.1c0-0.4 0.2-0.7 0.1-1q-0.1-0.4-0.3-0.8 0.3-0.5 0.5-1 0 0 0.1 0.1 0.2 0.4 0.5 0.8c0.1 0.3-0.5 1-0.3 1.4q0.1 0 0.2 0.1c0 0.1-0.1 0.3 0 0.4 0.2 0.1 0.5 0 0.6 0.2 0 0.1 0 0.2-0.1 0.2q-0.3 0.1-0.6 0.2 0 0 0 0c0.1 0.1 0.1 0.1 0.2 0.2q0 0.1 0 0.2-0.1 0-0.2 0c-0.2 1 1.4 1.4 2.3 1.7 0-0.4 0-0.3 0.2-0.6q0-0.2 0-0.5 0 0 0.1-0.1 0-2.1 0-4.2 0-1 0-2c-0.1-0.1-0.1-0.1-0.1-0.2 0.1-0.1 0.1-0.2 0.1-0.4-0.2 0.1-0.2 0-0.2-0.1-0.2-0.2 0.1-0.5 0-0.7 0 0-0.1 0-0.1-0.2 0.1 0 0.1 0 0.1 0q0-1.8 0-3.6c0-0.5 0.1-1.1-0.3-1.3 0.1-0.2 0.1-0.5-0.1-0.6q-0.4 0-0.7 0c-0.2 0-0.1-0.1-0.3-0.1 0-0.2-0.1-0.2-0.1-0.3q0.2-0.1 0.4-0.3 0-1.4 0-2.8c0.2 0 0.4 0.1 0.5 0.3 0 0.1 0 0.1-0.2 0.2q0.1 0 0.1 0c0.3 0 0.6 0.1 0.7 0.3 0 0.1 0 0.1-0.1 0.2-0.1 0-0.3 0-0.4 0-0.2 0.2-0.2 0.5 0 0.6 0.1 0.1 0.2 0.1 0.4 0.1 0 0.2 0 0.2 0.1 0.3 0.2 0 0.4 0 0.6-0.1q0-0.1 0-0.2c0.5 0 0.8-0.4 0.5-0.7-0.1-0.1-0.4-0.1-0.5-0.2 0.1-0.3 0.4-0.2 0.6-0.3-0.1-0.1-0.1-0.1-0.1-0.2 0.1-0.2 0.4-0.2 0.5-0.4 0.2 0.1 0.4 0.2 0.5 0.4 0 0.1 0 0.1 0 0.2 0.2 0.1 0.4 0.1 0.5 0.3q0 0.1 0 0.1c-0.2 0-0.4 0.1-0.5 0.2-0.1 0.2 0 0.4 0.1 0.5 0.1 0.1 0.2 0.1 0.4 0.1 0 0.1 0 0.2 0.1 0.3 0.2 0.1 0.5 0.1 0.6-0.1q0.1-0.1 0.1-0.2 0.4 0 0.5-0.3c0.1-0.1 0-0.2-0.1-0.4-0.1 0-0.3 0-0.5-0.1q0-0.1 0-0.1c0.1-0.2 0.4-0.2 0.6-0.3q-0.2-0.1 0-0.3c0.1-0.1 0.3-0.1 0.4-0.2 0.3 0.1 0.8 0.2 0.5 0.5 0.2 0.1 0.4 0.1 0.5 0.3q0 0.1 0 0.1c-0.5 0-0.8 0.6-0.3 0.7 0.2 0.1 0.3 0.1 0.4 0q-0.1 0.1 0 0.3 0 0.1 0.1 0.1 0.3 0.1 0.5 0c0.1-0.2 0.1-0.3 0.1-0.4 0.3 0.1 0.7-0.1 0.5-0.5-0.1-0.1-0.3-0.1-0.5-0.2q0-0.1 0-0.1c0.2-0.2 0.4-0.2 0.6-0.3q0 0 0 0-0.1-0.2 0-0.3c0.1-0.1 0.3-0.1 0.5-0.2 0.2 0 0.7 0.1 0.7 0.4-0.1 0-0.1 0.1-0.2 0.1q0 0 0 0c0.3 0 0.5 0.1 0.7 0.2 0 0.1 0 0.1 0 0.2q0 0-0.1 0.1c-0.3 0.1-0.6-0.1-0.7 0.2-0.1 0.1 0 0.3 0.1 0.4q0.1 0.1 0.2 0.1c0.2-0.1 0.3-0.2 0.6-0.3q0 0.1 0 0.1 0 0 0 0c-0.1 0-0.4 0.1-0.3 0.3 0.1 0.3 0.7 0.3 1.1 0.2q0-0.9 0-1.8 0.1-0.1 0.3-0.1 0-4.9 0-9.8 0-2 0-4.1c-0.1 0-0.3 0-0.4 0q-0.1-0.1-0.2-0.3c-0.2-0.1-0.5-0.2-0.7-0.4 0-0.1 0-0.2 0.1-0.3 0.1 0 0.2 0 0.3 0 0.1 0 0.1 0.1 0.1 0.3q0.2-0.1 0.4-0.2-0.1 0.1-0.1 0.2 0.2 0 0.3 0 0 0.1-0.1 0.1 0 0.1 0.1 0.2c-0.2 0-0.4-0.2-0.6-0.2 0.2 0.2 0.4 0.5 0.8 0.5q0-0.5 0-1c-0.5 0-1 0.1-1.2-0.1q0-1.5 0-3.1-0.1 0-0.2 0 0-0.1 0-0.1 0.7 0 1.4 0c0-1.2 0.1-2.7-0.1-3.7 0-0.1 0.1-0.1 0.1-0.2q-0.1-0.4-0.3-0.7 0-1.7 0-3.4 0.2 0 0.3 0 0-9.1 0-18.2 0 0-0.1 0c-0.1-0.3-0.1-0.8-0.1-1.3-0.1 0-0.3 0-0.3 0q-0.1-0.1-0.2-0.3c0.4-0.5-0.6-1.2-0.9-1.4q0-0.7 0-1.5 0.1-0.2 0.3-0.4-0.1 0-0.2 0 0-0.6 0-1.2 0.1 0 0.2 0 0-0.2 0-0.4 0 0-0.1 0 0-4.8 0-9.6 0.1 0 0.2 0 0-0.1 0-0.3-0.1 0-0.2 0 0-0.6 0-1.2c-0.1 0-0.3-0.2-0.3-0.2 0-0.2 0.1-0.2 0.1-0.2 0.2-0.1 0.2-0.1 0.3-0.2 0.1-0.6-0.4-0.9-1-1q0-0.1 0-0.2-0.1 0-0.2 0 0-0.1 0-0.2 0.3-0.2 0.5-0.3 0-1.4 0-2.8 0.3 0 0.5 0-0.1 0.4-0.2 0.7 0.1 0 0.3 0-0.1 0.3-0.1 0.6 0.1 0 0.2 0 0 0.3-0.1 0.7 0.6 0 1.2 0-0.1-0.4-0.1-0.7 0.1 0 0.3 0-0.1-0.3-0.2-0.6 0 0 0 0 0.2 0 0.3 0-0.1-0.3-0.1-0.7 0.3 0 0.6 0 0-0.1 0.1-0.2c0.3 0 0.7 0.1 0.9 0q0.3-0.3 0.6-0.7 0.3 0 0.6 0 0-1.5 0-3c0-0.5 0.1-1.2 0-1.6-0.1-0.2 0.1-0.9 0.1-1.1q-0.1 0-0.1 0 0-0.1 0-0.1-0.1 0-0.2 0 0-0.1 0-0.1-0.1 0-0.1 0 0-0.1 0-0.1 0.2 0 0.4 0 0-2.3 0-4.5-0.1 0-0.1 0c0-0.9-0.2-1-1.2-1.3 0-0.4 0.3-0.4 0.6-0.6q0-1.3 0-2.7 0 0.1 0 0.1 0.2 0.3 0.4 0.5-0.1 0.2-0.2 0.4c0 0.2 0.2 0.2 0.2 0.3 0.2 0.3 0 0.5 0.5 0.6 0.4-0.3 0.3-0.8 0.3-1.3q0.6 0 1.1 0c0-2 1.1-3.3 2.4-4.1 0.9-0.6 2.2-0.6 2.3-1.9q-0.1-0.1-0.2-0.1c0-0.2 0.1-0.2 0.2-0.3q0-0.1 0-0.1c-0.5-0.1-0.9-0.8-0.4-1.1-0.1-0.1-0.1-0.1-0.1-0.2q0.3-0.1 0.6-0.2 0-0.1 0-0.1c-0.2 0-0.2-0.1-0.3-0.2q0 0 0.1 0c0-0.1 0.2-0.1 0.2-0.3-0.7-0.9-0.1-0.6 0.1-1.4-0.3 0-0.3-0.1-0.4-0.2 0-0.3 0.4-0.2 0.4-0.5q0 0 0 0c-0.2 0-0.3-0.1-0.4-0.2 0-0.3 0.3-0.2 0.4-0.4q0-2 0-3.9c-0.5-0.1-1-0.8-0.4-1.2-0.2 0.4 0 1 0.6 0.9 0.5-0.1 0.7-0.4 0.5-0.9q0.1 0.1 0.1 0.1c0.2 0.5 0.1 1-0.5 1.1q0 1.9 0 3.9c0.1 0.2 0.3 0.1 0.4 0.4-0.1 0.1-0.2 0.2-0.4 0.2q0 0.1 0 0.2c0.1 0 0.2 0 0.3 0.1 0.1 0.1 0.1 0.2 0.1 0.2q-0.1 0.2-0.4 0.2c0 0.4 0.4 0.5 0.4 0.8 0.1 0.3-0.3 0.4-0.3 0.7 0.2 0.1 0.2 0.1 0.2 0.2q0 0.1 0 0.1c-0.1 0.1-0.2 0.1-0.2 0.2q0.3 0.1 0.6 0.2 0 0 0 0c-0.1 0.1-0.1 0.1-0.1 0.2 0.3 0.5 0.1 0.9-0.4 1.1 0 0.2 0 0.2 0.2 0.3-0.1 0.2-0.2 0.1-0.2 0.3 0.1 0.3 0.1 0.6 0.3 0.9 0.2 0.2 0.7 0.2 0.9 0.4q0.7 0.3 1.3 0.6c1.2 0.8 2.1 2.1 2.1 4q0.6 0 1.2 0 0 0.5 0 1c0.1 0.1 0.2 0.2 0.4 0.3q0 0 0-0.1c0.1 0 0.5-0.7 0.5-0.8q-0.1-0.2-0.1-0.4 0.1-0.3 0.3-0.6 0.1 0 0.1 0 0 1 0 2c0 0.3-0.1 0.6 0 0.8 0.3 0.1 0.6 0.2 0.5 0.5-0.6 0.1-1.1 0.4-1.2 0.8 0 0.2 0.1 0.3 0.1 0.5q-0.1 0-0.1 0 0 2.2 0 4.5 0.2 0 0.4 0 0 0 0 0.1-0.1 0-0.1 0-0.1 0-0.1 0.1 0 0-0.1 0 0 0 0 0.1c-0.1 0-0.1 0-0.1 0-0.1 0.2 0.2 0.9 0.1 1.1-0.1 0.4-0.1 1.1-0.1 1.6q0 1.5 0 3 0.4 0 0.7 0 0.3 0.4 0.6 0.7 0.4 0 0.9 0 0 0.1 0.1 0.2 0.3 0 0.6 0-0.1 0.4-0.1 0.7 0 0 0 0 0.1 0 0.2 0 0 0.3-0.1 0.6 0.1 0 0.3 0-0.1 0.3-0.1 0.7 0.6 0 1.2 0-0.1-0.4-0.2-0.7 0.2 0 0.3 0 0-0.3-0.1-0.6 0.1 0 0.3 0-0.1-0.3-0.2-0.7 0.2 0 0.4 0 0 1.4 0 2.8 0.3 0.1 0.6 0.3 0 0.1 0 0.2-0.2 0-0.3 0 0 0.1 0 0.2c-0.4 0-1.2 0.5-1 1 0.1 0.1 0.3 0.2 0.4 0.2 0 0.2-0.1 0.3-0.2 0.4q0 0.6 0 1.2-0.1 0-0.2 0 0 0.2 0 0.3 0.1 0.1 0.2 0.1 0 4.7 0 9.5-0.1 0-0.2 0 0 0.2 0 0.4 0.1 0 0.2 0 0 0.6 0 1.2 0 0-0.1 0 0.1 0.2 0.2 0.4 0 0.8 0 1.5c-0.3 0.2-1.2 1-0.8 1.4q-0.1 0.2-0.2 0.3-0.2 0-0.3 0c0 0.5-0.1 1-0.2 1.3q0 0-0.1 0 0 9.1 0 18.2 0.2 0 0.4 0 0 1.7 0 3.4-0.2 0.3-0.3 0.7c0 0.1 0.1 0.1 0.1 0.2-0.3 1-0.1 2.5-0.1 3.7q0.7 0 1.3 0 0 0 0 0.1 0 0-0.1 0c0 0.8 0.2 2.8-0.2 3.2q-0.5 0-1 0 0 0.5 0 1c0.3 0 0.6-0.3 0.7-0.5q0 0 0 0c-0.2 0-0.3 0.1-0.5 0.2q0-0.1 0.1-0.2-0.1 0-0.2-0.1c0.4 0 0.4-0.1 0.3-0.2q0.1 0.1 0.3 0.2c0-0.2 0-0.2 0.1-0.3q0 0 0.1 0c0.1 0 0.2 0 0.3 0 0.1 0.2 0.1 0.3 0 0.4-0.1 0.1-0.5 0.2-0.6 0.3q-0.2 0.2-0.3 0.3-0.2 0-0.3 0 0 7 0 13.9 0.2 0.1 0.3 0.1c0 0.3-0.1 1.7 0 1.8 0.4 0.2 1 0 1.1-0.2q0 0 0-0.1c-0.1-0.2-0.2-0.2-0.4-0.3 0.3 0.1 0.4 0.2 0.7 0.3q0.4-0.1 0.3-0.5c-0.2-0.2-0.4-0.2-0.8-0.2-0.1-0.2-0.1-0.2 0-0.4 0.2 0 0.5 0 0.7-0.1q0 0 0 0c-0.1 0-0.2-0.1-0.2-0.2 0-0.1 0.5-0.3 0.7-0.3q0.3 0.1 0.5 0.2c0 0.1 0 0.2 0 0.3 0.2 0 0.4 0.1 0.5 0.2q0 0.1 0 0.2c-0.7 0.2-0.5 0.9 0 0.7 0 0.2 0.1 0.3 0.2 0.4 0.1 0 0.3 0 0.5 0q0-0.1 0.1-0.1 0-0.2 0-0.3c0.1 0.1 0.2 0.1 0.4 0 0.1-0.1 0.2-0.2 0.1-0.5-0.1-0.1-0.4-0.2-0.5-0.3 0.2-0.2 0.4-0.2 0.6-0.3-0.1-0.1-0.1-0.1-0.1-0.2 0.1-0.2 0.5-0.4 0.6-0.2q0.2 0 0.5 0.1c0 0.2-0.1 0.2-0.2 0.3q0 0 0.1 0c0.2 0 0.4 0.1 0.6 0.3q0 0.1 0 0.2c-0.3-0.1-0.5 0-0.6 0.1-0.1 0.1-0.1 0.3 0 0.4q0.1 0.2 0.5 0.2c0 0.1 0 0.2 0.1 0.3 0.1 0.1 0.5 0.1 0.6-0.1q0.1-0.1 0.1-0.2c0.2 0 0.3-0.1 0.4-0.1 0.1-0.2 0.1-0.3 0-0.5-0.1-0.1-0.4-0.2-0.4-0.2q0-0.1 0-0.1c0.1-0.2 0.3-0.2 0.5-0.3 0-0.1-0.1-0.1-0.1-0.2 0.1-0.2 0.5-0.4 0.6-0.3q0.2 0.1 0.4 0.2c0.1 0.2 0 0.2 0 0.3q0.4 0 0.6 0.3c-0.1 0.2-0.4 0.1-0.5 0.3-0.4 0.3 0.1 0.5 0.4 0.6 0 0.1 0.1 0.2 0.1 0.3q0.3 0 0.5 0c0.1-0.1 0.2-0.2 0.1-0.3 0.2 0 0.4 0 0.5-0.1 0.1-0.2 0.1-0.4 0-0.5-0.1-0.1-0.3-0.1-0.5-0.1q0-0.1 0-0.2c0.2-0.2 0.5-0.2 0.7-0.3q0-0.1-0.1-0.1 0-0.1 0-0.1c0.1-0.2 0.3-0.3 0.5-0.3q0 1.4 0 2.8c0.1 0.1 0.3 0.2 0.4 0.4-0.1 0-0.1 0-0.1 0.2-0.2 0-0.2 0.1-0.3 0.1q-0.4 0-0.7 0-0.1 0.2-0.2 0.3c-0.1 0.2 0.1 0.2 0 0.4-0.4 0.1-0.2 0.8-0.2 1.2q0 1.8 0 3.6c0.1 0.1 0.1 0 0.1 0.1-0.1 0.2-0.1 0.7-0.1 0.9-0.2 0.1-0.2 0-0.2 0.2q0 0.1 0.1 0.3-0.1 0.1-0.1 0.1 0 3.1 0 6.2 0 0.1 0.1 0.1 0 0.3 0 0.5c0.1 0.3 0.2 0.2 0.2 0.6 0.8-0.3 2.4-0.7 2.3-1.7-0.1 0-0.2 0-0.2-0.1q0-0.1 0-0.1c0.1-0.1 0.1-0.1 0.2-0.2q0 0-0.1 0-0.3-0.1-0.6-0.2c0-0.1-0.1-0.1 0-0.2 0.1-0.1 0.4-0.2 0.6-0.2 0-0.4 0.1-0.3 0.2-0.5 0.1-0.4-0.4-1.1-0.4-1.4q0.3-0.4 0.6-0.9 0 0 0.1 0.1 0.2 0.4 0.4 0.9-0.1 0.4-0.3 0.8c0 0.3 0.2 0.6 0.2 1 0.2 0 0.5 0.1 0.7 0.2q-0.1 0.1-0.1 0.2c-0.1 0.2-0.6 0.1-0.7 0.3 0.1 0 0.2 0 0.2 0.1q0 0.1 0 0.2c-0.4 0.1 0.1 1 0.4 1 2.1 0.5 4.3 2.4 4.3 4.6q0.3 0 0.5 0c0.2-0.9 1.2-0.9 1.3 0q0.2 0 0.4 0 0 0.3 0 0.5c-0.5 0.1-0.6 0.5-0.3 0.8 0.1 0 0.2 0 0.4 0 0.3-0.2 0.2-0.5 0.5-0.8q0 0 0 0 0.1 0.1 0.2 0.2c0 0.2-0.1 0.4 0 0.5 0.2 0.1 0.4 0.1 0.7 0 0.2-0.3 0-0.6-0.3-0.7q0-0.2 0-0.4 0.2 0 0.3 0c0-0.4 0.2-0.7 0.6-0.7q0 1.3 0 2.6 0 0 0.1 0 0.2 0.1 0.3 0.2 0 0.2 0 0.3c-0.2 0.2-0.7 0.2-0.9 0.4 0 0.2 0.2 0.3 0.1 0.4q0 0 0 0.1-0.1 0-0.2 0-0.1 0-0.1 0.1-0.1 0-0.1 0c0 0.2 0 0.3 0 0.3q0 3.8 0 7.5 0 0.6 0 1.2 0.1 0.2 0.1 0.3-0.2 0.1-0.3 0.3c-0.1 0.3 0.1 0.8-0.3 1q-0.1 0-0.2-0.1 0 0.1 0 0.1-0.1 1-0.1 2.1 0 2.4 0 4.9c0.1 0.1 0.2 0.2 0.2 0.4 0.2 0 0.2 0 0.3 0.1q0 0.1 0 0.3 0.2 0.1 0.4 0.2 0 0.4 0 0.8-0.1 0.1-0.2 0.2c0 0.2 0.1 0.2 0.1 0.2q0 0.4 0 0.8c0.5-0.1 1.3-0.1 1.5 0.1q0 0 0 0-0.1 0-0.1 0.1 0 0-0.1 0 0 0 0 0.1c-0.3 0.1-1.2 0.5-0.9 0.9 0.1 0.2 0.2 0.3 0.1 0.6-0.2 0.4-0.5 0.7-0.9 0.9 0 0.1 0 0.3 0 0.5q6.4 0 12.9 0 0 0.5 0 1.1 1.8 0 3.7 0 0 0.5 0 1 1.8 0 3.7 0zm-75.1-11.5c0-0.1 0.1-0.1 0.1-0.2q0.3 0 0.6 0.1 0.2-0.1 0.5-0.1 0.2 0.1 0.4 0.1c0.2 0 0.4-0.1 0.6-0.1 0-1.2 0.2-2.7-0.1-3.5-0.2 0-0.3-0.1-0.4-0.1-0.1-0.4-0.2-0.7-0.2-0.9 0.1-0.1 0.1-0.1 0.1-0.2q-0.1-0.1-0.2-0.2 0-0.1 0-0.1 0.2 0 0.4 0-0.2-0.4-0.4-0.7 0.1-0.4 0.2-0.8c0.1-0.6 0.1-1.2-0.1-1.7-0.4-1.5-1.3-2.1-2.3-3-1.4 0.6-3.6 2.4-2.8 4.4 0.1 0.4 0.4 0.7 0.7 1q-0.2 0.4-0.3 0.8c0.2-0.1 0.3-0.1 0.3 0q0 0.1 0 0.1c-0.2 0.1-0.2 0.9-0.3 1.2q-0.3 0-0.6 0c0 1.5 0 3.2 0 4.9q0 1.1 0 2.2c0.1 0.1 0.2 0.2 0.2 0.4 0.2 0 0.3 0 0.4 0.1q0 0.2 0 0.3 0.3 0 0.7 0 0-0.2 0-0.4 0.1 0 0.3 0c0-0.5 0.4-0.5 0.7-0.8 0.3 0.1 0.5 0.3 0.7 0.4q0 0.2 0 0.4 0.2 0 0.4 0 0 0.2 0 0.5 1 0 2 0c0-0.3 0.1-0.4 0.2-0.5q0.2 0 0.3 0c-0.1-0.2 0.1-0.2 0.2-0.3q-0.1-0.1-0.1-0.1 0-1 0-1.9c-0.8-0.1-1.7-0.8-2.2-1.3zm9.5-29.7q0 0 0 0c-0.1 0-0.1 0-0.2 0 0-0.1-0.1-0.1-0.1-0.2-0.2 0.1-0.2 0.1-0.3 0.1-0.1-0.3-0.1-0.5 0-0.7q-0.1-0.1-0.2-0.2c0 0 0 0 0.1 0q-0.1-0.2-0.1-0.4c0.2-0.1 0.3-0.2 0.4-0.4 0.4-0.5-0.4-0.7-0.6-1q0 0 0-0.1c0.6-0.3 0.8-1 0.1-1.4-0.5 0.2-1 0.6-0.7 1.2 0 0.1 0.1 0.2 0.2 0.3-0.4 0.2-0.8 0.7-0.4 1.1q0.2 0.2 0.4 0.3-0.1 0.2-0.1 0.4 0.1 0 0.1 0c-0.1 0.2-0.2 0.6-0.1 0.8-0.1 0-0.1 0-0.3 0 0 0.2-0.1 0.5-0.2 0.6q0 2.2 0 4.4 0 1 0 1.9c0.2 0.4 0.2 0.8 0.2 1.3q0.5 0 1.1 0c0-0.2-0.1-0.4 0-0.6 0.3 0 0.2-0.3 0.2-0.6q0.2 0 0.3 0c0.1-0.1 0.1-0.1 0.2-0.1 0-2.2 0-4.8 0-6.7zm3.1 0q0 0 0 0-0.1 0-0.2 0 0-0.1-0.1-0.2c-0.1 0.1-0.2 0.1-0.3 0-0.1-0.2 0-0.4 0-0.6q-0.1-0.1-0.2-0.2c0.1 0 0.1 0 0.1 0 0-0.1-0.1-0.4-0.1-0.4 1.1-0.7 0.3-0.9-0.2-1.4q0 0 0-0.1c0.7-0.3 0.7-0.9 0.1-1.4-0.4 0.1-1 0.7-0.7 1.3 0 0.1 0.2 0.1 0.2 0.2q-0.2 0.2-0.4 0.3c-0.3 0.4 0 1 0.4 1q-0.1 0.3-0.1 0.5 0.1 0 0.2 0c-0.2 0.2-0.2 0.5-0.2 0.8-0.1 0-0.1 0-0.3 0-0.3 1.2-0.2 3-0.2 4.4 0 0.9-0.1 1.9 0.1 2.7q0.1 0 0.3 0 0 0.2 0 0.5 0.1 0 0.2 0.1 0 0.2 0 0.5 0.3 0 0.7 0 0-0.3 0-0.5 0.1-0.1 0.2-0.2 0-0.2 0-0.5 0.2 0 0.4 0c0-0.1 0-0.1 0.1-0.1 0-2.2 0-4.8 0-6.7zm25.2 4.9q0-1.7 0-3.5c0-0.5 0.1-1.6-0.5-1.6 0-0.3 0-0.6-0.1-0.8q0.1 0 0.2 0-0.1-0.2-0.1-0.5c0.4 0 0.6-0.6 0.3-1q-0.2-0.1-0.4-0.3c0.5-0.7 0.2-1-0.4-1.5-0.2 0.1-0.3 0.2-0.4 0.3-0.4 0.6 0.1 0.8 0.4 1.2q0 0 0 0.1c-0.7 0.1-0.9 1-0.2 1.3q0 0.2-0.1 0.3 0.1 0.1 0.1 0.1 0 0 0 0.1-0.1 0-0.2 0.1c0.1 0.2 0.2 0.5 0 0.7q-0.1-0.1-0.3 0-0.1 0.1-0.1 0.1-0.1 0-0.2 0c0 1.8 0 4.5 0 6.7 0.1 0 0.2 0 0.2 0.1q0.1 0 0.3 0 0 0.3 0 0.5 0.1 0.1 0.3 0.2 0 0.2 0 0.5 0.3 0 0.7 0c-0.1-0.1-0.1-0.4 0-0.5q0.1-0.1 0.2-0.2 0-0.2 0-0.4 0.1 0 0.2 0c0.2-0.6 0.1-1.3 0.1-2zm2.9-5.1c-0.1 0-0.1 0-0.3 0 0.1-0.3 0.1-0.6-0.1-0.8q0.1 0 0.2 0 0-0.1 0-0.1-0.1-0.1-0.1-0.3c0.3-0.2 0.7-0.7 0.3-1.1q-0.2-0.1-0.3-0.3c0-0.1 0.1-0.1 0.2-0.3 0.3-0.5-0.3-1-0.7-1.2-0.9 0.5-0.4 1 0.1 1.5-0.2 0.3-1 0.4-0.7 1q0.2 0.2 0.5 0.4-0.1 0.2-0.2 0.4c0.1 0 0.1 0 0.2 0q-0.1 0.1-0.2 0.2c0.1 0.2-0.1 0.5 0 0.6q0 0.1-0.1 0.1c-0.1-0.1-0.2-0.1-0.3 0q0 0.1-0.1 0.1-0.1 0-0.1 0c0 1.9 0 4.5 0 6.7 0.1 0 0.1 0.1 0.1 0.1q0.2 0 0.3 0c0 0.2 0 0.5 0.1 0.5q0.1 0.1 0.2 0.2 0 0.2 0 0.5 0.5 0 1.1 0c0-0.5 0-0.9 0.1-1.3q0-2.1 0-4.3c0-0.9 0.1-1.9-0.2-2.6zm11.5 30.9c0-1.7 0-3.4 0-4.9-0.2 0-0.5 0-0.6-0.1-0.3-0.2 0-0.9-0.3-1.2q0 0 0 0 0.2 0 0.3 0-0.1-0.4-0.3-0.8c0.3-0.2 0.5-0.4 0.6-0.7 0.8-1.5-0.4-3.1-1.3-3.9-0.2-0.1-1.2-0.8-1.4-0.8-0.3 0.2-0.6 0.5-0.8 0.7-0.9 0.9-1.4 1.6-1.6 3.1-0.1 0.4 0 0.9 0 1.2q0.1 0.3 0.2 0.5-0.2 0.3-0.4 0.7 0.2 0 0.4 0 0 0 0 0.1c-0.1 0.1-0.2 0.1-0.2 0.3 0.1 0 0.1 0 0.1 0.1 0 0.1 0 0.1-0.1 0.2q0 0.4-0.1 0.7c-0.1 0.1-0.3 0-0.4 0.1-0.1 0.2 0 0.6 0 0.8-0.1 0.8-0.1 1.8-0.1 2.7 0.2 0 0.4 0.1 0.6 0.1q0.2 0 0.4-0.1c0.2 0 1.1 0 1.2 0.1q0 0.1 0 0.1-0.4 0.3-0.7 0.6-0.6 0.4-1.5 0.7c0 0.3 0.1 1.9 0 2 0.1 0.1 0.2 0.1 0.1 0.3q0 0 0 0c0.3 0 0.3 0 0.5 0.1q0 0.2 0 0.4 1 0 2.1 0 0-0.3 0-0.5 0.2 0 0.3 0 0 0 0 0c-0.1-0.2 0-0.3 0.1-0.5 0.2 0 0.5-0.3 0.6-0.2 0.4 0.1 0.7 0.3 0.7 0.7q0.2 0 0.3 0 0 0.2 0 0.4 0.4 0 0.7 0c0-0.2 0.1-0.3 0.2-0.4q0.1 0 0.2 0c0-0.2 0.2-0.3 0.2-0.4q0-1.1 0-2.2z"/></svg>