<svg version="1.2" xmlns="http://www.w3.org/2000/svg" viewBox="0 0 1229 429" width="1229" height="429"><style>.a{fill:#fff}</style><path fill-rule="evenodd" class="a" d="m0.8 366.6v-44h21.9c8.7 0 13 1.7 13 11.4 0 5.1-0.9 8.5-6.3 9.8v0.2c6.2 0.7 7.4 4.8 7.4 10.4 0 9.7-4 12.2-13.3 12.2zm8.4-7.2h11.6c5.1 0 7.5-0.3 7.5-5.8 0-4.8-1.1-6.2-6.1-6.2h-13zm0-18.4h12.2c4.8 0 5.8-1.4 5.8-6.1 0-4.7-1.9-5.1-6-5.1h-12z"/><path fill-rule="evenodd" class="a" d="m79.3 322.6v31.3c0 12.3-7.7 13.1-18.4 13.1-10.3 0-18.3-0.8-18.3-13.1v-31.3h8.5v31.3c0 4.5 1.6 5.9 9.8 5.9 7.8 0 10-1.2 10-5.9v-31.3zm-21.5-10v5.2h-5.8v-5.2zm12.1 0v5.2h-5.9v-5.2z"/><path class="a" d="m106.5 349.7v16.9h-8.4v-16.9l-16-27.1h9.7l10.4 18.8h0.2l10.6-18.8h9.8z"/><path fill-rule="evenodd" class="a" d="m162.4 322.6v31.3c0 12.3-7.7 13.1-18.5 13.1-10.3 0-18.2-0.8-18.2-13.1v-31.3h8.4v31.3c0 4.5 1.7 5.9 9.8 5.9 7.9 0 10-1.2 10-5.9v-31.3zm-21.4-10v5.2h-5.8v-5.2zm12 0v5.2h-5.9v-5.2z"/><path class="a" d="m178.1 340.6h4l14.7-18h10.4l-17.9 21.5 19.7 22.5h-10.7l-16.2-18.8h-4v18.8h-8.4v-44h8.4z"/><path class="a" d="m217.9 352.6v2c0 5.1 2.2 5.4 10 5.4 7.7 0 8.7-1.4 8.7-6.5 0-6.3-3.3-5.4-9.9-5.8-9.5-0.6-17-0.2-17-13 0-12.1 7.6-12.5 18.2-12.5 9 0 16.3 0.3 16.3 11.9v1.4h-8.4v-1.4c0-4.8-2-4.9-7.9-4.9-8.4 0-9.8 0.8-9.8 5.5 0 5.4 1.1 5.6 9.7 6.1 13.6 0.8 17.3 1.5 17.3 12.7 0 12.4-5.9 13.5-17.2 13.5-9.8 0-18.5 0.3-18.5-12.4v-2zm14 18.4l-7.7 3.1-1.6-2.7 6.7-4.1z"/><path class="a" d="m258.5 340.8h20.6v6.9h-20.6v11.7h21.9v7.2h-30.4v-44h30.2v7.2h-21.7z"/><path class="a" d="m324.1 366.6h-8.5v-18.8h-20.5v18.8h-8.5v-44h8.5v18h20.5v-18h8.5z"/><path class="a" d="m340 366.6h-8.5v-44h8.5zm-1.4-45.4h-5.8v-5.1h5.8z"/><path fill-rule="evenodd" class="a" d="m355.6 352.1v14.5h-8.5v-44h22.5c9.6 0.2 13.3 3.2 13.3 13.2 0 6.5-0.3 11.3-7.8 12.4v0.2c6 0.6 7.5 3.8 7.5 10v8.2h-8.5v-8.2c0-3.7-1.5-6.3-5.6-6.3zm11.2-7.3c6.2 0 7.8-1.2 7.8-7.7 0-6.2-1.2-7.3-7.2-7.3h-11.8v15z"/><path class="a" d="m111.8 304.9h-4.4v-38.9h4.4zm0.1-39.8h-4.6v-3.9h4.6z"/><path class="a" d="m154.7 270.1l-24.4 30.9h25v3.9h-30.4v-3.8l24.4-31.2h-23.7v-3.9h29.1z"/><path class="a" d="m192 304.9h-4.4l-14.7-35.6h-0.1v35.6h-4.5v-38.9h7.7l13.7 33.3 13.8-33.3h7.6v38.9h-4.4v-35.6h-0.1z"/><path class="a" d="m231 304.9h-4.4v-38.9h4.4zm0.1-39.8h-4.5v-3.9h4.5z"/><path fill-rule="evenodd" class="a" d="m250.8 304.9h-4.4v-38.9h17.9c8.4 0 12.1 2.3 12.1 11.2 0 5.5-0.6 9.5-6.8 10.3v0.1c4.4 0.3 6.3 2.8 6.3 7v10.3h-4.4v-8.2c0-5-1.2-7.4-6.5-7.4h-14.2zm13.6-19.4c6.8-0.2 7.6-2.3 7.6-8.7 0-5-0.7-6.9-7.6-6.9h-13.6v15.6z"/><path fill-rule="evenodd" class="a" d="m19.2 423.2v-38.9h19.7c7.3 0 9 3.5 9 10.3 0 4.1-0.8 6.8-4.9 8.2v0.1c5.2 0.9 6.1 4.6 6.1 9.5 0 7-2.6 10.8-9.2 10.8zm4.4-3.9h13.9c4.8 0 7.1-0.6 7.1-6.5 0-5.2-0.7-7.8-6.5-7.7h-14.5zm0-18h12.8c5.3 0 7.1-1.2 7.1-7.3 0-5.2-2-5.8-6.6-5.8h-13.3z"/><path class="a" d="m66.7 401.4h19.7v3.6h-19.7v14.3h20.5v3.9h-25v-38.9h25v3.9h-20.5z"/><path class="a" d="m105.6 419.3h19.8v3.9h-24.2v-38.9h4.4z"/><path class="a" d="m140.8 401.4h19.8v3.6h-19.8v14.3h20.6v3.9h-25v-38.9h25v3.9h-20.6z"/><path fill-rule="evenodd" class="a" d="m174.8 384.3h18.9c4.7 0 13.3 0.6 13.3 15v9.3c0 3.8-0.6 14.6-12.3 14.6h-19.9zm18.9 35c7.8 0 8.8-4.6 8.9-11.5v-10.2c0-2.2-0.7-9.4-8.2-9.4h-15.2v31.1z"/><path class="a" d="m225.8 423.2h-4.4v-38.9h4.4zm0.1-39.9h-4.6v-3.8h4.6z"/><path class="a" d="m255.9 407v16.2h-4.4v-16.2l-14.3-22.7h5.2l11.5 18.2 11.5-18.2h5.3z"/><path class="a" d="m285 401.4h19.7v3.6h-19.7v14.3h20.6v3.9h-25v-38.9h25v3.9h-20.6z"/><path class="a" d="m317.5 395.3c0-10.4 4.7-11.3 14.3-11.3 8.4 0 14.5 0.3 14 10.9h-4.4c-0.2-6.8-1.5-7-9.7-7-8.6 0-9.8 1.1-9.8 6.4 0 7.5 3.5 6.8 10.8 7.1 9.2 0.5 13.9 0.2 13.9 10.7 0 11-5.2 11.4-15 11.4-9.9 0-15.1-1.2-14.2-12.4h4.4c-0.1 8.5 1.5 8.5 9.8 8.5 8.3 0 10.6 0 10.6-7.6 0-7.4-3.4-6.2-10.5-6.8-7.7-0.6-14.2 0.4-14.2-9.9z"/><path class="a" d="m364.5 423.2h-4.4v-38.9h4.4zm0.1-39.9h-4.6v-3.8h4.6z"/><path fill-rule="evenodd" class="a" d="m276.8 252.9q0 0.8 0 1.7-84.9 0-169.9 0 0-0.9 0-1.7 3.2 0 6.3 0 0-0.9 0-1.8 3.1 0 6.3 0 0-0.9 0-1.8 10.8 0 21.6 0c0-0.4 0-0.9 0-1-0.9-0.3-1.4-1-1.6-1.9 0-0.3 0.2-0.3 0.3-0.4 0.4-0.8-1-1.5-1.6-1.6q0-0.1 0-0.2-0.1-0.1-0.2-0.1 0 0-0.1-0.1c0.6-0.3 1.6-0.2 2.5-0.2q0-0.6 0-1.2c0-0.1 0.2-0.1 0.1-0.4q-0.1-0.2-0.3-0.4 0-0.7 0-1.3 0.4-0.1 0.7-0.3c0-0.3 0-0.6 0.1-0.7q0.3 0 0.5 0c0-0.4 0.2-0.5 0.2-0.7q0-1.7 0-3.4 0-2.3 0-4.5c0-0.7 0.1-1.7 0-2.3q0-0.8 0-1.7-0.2 0.1-0.4 0.1c-0.7-0.3-0.3-1.1-0.5-1.7q-0.3-0.2-0.5-0.5 0-0.2 0.1-0.4 0-1.1 0-2.1 0-6.3 0-12.5c0-0.2 0.1-0.3 0.1-0.6q-0.2-0.1-0.3-0.1 0-0.1 0-0.1-0.2 0-0.4-0.1 0 0-0.1 0c0-0.3 0.3-0.4 0.2-0.7-0.1-0.4-1.1-0.4-1.5-0.7-0.1-0.6 0.2-0.7 0.6-0.8q0-2.2 0-4.5c0.7 0.1 1.1 0.6 1.1 1.2q0.2 0 0.5 0c0 0.3 0 0.6-0.1 0.8-0.5 0.1-0.7 0.6-0.5 1.1 0.3 0.3 0.9 0.2 1.3 0 0.1-0.5-0.1-0.8 0.4-1.1q0 0 0 0c0.1 0.4 0.3 1.1 0.8 1.3 0.3 0.1 0.6-0.1 0.8-0.2 0.2-0.5 0-1.1-0.6-1.1q0-0.4 0-0.9 0.3 0 0.5 0c0.1-0.5 0.3-1 0.8-1.1 0.9-0.2 1.3 0.6 1.4 1.1q0.5 0 0.9 0c-0.1-2.9 2.4-5.3 4.4-6.5q1-0.5 2-0.9c1.1-0.5 1.8-0.5 1.8-2-0.1 0-0.2 0-0.3-0.1q0-0.2 0-0.4 0.2 0 0.3-0.1 0 0 0-0.1c-0.5 0-1-0.2-1.2-0.4 0-0.2 0.1-0.3 0.2-0.4q0.4-0.1 0.9-0.3c0-0.6 0.4-1 0.3-1.6q-0.3-0.7-0.5-1.4 0.4-0.7 0.8-1.5 0 0 0.1 0 0.4 0.7 0.9 1.5c0.1 0.5-0.8 1.6-0.6 2.2q0.2 0.2 0.4 0.3c0.1 0.2-0.1 0.4 0.1 0.5 0.2 0.3 0.8 0.2 0.9 0.5 0.1 0.1 0 0.2-0.1 0.3q-0.5 0.2-1.1 0.3 0 0 0 0.1c0.2 0 0.2 0.1 0.4 0.2q-0.1 0.1-0.1 0.3-0.1 0.1-0.3 0.1c-0.2 1.7 2.5 2.3 3.9 2.9 0-0.7 0-0.6 0.3-1q0-0.4 0-0.9 0.1 0 0.2-0.1 0-3.6 0-7.2 0-1.7 0-3.3c-0.1-0.2-0.2-0.1-0.2-0.3 0.2-0.2 0.2-0.4 0.1-0.6-0.2 0-0.3 0-0.2-0.2-0.4-0.5 0.1-0.9-0.1-1.2 0-0.1-0.1-0.1-0.1-0.3 0.1 0 0.1 0 0.2-0.1q0-3 0-6c0-0.8 0.2-1.9-0.5-2.2 0.1-0.4 0.2-0.8-0.3-1q-0.5 0-1.1 0c-0.2-0.1-0.2-0.3-0.5-0.3 0-0.2-0.1-0.2-0.2-0.4q0.4-0.3 0.7-0.5 0-2.4 0-4.7c0.4 0 0.6 0.2 0.8 0.4 0 0.2 0 0.3-0.2 0.4q0 0 0 0c0.6 0 1.1 0.2 1.2 0.5 0 0.2 0 0.2-0.1 0.3-0.2 0-0.5 0-0.6 0.1-0.4 0.2-0.3 0.8-0.1 1 0.2 0.1 0.5 0.2 0.7 0.1 0 0.3 0.1 0.3 0.2 0.5 0.4 0 0.7 0.1 1-0.1q0-0.2 0-0.4c0.8 0 1.3-0.6 0.8-1.1-0.2-0.2-0.6-0.2-0.8-0.4 0.2-0.4 0.6-0.3 1-0.5-0.1-0.1-0.2-0.2-0.2-0.4 0.2-0.3 0.6-0.3 0.9-0.5 0.3 0.1 0.6 0.3 0.9 0.5 0 0.2-0.1 0.3-0.2 0.4 0.4 0.2 0.7 0.2 1 0.5q0 0.1-0.1 0.2c-0.3 0.1-0.6 0.1-0.8 0.4-0.2 0.2 0 0.6 0.2 0.8 0.2 0.1 0.3 0.1 0.6 0.1 0 0.3 0.1 0.4 0.3 0.5 0.2 0.2 0.8 0.1 1-0.1 0.1-0.1 0.1-0.2 0.1-0.4q0.7 0 0.9-0.4c0.1-0.3-0.1-0.5-0.2-0.7-0.2 0-0.6-0.1-0.9-0.2q0-0.1 0-0.3c0.2-0.3 0.8-0.2 1.1-0.4q-0.4-0.2-0.1-0.5c0.3-0.1 0.6-0.2 0.8-0.4 0.5 0.2 1.2 0.4 0.7 0.9 0.3 0.3 0.7 0.2 1 0.6q-0.1 0-0.1 0.1c-0.8 0-1.3 0.9-0.5 1.2 0.3 0.1 0.5 0.1 0.6 0 0 0.1-0.1 0.3 0 0.5q0.1 0.1 0.3 0.1c0.3 0.1 0.6 0.1 0.9 0 0-0.2 0.1-0.4 0.1-0.7 0.5 0.2 1-0.1 0.8-0.7-0.2-0.3-0.6-0.2-0.8-0.4q0-0.2 0-0.3c0.2-0.3 0.6-0.2 0.9-0.4q0 0 0-0.1c-0.1-0.2-0.1-0.3 0.1-0.4 0.1-0.2 0.5-0.2 0.8-0.3 0.4 0 1.1 0.2 1.2 0.6-0.2 0.1-0.2 0.2-0.4 0.2q0 0.1 0 0.1c0.6 0 0.9 0.1 1.3 0.3 0 0.2 0 0.2-0.1 0.3q0 0.1-0.1 0.1c-0.6 0.1-1.1-0.1-1.3 0.4-0.1 0.2 0.1 0.5 0.2 0.7q0.2 0.1 0.3 0.1c0.5-0.1 0.6-0.3 1.2-0.4q0 0 0 0-0.1 0-0.1 0c-0.2 0.2-0.7 0.3-0.6 0.6 0.2 0.4 1.3 0.5 1.9 0.4q0-1.6 0-3.1 0.2-0.1 0.5-0.2 0-8.2 0-16.5 0-3.4 0-6.8c-0.1 0-0.5 0-0.6-0.1q-0.2-0.2-0.4-0.4c-0.3-0.3-0.8-0.4-1.1-0.7 0-0.2 0-0.4 0.1-0.5 0.1-0.1 0.3-0.1 0.5-0.1 0.2 0.1 0.3 0.3 0.3 0.6q0.3-0.2 0.6-0.4-0.1 0.2-0.2 0.4 0.3 0 0.5 0-0.1 0.1-0.2 0.2 0.1 0.1 0.2 0.3c-0.3-0.1-0.7-0.4-0.9-0.3 0.2 0.3 0.6 0.8 1.2 0.8q0-0.8 0-1.6c-0.9 0-1.6 0-2-0.3q0-2.6 0-5.1-0.2 0-0.3 0 0-0.2 0-0.3 1.1 0 2.3 0c0-1.9 0.2-4.4-0.2-6.1 0-0.2 0.2-0.2 0.2-0.4-0.1-0.5-0.3-0.9-0.5-1.2q0-2.9 0-5.8 0.3 0 0.6 0 0-15.2 0-30.5-0.1 0-0.2 0c-0.1-0.6-0.2-1.4-0.2-2.3-0.2 0.1-0.4 0.1-0.5 0q-0.2-0.2-0.4-0.4c0.8-0.9-0.9-2-1.4-2.4q0-1.2 0-2.5 0.2-0.4 0.4-0.7-0.1 0-0.3 0 0-1.1 0-2.1 0.2 0 0.4 0 0-0.3 0-0.6-0.1 0-0.3 0 0-8 0.1-16.1 0.1 0 0.3 0 0-0.2 0-0.5-0.2 0-0.4 0 0-1 0-2c0-0.1-0.3-0.4-0.4-0.5 0-0.2 0.1-0.2 0.2-0.3 0.2-0.1 0.4-0.2 0.5-0.3 0.1-1-0.7-1.5-1.7-1.7q0-0.2 0-0.3-0.2 0-0.4 0 0-0.2 0-0.4 0.5-0.3 0.9-0.5 0-2.3 0-4.6 0.4 0 0.8 0-0.2 0.6-0.3 1.1 0.2 0 0.4 0-0.1 0.5-0.2 1.1 0.3 0 0.5 0-0.1 0.5-0.3 1 1.1 0 2.1 0-0.1-0.5-0.2-1.1 0.2 0 0.5 0-0.1-0.5-0.3-0.9 0-0.1 0.1-0.1 0.2 0 0.4 0-0.1-0.5-0.2-1.1 0.5 0 1 0 0.1-0.2 0.2-0.3c0.5 0 1.2 0 1.5-0.1q0.5-0.6 1-1.1 0.5 0 1.1 0 0-2.6 0-5.1c0-0.9 0.1-2-0.1-2.8-0.1-0.3 0.3-1.5 0.2-1.8q-0.1 0-0.2 0 0-0.1 0-0.2-0.1 0-0.3 0 0-0.1 0-0.2-0.1 0-0.2 0 0-0.1 0-0.1 0.4 0 0.7 0 0-3.8 0-7.5-0.1 0-0.2 0c0-1.6-0.3-1.8-1.9-2.2 0-0.7 0.4-0.7 0.9-1q0-2.2 0-4.5 0.1 0 0.1 0.1 0.3 0.4 0.6 0.9-0.1 0.3-0.2 0.6c-0.1 0.3 0.2 0.3 0.3 0.5 0.3 0.4-0.1 0.9 0.7 0.9 0.7-0.3 0.5-1.2 0.5-2.1q1 0 2 0c-0.1-3.3 1.7-5.6 4-6.9 1.5-1 3.7-1 3.8-3.2q-0.2-0.1-0.3-0.2c0-0.3 0.2-0.3 0.3-0.4q0-0.1 0-0.3c-0.8-0.1-1.5-1.3-0.7-1.8-0.1-0.1-0.2-0.1-0.2-0.4q0.5-0.1 1-0.2 0-0.1 0-0.2c-0.2-0.1-0.2-0.1-0.4-0.3q0-0.1 0.1-0.1c0.1-0.2 0.3-0.1 0.4-0.4-1.2-1.5-0.1-1.1 0.1-2.4-0.4 0-0.5-0.1-0.6-0.3 0-0.6 0.6-0.3 0.6-0.8q0 0 0-0.1c-0.3 0-0.5-0.1-0.6-0.3 0-0.5 0.5-0.4 0.6-0.7q0-3.3 0-6.6c-0.9-0.2-1.6-1.4-0.7-1.9-0.2 0.6 0 1.7 1.1 1.5 0.8-0.2 1.1-0.8 0.8-1.5q0.1 0.1 0.2 0.1c0.4 0.8 0.1 1.6-0.9 1.8q0 3.3 0 6.6c0.2 0.3 0.6 0.3 0.7 0.7-0.2 0.2-0.4 0.3-0.7 0.4q0 0.1 0 0.2c0.3 0.1 0.4 0.1 0.6 0.2 0.1 0.2 0.1 0.3 0.1 0.4-0.1 0.2-0.3 0.3-0.6 0.3 0 0.6 0.7 0.8 0.7 1.4 0.1 0.5-0.6 0.7-0.6 1.2 0.3 0 0.3 0.1 0.4 0.3q0 0.1-0.1 0.2c-0.2 0-0.3 0-0.3 0.3q0.5 0.1 1.1 0.2 0 0.1 0 0.2c-0.2 0.1-0.3 0.1-0.2 0.2 0.4 0.9 0.2 1.6-0.7 1.9-0.1 0.3 0.1 0.3 0.3 0.5-0.1 0.3-0.3 0.2-0.3 0.5 0.1 0.5 0.2 1.1 0.6 1.5 0.3 0.3 1 0.4 1.5 0.6q1 0.6 2 1.1c2.2 1.4 3.6 3.6 3.7 6.7q1 0 2 0 0 0.9 0 1.8c0.2 0.1 0.3 0.3 0.6 0.3q0 0 0.1 0c0.2-0.1 0.8-1.2 0.8-1.4q-0.1-0.3-0.3-0.6 0.3-0.5 0.7-1 0 0 0 0 0 1.7 0 3.4c0 0.3 0 0.9 0.1 1.2 0.4 0.1 1.1 0.4 0.8 0.9-0.9 0.1-1.8 0.7-1.9 1.4-0.1 0.2 0.1 0.5 0.1 0.8q-0.1 0-0.3 0 0 3.7 0 7.5 0.4 0 0.7 0 0 0 0 0.1-0.1 0-0.2 0 0 0.1 0 0.2-0.1 0-0.2 0 0 0.1 0 0.2c-0.2 0-0.2 0-0.3 0.1-0.1 0.2 0.4 1.4 0.3 1.7-0.2 0.8-0.1 1.9-0.1 2.8q0 2.5 0 5.1 0.5 0 1.1 0 0.5 0.6 1 1.2 0.7 0 1.5 0 0.1 0.1 0.2 0.3 0.5 0 1 0-0.1 0.6-0.2 1.1 0 0 0 0 0.2 0 0.4 0.1-0.1 0.4-0.2 0.9 0.2 0 0.4 0 0 0.6-0.1 1.1 1 0 2 0-0.1-0.5-0.3-1 0.3 0 0.5 0-0.1-0.6-0.2-1.1 0.3 0 0.5 0-0.2-0.5-0.4-1.1 0.4 0 0.8 0 0 2.3 0 4.6 0.5 0.3 1 0.5-0.1 0.2-0.1 0.4-0.2 0-0.4 0 0 0.1 0 0.3c-0.7 0.1-2.1 0.9-1.6 1.7 0.1 0.2 0.4 0.3 0.6 0.4 0 0.3-0.2 0.5-0.4 0.7q0 1 0 2-0.2 0-0.3 0 0 0.3 0 0.5 0.1 0 0.3 0.1 0 8 0 16-0.1 0-0.3 0 0 0.3 0 0.6 0.2 0 0.4 0 0 1 0 2.1-0.1 0-0.2 0 0.2 0.3 0.4 0.7 0 1.3 0 2.5c-0.6 0.3-2.1 1.6-1.4 2.4q-0.2 0.2-0.4 0.4-0.3 0-0.5 0c0 0.9-0.1 1.7-0.3 2.3q-0.1 0-0.2 0 0 15.3 0 30.5 0.3 0 0.6 0 0 2.9 0 5.8c-0.2 0.3-0.3 0.7-0.4 1.2 0 0.2 0.1 0.2 0.1 0.4-0.4 1.7-0.1 4.2-0.1 6.1q1.1 0 2.2 0 0 0.1 0 0.3-0.1 0-0.2 0c0 1.2 0.3 4.7-0.3 5.4q-0.9 0-1.7 0 0 0.8 0 1.6c0.5 0 0.9-0.5 1.2-0.8q0 0 0-0.1c-0.4 0.1-0.6 0.3-0.9 0.4q0-0.2 0.1-0.3-0.1-0.1-0.2-0.2c0.6 0 0.6-0.1 0.4-0.4q0.3 0.2 0.6 0.4c0-0.3 0-0.4 0.1-0.6q0.1 0 0.1 0c0.3 0 0.5 0.1 0.6 0.1 0.1 0.2 0.1 0.4 0 0.6-0.2 0.2-0.8 0.4-1.1 0.6q-0.2 0.2-0.5 0.5-0.2 0-0.4 0 0 11.7 0 23.3 0.2 0.1 0.5 0.2c0 0.5-0.2 2.8 0 3.1 0.6 0.2 1.7-0.1 1.8-0.4q0-0.1 0-0.1c-0.1-0.3-0.3-0.3-0.6-0.5 0.5 0 0.7 0.3 1.1 0.4 0.5-0.1 0.7-0.4 0.5-0.9-0.4-0.3-0.7-0.2-1.3-0.3-0.2-0.2-0.1-0.4 0-0.5 0.3-0.1 0.8-0.1 1.2-0.3q0 0-0.1 0c-0.1-0.1-0.2-0.1-0.3-0.3 0-0.3 0.9-0.6 1.2-0.5 0.3 0 0.6 0.2 0.8 0.3 0.1 0.2 0.1 0.3 0 0.5 0.5 0 0.7 0.2 1 0.4q0 0.2-0.1 0.3c-1.2 0.3-0.9 1.5 0.1 1.1 0 0.4 0 0.5 0.2 0.7 0.3 0.1 0.5 0.1 0.8 0q0.1-0.1 0.3-0.2c0-0.1 0-0.3-0.1-0.4 0.3 0.1 0.4 0.1 0.7 0 0.2-0.2 0.4-0.4 0.3-0.8-0.3-0.2-0.7-0.3-0.9-0.5 0.2-0.4 0.6-0.3 1-0.6-0.2-0.1-0.2-0.2-0.3-0.4 0.3-0.2 0.9-0.6 1.1-0.3q0.4 0.1 0.8 0.3c0 0.2-0.1 0.3-0.2 0.4q0 0 0 0c0.5 0.1 0.8 0.2 1 0.4q0 0.2 0 0.4c-0.4 0-0.7 0-0.9 0.2-0.2 0.1-0.3 0.5-0.1 0.7q0.2 0.3 0.9 0.3c-0.1 0.3 0 0.4 0.2 0.5 0.2 0.2 0.8 0.1 1-0.1 0.1-0.1 0.1-0.2 0.1-0.4 0.4 0 0.5-0.1 0.8-0.2 0.1-0.3 0.1-0.5 0-0.8-0.2-0.1-0.7-0.2-0.8-0.4q0 0 0-0.1c0.1-0.4 0.6-0.3 0.9-0.5-0.1-0.1-0.2-0.2-0.1-0.4 0.1-0.3 0.8-0.6 1-0.4q0.3 0.1 0.6 0.3c0.2 0.3 0 0.4-0.1 0.5q0.9 0 1.1 0.5c-0.2 0.3-0.7 0.2-0.9 0.5-0.5 0.6 0.3 0.9 0.8 1 0 0.2 0.1 0.3 0.2 0.5q0.4 0.1 0.8 0c0.2-0.1 0.2-0.2 0.2-0.5 0.3 0.1 0.6 0 0.8-0.2 0.1-0.2 0.2-0.6 0-0.8-0.2-0.2-0.5-0.2-0.8-0.2q-0.1-0.2-0.1-0.3c0.3-0.4 0.8-0.3 1.2-0.5q-0.1-0.1-0.2-0.2 0-0.1 0.1-0.2c0.1-0.2 0.4-0.4 0.7-0.4q0 2.3 0 4.7c0.3 0.1 0.7 0.4 0.7 0.7-0.2 0-0.1 0-0.1 0.2-0.4 0-0.3 0.2-0.5 0.3q-0.6 0-1.3 0-0.1 0.2-0.3 0.4c0 0.3 0.2 0.5 0 0.7-0.5 0.2-0.3 1.3-0.3 2q0 3.1 0 6.1c0.1 0.1 0.1 0.1 0.2 0.3-0.2 0.1-0.2 1.1-0.2 1.5-0.3 0-0.3 0-0.4 0.2q0.1 0.3 0.3 0.6-0.2 0-0.3 0.1 0 5.2 0 10.5 0.1 0.1 0.3 0.1-0.1 0.5-0.1 0.9c0.3 0.4 0.4 0.3 0.4 1 1.4-0.5 4.1-1.2 3.9-2.9-0.2 0-0.3 0-0.4-0.1q0-0.2 0-0.3c0.1-0.2 0.3-0.1 0.4-0.3q-0.1 0-0.1 0-0.6-0.2-1.1-0.3c-0.1-0.2-0.1-0.2-0.1-0.4 0.2-0.2 0.8-0.3 1.1-0.4 0-0.6 0.2-0.5 0.3-0.8 0.3-0.6-0.7-1.7-0.6-2.2q0.5-0.8 1-1.5 0.1 0 0.1 0 0.4 0.8 0.8 1.5-0.3 0.7-0.5 1.4c-0.1 0.6 0.3 1 0.3 1.6 0.3 0.1 0.8 0.3 1 0.5q0 0.1 0 0.2c-0.2 0.4-1 0.2-1.2 0.5 0.2 0.1 0.3 0.1 0.3 0.2q0 0.1 0 0.3c-0.7 0.3 0.1 1.7 0.6 1.8 3.6 0.9 7.3 3.9 7.4 7.7q0.4 0 0.8 0c0.3-1.5 2-1.6 2.2 0q0.3 0 0.6 0 0 0.5 0 0.9c-0.8 0-0.9 0.8-0.5 1.2 0.2 0.1 0.3 0.1 0.6 0.1 0.7-0.2 0.5-0.9 0.9-1.3q0 0 0.1 0 0.1 0.2 0.3 0.4c0 0.3-0.1 0.5 0 0.7 0.4 0.1 0.7 0.2 1.1 0.1 0.5-0.5 0.1-1-0.4-1.2q0-0.4 0-0.8 0.2 0 0.5 0c0-0.6 0.3-1.1 1-1.2q0 2.2 0 4.5 0 0 0 0 0.5 0.1 0.7 0.4 0 0.2 0 0.4c-0.3 0.4-1.2 0.3-1.6 0.7 0.1 0.3 0.3 0.5 0.2 0.7q0 0-0.1 0.1-0.1 0-0.3 0 0 0.1-0.1 0.2-0.1 0-0.3 0c0 0.3 0.1 0.4 0.2 0.6q0 6.3 0 12.5 0 1.1 0 2.1 0 0.2 0.1 0.4-0.3 0.3-0.6 0.5c-0.1 0.6 0.3 1.4-0.4 1.7q-0.2 0-0.4-0.1 0 0.1 0 0.1-0.1 1.8-0.1 3.5 0 4.2 0 8.3c0.1 0.2 0.3 0.3 0.3 0.7 0.3 0 0.4 0 0.6 0.1q0 0.3 0 0.6 0.3 0.2 0.6 0.3 0 0.6 0 1.3-0.1 0.2-0.3 0.4c-0.1 0.3 0.1 0.3 0.2 0.4q0 0.6 0 1.2c0.8 0 2-0.1 2.4 0.2q0 0.1 0 0.1-0.1 0-0.1 0-0.1 0-0.2 0.1 0 0.1 0 0.2c-0.6 0.1-2 0.8-1.5 1.6 0.1 0.3 0.3 0.4 0.1 0.9-0.2 0.7-0.9 1.1-1.5 1.5 0.1 0.2 0.1 0.5 0.1 0.9q10.8 0 21.6 0 0 0.9 0 1.8 3.1 0 6.2 0 0 0.9 0 1.8 3.2 0 6.3 0zm-122.8-25.7c-0.4 0-0.5-0.1-0.8-0.2-0.1-0.6-0.2-1.2-0.3-1.5 0.1-0.1 0.2-0.1 0.2-0.4l-0.4-0.5h0.7l-0.6-1 0.4-1.5c0.1-0.9 0-2-0.2-2.8-0.8-2.4-2.2-3.5-4-5.1-2.3 1.1-6 4.2-4.7 7.5 0.3 0.7 0.7 1.2 1.2 1.7l-0.4 1.2c0.2 0 0.4 0 0.4 0.2-0.3 0.1-0.2 1.5-0.4 2h-1c0 2.6-0.1 5.4-0.1 8.3v3.7c0.1 0.2 0.3 0.4 0.3 0.7 0.4 0 0.5 0 0.7 0.2v0.5h1.1v-0.7h0.7c0-0.9 0.6-0.9 1.1-1.3 0.5 0.1 0.9 0.4 1.2 0.7 0 0.2 0 0.4-0.1 0.6l0.7 0.1v0.7h3.5c0-0.4 0-0.6 0.2-0.8h0.6c-0.2-0.3 0.1-0.3 0.1-0.7v-3.1c-1.4-0.3-2.9-1.4-3.6-2.2 0-0.2 0-0.2 0.1-0.3h1l0.8-0.1 0.7 0.2c0.3-0.1 0.6-0.2 1.1-0.3 0-2 0.2-4.5-0.2-5.8zm12.4-32.4c0-3.7 0-8.1-0.1-11.3-0.1 0-0.1 0-0.3 0 0-0.2 0-0.2-0.1-0.3-0.3 0-0.4 0.1-0.6 0 0-0.4-0.1-0.7 0.1-1.1l-0.4-0.3c0.1-0.1 0.1-0.1 0.2-0.1l-0.2-0.7c0.4-0.1 0.6-0.3 0.7-0.5 0.7-0.9-0.6-1.3-1-1.8 1-0.6 1.4-1.8 0.1-2.5-0.7 0.3-1.5 1-1.2 2 0.1 0.3 0.4 0.3 0.4 0.6-0.6 0.3-1.2 1.1-0.6 1.9l0.6 0.4-0.2 0.6h0.3c-0.2 0.3-0.3 1-0.2 1.5-0.2 0-0.2 0-0.5 0-0.1 0.3-0.2 0.8-0.3 1v10.6c0.2 0.6 0.3 1.3 0.3 2.2h1.8c0-0.4-0.1-0.8 0-1 0.5-0.1 0.4-0.6 0.4-1h0.5c0.1-0.2 0.1-0.2 0.3-0.2zm5.3 0l-0.1-11.4-0.2 0.1-0.2-0.3c-0.3 0-0.5 0.1-0.6 0-0.2-0.4-0.1-0.8 0-1.2-0.1 0-0.2-0.1-0.3-0.2l0.2-0.1c0-0.1-0.3-0.6-0.1-0.7 1.7-1.1 0.4-1.5-0.5-2.3 1.2-0.7 1.3-1.7 0.2-2.5-0.7 0.2-1.7 1.2-1.2 2.2 0.1 0.1 0.3 0.2 0.4 0.4l-0.7 0.5c-0.4 0.6-0.1 1.6 0.7 1.7l-0.2 0.7h0.3c-0.3 0.4-0.2 0.9-0.2 1.5-0.2 0-0.3 0-0.6 0-0.5 1.9-0.3 4.9-0.3 7.3 0 1.5-0.1 3.2 0.1 4.5h0.5v0.9l0.4 0.1v1h1.1v-1l0.4-0.2v-0.8h0.6c0-0.2 0.1-0.2 0.3-0.2zm42.4-3.1v-5.8c0-1 0.2-2.8-0.9-2.7 0-0.6 0-1-0.2-1.5h0.3l-0.2-0.7c0.7-0.1 1.1-1.1 0.7-1.7l-0.7-0.6c0.8-1.2 0.3-1.7-0.7-2.5-0.4 0.1-0.5 0.3-0.6 0.5-0.8 1.1 0 1.4 0.6 2l-0.1 0.2c-1.1 0.3-1.5 1.8-0.2 2.1l-0.2 0.7 0.2 0.1v0.1l-0.3 0.2c0.1 0.3 0.1 0.8-0.1 1.2-0.2-0.1-0.4-0.1-0.6 0 0 0.1 0 0.2-0.1 0.2h-0.3c0 3.1 0 7.6 0 11.3 0.2 0 0.2 0 0.3 0.2h0.5v0.8l0.4 0.2v1h1.2c0-0.3-0.1-0.8 0.1-1l0.3-0.2v-0.8h0.4c0.2-0.9 0.2-2.2 0.2-3.3zm4.9-8.5c-0.3 0-0.3 0-0.6 0 0.1-0.6 0.1-1.1-0.2-1.5h0.4l-0.3-0.7c0.6-0.3 1.3-1 0.7-1.8l-0.7-0.4c0.1-0.2 0.3-0.3 0.4-0.5 0.5-1-0.4-1.8-1.2-2.1-1.5 0.9-0.5 1.7 0.2 2.5-0.3 0.6-1.6 0.7-1.1 1.7 0.2 0.3 0.4 0.5 0.8 0.6l-0.3 0.7c0.2 0 0.2 0 0.3 0.1l-0.4 0.3c0.2 0.3 0 0.8-0.1 1.2-0.2-0.1-0.3-0.1-0.5 0l-0.1 0.2h-0.3c0 3.2 0 7.6 0 11.3 0.2 0 0.2 0 0.3 0.2h0.5c0 0.2-0.1 0.7 0.1 0.8l0.3 0.2v0.9h1.8c0-0.8 0-1.5 0.3-2.1v-7.3c0-1.5 0.2-3.3-0.3-4.3zm19.3 51.9c0-2.9-0.1-5.7-0.1-8.3-0.3 0-0.8 0.1-0.9 0-0.5-0.5 0-1.5-0.6-2.1q0 0 0.1-0.1 0.2 0 0.5 0-0.3-0.6-0.5-1.2c0.5-0.3 0.7-0.8 1-1.3 1.2-2.5-0.6-5.1-2.2-6.4-0.3-0.3-2-1.5-2.3-1.4-0.6 0.2-1 0.7-1.4 1.1-1.5 1.5-2.3 2.8-2.8 5.2-0.1 0.7 0 1.6 0.2 2.2q0.1 0.4 0.2 0.8-0.3 0.5-0.6 1 0.4 0 0.7 0 0 0.1 0 0.2c-0.2 0.2-0.4 0.3-0.4 0.6 0.2 0 0.1 0 0.2 0.1 0 0.3-0.1 0.2-0.2 0.4q-0.1 0.6-0.1 1.1c-0.2 0.2-0.6 0.1-0.8 0.2-0.2 0.3 0 1.1 0 1.3-0.2 1.3-0.2 3.1-0.2 4.5 0.5 0.1 0.8 0.2 1.1 0.3q0.4-0.1 0.7-0.2c0.3 0 1.8 0.1 1.9 0.1q0 0.2 0 0.3-0.5 0.5-1 0.9c-0.8 0.5-1.7 1-2.6 1.3 0 0.4 0.1 3.1-0.1 3.2 0.2 0.2 0.4 0.3 0.2 0.6q0 0 0 0c0.5 0 0.6 0 0.8 0.2q0 0.3 0 0.6 1.8 0 3.5 0 0.1-0.4 0.1-0.8 0.3 0 0.6 0 0 0 0 0c-0.2-0.3-0.1-0.6 0.1-0.8 0.3-0.1 0.8-0.6 1-0.5 0.6 0.2 1.1 0.6 1.1 1.3q0.3 0 0.7 0 0 0.4 0 0.7 0.5 0 1.1 0c0-0.3 0-0.5 0.2-0.7q0.3 0 0.5 0c0-0.3 0.2-0.5 0.3-0.7q0-1.8 0-3.7z"/><path class="a" d="m866.5 348.8l11.4-13.5c7.2 5.8 15.3 8.8 23.8 8.8 5.4 0 8.4-1.9 8.4-5v-0.2c0-3.1-2.5-4.8-12.4-7.1-15.6-3.5-27.7-7.9-27.7-23v-0.2c0-13.7 10.8-23.5 28.4-23.5 12.5 0 22.3 3.3 30.2 9.7l-10.2 14.4c-6.7-4.7-14-7.3-20.5-7.3-4.9 0-7.3 2.1-7.3 4.8v0.2c0 3.3 2.5 4.8 12.6 7.1 16.9 3.7 27.4 9.1 27.4 22.9v0.2c0 15-11.8 23.9-29.7 23.9-13 0-25.3-4.1-34.4-12.2z"/><path fill-rule="evenodd" class="a" d="m935.6 323.2v-0.2c0-21.1 16.9-38.2 39.6-38.2 22.7 0 39.4 16.9 39.4 38v0.2c0 21.1-17 38.2-39.6 38.2-22.7 0-39.4-16.9-39.4-38zm58.3 0v-0.2c0-10.6-7.7-19.8-18.9-19.8-11.1 0-18.6 9-18.6 19.6v0.2c0 10.6 7.7 19.8 18.8 19.8 11.2 0 18.7-9 18.7-19.6z"/><path class="a" d="m1037.5 332.3l-27.9-46h23.1l15.1 26.8 15.2-26.8h22.8l-27.9 45.6v27.8h-20.4z"/><path class="a" d="m1091.9 286.3h59v17.3h-38.9v11.1h35.2v16.1h-35.2v11.6h39.4v17.3h-59.5z"/><path fill-rule="evenodd" class="a" d="m1161.1 286.3h34.7c11.3 0 19 3 24 8 4.3 4.2 6.5 9.8 6.5 17.1v0.2c0 11.2-6 18.7-15.1 22.5l17.5 25.6h-23.5l-14.8-22.2h-8.9v22.2h-20.4zm33.8 35.3c6.9 0 10.9-3.4 10.9-8.7v-0.2c0-5.8-4.2-8.7-11-8.7h-13.3v17.6z"/><path class="a" d="m818.1 365.9v7.6h-22v-9c4.1 1.4 8.5 2.2 13.1 2.2q4.9-0.1 8.9-0.8z"/><path class="a" d="m560.1 304.4h-22.7v-18.4h66.4v18.4h-22.7v57.3h-21z"/><path class="a" d="m611.4 328.5v-42.5h21.3v42c0 11 5.5 16.1 13.9 16.1 8.4 0 14-4.9 14-15.5v-42.6h21.3v41.9c0 24.5-14 35.2-35.5 35.2-21.5 0-35-11-35-34.6z"/><path class="a" d="m693 285h19.6l31.1 40v-40h20.8v75.7h-18.4l-32.3-41.5v41.5h-20.8z"/><path class="a" d="m770.2 324v-0.2c0-22 17-39.3 39.9-39.3 15.5 0 25.4 6.4 32.1 15.7l-15.8 12.3c-4.3-5.4-9.3-8.9-16.5-8.9-10.6 0-18.1 9-18.1 20v0.2c0 11.4 7.5 20.2 18.1 20.2 7.9 0 12.5-3.6 17.1-9.2l15.8 11.3c-7.2 9.8-16.8 17.1-33.6 17.1-21.6 0-39-16.6-39-39.2z"/><path class="a" d="m554.7 386.7h2.9v3.3h-2.9zm0.4 6.7h2.1v28.3h-2.1z"/><path class="a" d="m564.1 420.6l14.9-17.8h-14.4v-1.7h17.3v1.1l-14.9 17.7h14.9v1.8h-17.8z"/><path class="a" d="m587.9 401.1h2v3.7q0.5-0.9 1.1-1.6 0.6-0.8 1.4-1.3 0.9-0.6 1.9-1 1.1-0.3 2.5-0.3 1.3 0 2.4 0.3 1.1 0.4 2 1 0.8 0.6 1.5 1.4 0.6 0.8 1 1.7 0.5-0.8 1.2-1.6 0.7-0.8 1.6-1.5 0.9-0.6 2.1-1 1.1-0.3 2.6-0.3 1.8 0 3.3 0.6 1.5 0.6 2.5 1.7 1 1.2 1.6 2.8 0.5 1.6 0.5 3.5v12.5h-2v-12.3q0-3.3-1.6-5.2-1.6-1.8-4.5-1.8-1.3 0-2.5 0.5-1.2 0.5-2 1.4-0.9 0.9-1.5 2.3-0.5 1.4-0.5 3.1v12h-2v-12.4q0-3.2-1.6-5.1-1.6-1.8-4.4-1.8-1.4 0-2.6 0.6-1.2 0.5-2.1 1.5-0.9 1.1-1.4 2.4-0.5 1.3-0.5 2.9v11.9h-2z"/><path class="a" d="m626.5 393h2.4v2.7h-2.4zm0.2 8.1h2v20.6h-2z"/><path class="a" d="m636.5 401.1h2v5.8q0.6-1.3 1.5-2.5 1-1.2 2.1-2 1.2-0.8 2.6-1.3 1.4-0.4 2.9-0.4v2.2h-0.2q-1.7 0-3.4 0.7-1.6 0.7-2.8 2-1.3 1.3-2 3.2-0.7 1.9-0.7 4.5v8.4h-2z"/><path fill-rule="evenodd" class="a" d="m665.3 393.4h11.7q2.4 0 4.3 0.6 1.9 0.7 3 1.9 1.9 1.8 1.9 4.4v0.1q0 1.5-0.5 2.6-0.4 1.1-1.1 1.9-0.7 0.8-1.5 1.4-0.9 0.5-1.8 0.9 1.3 0.3 2.5 0.8 1.1 0.6 2 1.4 0.9 0.8 1.4 2 0.5 1.1 0.5 2.5v0.1q0 1.8-0.7 3.2-0.7 1.4-2.1 2.4-1.3 1-3.1 1.6-1.9 0.5-4.2 0.5h-12.3zm11.5 13.1q1.5 0 2.9-0.3 1.3-0.4 2.3-1.2 1-0.7 1.5-1.8 0.5-1.1 0.5-2.5v-0.1q0-2.4-1.8-3.8-1.8-1.5-5.2-1.5h-9.6v11.2zm0.9 13.4q3.7 0 5.8-1.6 2.2-1.6 2.2-4.2v-0.1q0-2.7-2.2-4.1-2.2-1.5-6.5-1.5h-9.6v11.5z"/><path class="a" d="m701.9 422.2q-1.9 0-3.4-0.6-1.6-0.6-2.6-1.8-1.1-1.1-1.7-2.7-0.5-1.5-0.5-3.4v-12.6h2v12.2q0 3.2 1.7 5.2 1.7 1.9 4.8 1.9 1.5 0 2.8-0.6 1.4-0.5 2.3-1.5 1-1 1.6-2.3 0.5-1.4 0.5-3v-11.9h2v20.6h-2v-3.8q-1.1 1.8-2.8 3.1-1.8 1.2-4.7 1.2zm-3.8-27.8h2.8v3.2h-2.8zm6.6 0h2.8v3.3h-2.8z"/><path class="a" d="m721.4 428.3q-1.1 0-2.1-0.2-0.9-0.2-2-0.7l0.7-1.8q0.8 0.5 1.6 0.6 0.8 0.2 1.9 0.2 0.9 0 1.5-0.2 0.7-0.3 1.3-0.9 0.7-0.5 1.2-1.5 0.6-0.9 1.2-2.2l-10-20.5h2.3l8.6 18.4 7.5-18.4h2.2l-9 21.3q-1.4 3.3-3 4.6-1.6 1.3-3.9 1.3z"/><path class="a" d="m750.6 422.2q-2 0-3.5-0.6-1.5-0.6-2.6-1.8-1.1-1.1-1.6-2.7-0.6-1.5-0.6-3.4v-12.6h2v12.2q0 3.2 1.7 5.2 1.7 1.9 4.9 1.9 1.5 0 2.8-0.6 1.3-0.5 2.3-1.5 0.9-1 1.5-2.3 0.5-1.4 0.5-3v-11.9h2v20.6h-2v-3.8q-1 1.8-2.8 3.1-1.8 1.2-4.6 1.2zm-3.9-27.8h2.8v3.2h-2.8zm6.6 0h2.8v3.3h-2.8z"/><path class="a" d="m767.6 392.2h1.9v22.1l12.8-13.2h2.7l-9.1 9.1 9.4 11.5h-2.6l-8.1-10.1-5.1 5.1v5h-1.9z"/><path class="a" d="m793.8 426.7l3.1-4.6q-2.3 0-4.5-0.8-2.3-0.9-3.9-2.2l1.1-1.6q1.7 1.3 3.6 2 1.9 0.7 3.8 0.7 2.1 0 3.6-1 1.4-1.1 1.4-2.9v-0.1q0-0.9-0.4-1.5-0.5-0.7-1.2-1.1-0.8-0.5-1.8-0.9-1-0.3-2-0.6-1.3-0.4-2.6-0.8-1.3-0.4-2.3-1-1-0.6-1.6-1.6-0.6-0.9-0.6-2.3 0-1.3 0.5-2.3 0.5-1.1 1.4-1.8 0.9-0.8 2.1-1.2 1.3-0.4 2.8-0.4 1.8 0 3.8 0.6 2 0.6 3.5 1.7l-1.1 1.6q-1.4-0.9-3-1.5-1.7-0.5-3.3-0.5-2.2 0-3.4 1-1.3 1-1.3 2.6 0 0.9 0.5 1.5 0.5 0.6 1.3 1.1 0.7 0.4 1.8 0.8 1 0.3 2.1 0.6 1.3 0.4 2.5 0.8 1.2 0.5 2.2 1.1 1 0.7 1.6 1.6 0.5 0.9 0.5 2.3v0.1q0 1.4-0.5 2.5-0.5 1.1-1.5 1.9-1 0.8-2.3 1.2-0.4 0.1-0.8 0.2l-2.8 5.8z"/><path fill-rule="evenodd" class="a" d="m819.1 422.2q-2.1 0-3.9-0.8-1.8-0.7-3.2-2.2-1.4-1.4-2.2-3.4-0.9-1.9-0.9-4.4 0-2.3 0.8-4.2 0.7-2 2.1-3.5 1.3-1.4 3-2.3 1.8-0.8 3.9-0.8 2.2 0 3.9 0.8 1.8 0.8 3 2.3 1.2 1.5 1.9 3.4 0.7 2 0.7 4.3v0.4q0 0.2-0.1 0.4h-17q0.1 1.9 0.8 3.4 0.7 1.5 1.8 2.6 1.1 1 2.5 1.6 1.4 0.5 3 0.5 2.4 0 4.1-0.9 1.6-1 2.9-2.3l1.4 1.2q-1.6 1.7-3.6 2.8-2 1.1-4.9 1.1zm7-11.8q-0.1-1.6-0.7-3-0.5-1.4-1.4-2.5-0.9-1.2-2.2-1.8-1.4-0.7-3.1-0.7-1.6 0-2.9 0.6-1.3 0.6-2.3 1.7-1 1.1-1.7 2.5-0.6 1.5-0.7 3.2z"/><path class="a" d="m834 392.2h2v12.7q1.1-1.8 2.8-3.1 1.8-1.2 4.7-1.2 1.9 0 3.4 0.6 1.6 0.6 2.6 1.8 1.1 1.1 1.7 2.7 0.5 1.5 0.5 3.4v12.6h-2v-12.3q0-3.1-1.7-5.1-1.7-1.9-4.8-1.9-1.6 0-2.9 0.5-1.3 0.6-2.2 1.6-1 0.9-1.6 2.3-0.5 1.4-0.5 3v11.9h-2z"/><path class="a" d="m858.9 393h2.5v2.7h-2.5zm0.2 8.1h2v20.6h-2z"/><path class="a" d="m868.9 401.1h2v5.8q0.6-1.3 1.5-2.5 1-1.2 2.2-2 1.1-0.8 2.5-1.3 1.4-0.4 3-0.4v2.2h-0.2q-1.8 0-3.4 0.7-1.7 0.7-2.9 2-1.2 1.3-2 3.2-0.7 1.9-0.7 4.5v8.4h-2z"/><path fill-rule="evenodd" class="a" d="m897.7 393.4h11.7q2.4 0 4.3 0.6 1.9 0.7 3.1 1.9 1.8 1.8 1.8 4.4v0.1q0 1.5-0.4 2.6-0.5 1.1-1.2 1.9-0.6 0.8-1.5 1.4-0.9 0.5-1.7 0.9 1.2 0.3 2.4 0.8 1.2 0.6 2 1.4 0.9 0.8 1.4 2 0.6 1.1 0.6 2.5v0.1q0 1.8-0.8 3.2-0.7 1.4-2 2.4-1.4 1-3.2 1.6-1.9 0.5-4.2 0.5h-12.3zm11.5 13.1q1.6 0 2.9-0.3 1.3-0.4 2.3-1.2 1-0.7 1.5-1.8 0.6-1.1 0.6-2.5v-0.1q0-2.4-1.9-3.8-1.8-1.5-5.2-1.5h-9.6v11.2zm1 13.4q3.6 0 5.7-1.6 2.2-1.6 2.2-4.2v-0.1q0-2.7-2.2-4.1-2.2-1.5-6.4-1.5h-9.6v11.5z"/><path fill-rule="evenodd" class="a" d="m935.2 422.2q-2 0-3.8-0.8-1.9-0.7-3.3-2.2-1.4-1.4-2.2-3.4-0.8-1.9-0.8-4.4 0-2.3 0.7-4.2 0.8-2 2.1-3.5 1.3-1.4 3.1-2.3 1.8-0.8 3.9-0.8 2.2 0 3.9 0.8 1.7 0.8 3 2.3 1.2 1.5 1.9 3.4 0.6 2 0.6 4.3v0.4q0 0.2 0 0.4h-17.1q0.1 1.9 0.9 3.4 0.7 1.5 1.8 2.6 1.1 1 2.5 1.6 1.4 0.5 2.9 0.5 2.4 0 4.1-0.9 1.7-1 3-2.3l1.4 1.2q-1.6 1.7-3.6 2.8-2 1.1-5 1.1zm7-11.8q-0.1-1.6-0.6-3-0.5-1.4-1.4-2.5-0.9-1.2-2.3-1.8-1.3-0.7-3.1-0.7-1.5 0-2.9 0.6-1.3 0.6-2.3 1.7-1 1.1-1.6 2.5-0.7 1.5-0.8 3.2z"/><path class="a" d="m950.4 392.2h2v29.5h-2z"/><path fill-rule="evenodd" class="a" d="m969 422.2q-2.1 0-3.9-0.8-1.9-0.7-3.3-2.2-1.4-1.4-2.2-3.4-0.8-1.9-0.8-4.4 0-2.3 0.8-4.2 0.7-2 2-3.5 1.4-1.4 3.1-2.3 1.8-0.8 3.9-0.8 2.2 0 3.9 0.8 1.8 0.8 3 2.3 1.2 1.5 1.9 3.4 0.7 2 0.7 4.3v0.4q0 0.2-0.1 0.4h-17.1q0.2 1.9 0.9 3.4 0.7 1.5 1.8 2.6 1.1 1 2.5 1.6 1.4 0.5 2.9 0.5 2.5 0 4.1-0.9 1.7-1 3-2.3l1.4 1.2q-1.6 1.7-3.6 2.8-2 1.1-4.9 1.1zm7-11.8q-0.2-1.6-0.7-3-0.5-1.4-1.4-2.5-0.9-1.2-2.2-1.8-1.4-0.7-3.2-0.7-1.5 0-2.8 0.6-1.4 0.6-2.4 1.7-0.9 1.1-1.6 2.5-0.6 1.5-0.8 3.2z"/><path fill-rule="evenodd" class="a" d="m992.6 422.2q-1.9 0-3.7-0.7-1.8-0.8-3.2-2.1-1.4-1.4-2.3-3.4-0.8-2-0.8-4.5v-0.1q0-2.5 0.8-4.5 0.9-2 2.3-3.4 1.4-1.4 3.2-2.2 1.8-0.7 3.7-0.7 1.5 0 2.8 0.4 1.3 0.4 2.4 1.1 1 0.7 1.8 1.6 0.9 0.8 1.5 1.8v-13.3h2v29.5h-2v-4.6q-0.7 1-1.5 1.9-0.8 1-1.9 1.7-1 0.7-2.3 1.1-1.3 0.4-2.8 0.4zm0.2-1.9q1.6 0 3.1-0.6 1.6-0.7 2.7-1.9 1.2-1.1 1.9-2.8 0.7-1.6 0.7-3.6 0-2-0.7-3.7-0.7-1.6-1.9-2.8-1.1-1.1-2.7-1.8-1.5-0.6-3.1-0.6-1.7 0-3.2 0.6-1.5 0.6-2.6 1.7-1.1 1.2-1.7 2.8-0.6 1.6-0.6 3.7v0.1q0 2 0.6 3.7 0.7 1.6 1.8 2.8 1.1 1.1 2.6 1.8 1.5 0.6 3.1 0.6z"/><path class="a" d="m1010.7 393h2.4v2.7h-2.4zm0.2 8.1h2v20.6h-2z"/><path class="a" d="m1023.2 428.3q-1.2 0-2.1-0.2-0.9-0.2-2-0.7l0.7-1.8q0.8 0.5 1.6 0.6 0.8 0.2 1.9 0.2 0.9 0 1.5-0.2 0.7-0.3 1.3-0.9 0.6-0.5 1.2-1.5 0.6-0.9 1.1-2.2l-9.9-20.5h2.3l8.6 18.4 7.5-18.4h2.2l-9 21.3q-1.4 3.3-3 4.6-1.7 1.3-3.9 1.3z"/><path fill-rule="evenodd" class="a" d="m1053.2 422.2q-2 0-3.8-0.8-1.9-0.7-3.3-2.2-1.4-1.4-2.2-3.4-0.8-1.9-0.8-4.4 0-2.3 0.8-4.2 0.7-2 2-3.5 1.3-1.4 3.1-2.3 1.8-0.8 3.9-0.8 2.2 0 3.9 0.8 1.7 0.8 3 2.3 1.2 1.5 1.9 3.4 0.6 2 0.6 4.3v0.4q0 0.2 0 0.4h-17.1q0.1 1.9 0.9 3.4 0.7 1.5 1.8 2.6 1.1 1 2.5 1.6 1.4 0.5 2.9 0.5 2.4 0 4.1-0.9 1.7-1 3-2.3l1.4 1.2q-1.6 1.7-3.6 2.8-2 1.1-5 1.1zm7-11.8q-0.1-1.6-0.6-3-0.5-1.4-1.4-2.5-0.9-1.2-2.3-1.8-1.3-0.7-3.1-0.7-1.5 0-2.9 0.6-1.3 0.6-2.3 1.7-1 1.1-1.6 2.5-0.7 1.5-0.8 3.2z"/><path fill-rule="evenodd" class="a" d="m1080.8 393.4h11.7q2.4 0 4.3 0.6 1.8 0.7 3 1.9 1.8 1.8 1.8 4.4v0.1q0 1.5-0.4 2.6-0.4 1.1-1.1 1.9-0.7 0.8-1.6 1.4-0.8 0.5-1.7 0.9 1.3 0.3 2.4 0.8 1.2 0.6 2.1 1.4 0.9 0.8 1.4 2 0.5 1.1 0.5 2.5v0.1q0 1.8-0.7 3.2-0.7 1.4-2.1 2.4-1.3 1-3.2 1.6-1.8 0.5-4.1 0.5h-12.3zm11.4 13.1q1.6 0 2.9-0.3 1.4-0.4 2.4-1.2 0.9-0.7 1.5-1.8 0.5-1.1 0.5-2.5v-0.1q0-2.4-1.8-3.8-1.8-1.5-5.3-1.5h-9.5v11.2zm0.9 13.4q3.6 0 5.8-1.6 2.1-1.6 2.1-4.2v-0.1q0-2.7-2.2-4.1-2.2-1.5-6.4-1.5h-9.6v11.5z"/><path fill-rule="evenodd" class="a" d="m1115.8 422.2q-1.4 0-2.8-0.4-1.5-0.4-2.6-1.2-1.1-0.8-1.8-2-0.7-1.3-0.7-2.9v-0.1q0-1.6 0.6-2.8 0.7-1.3 1.9-2.1 1.1-0.9 2.8-1.3 1.7-0.5 3.7-0.5 2.2 0 3.8 0.3 1.5 0.2 3 0.6v-0.9q0-3.1-1.8-4.7-1.8-1.6-5-1.6-1.9 0-3.4 0.5-1.6 0.5-3 1.2l-0.8-1.7q1.7-0.9 3.5-1.4 1.7-0.5 3.9-0.5 4.2 0 6.5 2.3 2.1 2.1 2.1 5.8v12.9h-2v-3.4q-0.5 0.7-1.2 1.4-0.8 0.7-1.8 1.3-0.9 0.5-2.2 0.9-1.2 0.3-2.7 0.3zm0.2-1.9q1.5 0 3-0.5 1.4-0.4 2.4-1.3 1.1-0.8 1.8-1.9 0.6-1.2 0.6-2.6v-2.4q-1.3-0.3-3.1-0.6-1.7-0.3-3.9-0.3-3.3 0-5.1 1.3-1.7 1.3-1.7 3.5v0.1q0 1.1 0.5 2 0.4 0.8 1.3 1.5 0.8 0.6 1.9 0.9 1.1 0.3 2.3 0.3z"/><path class="a" d="m1136.4 426.7l3.1-4.6q-2.3 0-4.5-0.8-2.3-0.9-4-2.2l1.2-1.6q1.7 1.3 3.6 2 1.8 0.7 3.8 0.7 2.1 0 3.6-1 1.4-1.1 1.4-2.9v-0.1q0-0.9-0.5-1.5-0.4-0.7-1.2-1.1-0.7-0.5-1.7-0.9-1-0.3-2.1-0.6-1.2-0.4-2.5-0.8-1.3-0.4-2.3-1-1-0.6-1.6-1.6-0.7-0.9-0.7-2.3 0-1.3 0.5-2.3 0.6-1.1 1.4-1.8 0.9-0.8 2.2-1.2 1.2-0.4 2.7-0.4 1.9 0 3.9 0.6 1.9 0.6 3.5 1.7l-1.1 1.6q-1.4-0.9-3-1.5-1.7-0.5-3.3-0.5-2.2 0-3.5 1-1.2 1-1.2 2.6 0 0.9 0.5 1.5 0.4 0.6 1.2 1.1 0.8 0.4 1.9 0.8 1 0.3 2.1 0.6 1.3 0.4 2.5 0.8 1.2 0.5 2.2 1.1 0.9 0.7 1.5 1.6 0.6 0.9 0.6 2.3v0.1q0 1.4-0.5 2.5-0.6 1.1-1.5 1.9-1 0.8-2.3 1.2-0.4 0.1-0.8 0.2l-2.9 5.8z"/><path class="a" d="m1152.9 392.2h2v22.1l12.8-13.2h2.7l-9.1 9.1 9.3 11.5h-2.5l-8.2-10.1-5 5.1v5h-2z"/><path fill-rule="evenodd" class="a" d="m1181.9 422.2q-1.5 0-2.9-0.4-1.4-0.4-2.5-1.2-1.2-0.8-1.9-2-0.7-1.3-0.7-2.9v-0.1q0-1.6 0.7-2.8 0.7-1.3 1.8-2.1 1.2-0.9 2.9-1.3 1.6-0.5 3.6-0.5 2.2 0 3.8 0.3 1.6 0.2 3.1 0.6v-0.9q0-3.1-1.8-4.7-1.8-1.6-5-1.6-1.9 0-3.5 0.5-1.6 0.5-3 1.2l-0.7-1.7q1.7-0.9 3.4-1.4 1.8-0.5 3.9-0.5 4.3 0 6.5 2.3 2.1 2.1 2.1 5.8v12.9h-1.9v-3.4q-0.5 0.7-1.3 1.4-0.7 0.7-1.7 1.3-1 0.5-2.2 0.9-1.2 0.3-2.7 0.3zm0.1-1.9q1.6 0 3-0.5 1.4-0.4 2.5-1.3 1.1-0.8 1.7-1.9 0.6-1.2 0.6-2.6v-2.4q-1.3-0.3-3-0.6-1.7-0.3-4-0.3-3.3 0-5 1.3-1.8 1.3-1.8 3.5v0.1q0 1.1 0.5 2 0.5 0.8 1.3 1.5 0.9 0.6 1.9 0.9 1.1 0.3 2.3 0.3z"/><path class="a" d="m1198.9 401.1h1.9v3.8q1.1-1.8 2.9-3.1 1.8-1.2 4.6-1.2 1.9 0 3.5 0.6 1.5 0.6 2.6 1.8 1.1 1.1 1.6 2.7 0.6 1.5 0.6 3.4v12.6h-2v-12.3q0-3.1-1.7-5.1-1.7-1.9-4.9-1.9-1.5 0-2.8 0.5-1.3 0.6-2.3 1.6-1 0.9-1.5 2.3-0.6 1.4-0.6 3v11.9h-1.9z"/><path class="a" d="m1224.3 401.1h1.9v20.6h-1.9z"/><path class="a" d="m462.2 27h10.7v398.6h-10.7z"/></svg>