<?xml version="1.0" encoding="utf-8"?>
<!-- Generator: Adobe Illustrator 25.4.1, SVG Export Plug-In . SVG Version: 6.00 Build 0)  -->
<svg version="1.2" baseProfile="tiny" id="katman_1"
	 xmlns="http://www.w3.org/2000/svg" xmlns:xlink="http://www.w3.org/1999/xlink" x="0px" y="0px" viewBox="0 0 710.1 247.7"
	 overflow="visible" xml:space="preserve">
<g>
	<g>
		<g>
			<g>
				<path fill-rule="evenodd" fill="#010000" d="M33.4,194.6h6.9c2.7,0,3.2,0.7,3.2,3.3c0,2.9-1.3,3.1-4,3.1h-6.1
					C33.4,201,33.4,194.6,33.4,194.6z M40.9,204.8c4.9,0,7.1-1.3,7.1-6.5c0-3-0.6-5.1-3.9-5.5v-0.1c2.8-0.7,3.3-2.5,3.3-5.2
					c0-5.1-2.3-6.1-6.9-6.1H28.9v23.4L40.9,204.8L40.9,204.8z M33.4,185.2h6.3c2.2,0,3.2,0.2,3.2,2.7s-0.6,3.3-3.1,3.3h-6.5
					L33.4,185.2L33.4,185.2z"/>
				<path fill-rule="evenodd" fill="#010000" d="M66.1,181.4V198c0,2.5-1.1,3.1-5.3,3.1c-4.3,0-5.2-0.7-5.2-3.1v-16.6h-4.5V198
					c0,6.6,4.2,7,9.7,7c5.7,0,9.8-0.4,9.8-7v-16.6H66.1z M59.2,176.1v2.7h-3.1v-2.7H59.2z M65.6,176.1v2.7h-3.1v-2.7H65.6z"/>
				<polygon fill-rule="evenodd" fill="#010000" points="93.7,181.4 88.5,181.4 82.9,191.4 82.8,191.4 77.2,181.4 72.1,181.4 
					80.5,195.8 80.5,204.8 85,204.8 85,195.8 				"/>
				<path fill-rule="evenodd" fill="#010000" d="M110.2,181.4V198c0,2.5-1.1,3.1-5.3,3.1c-4.3,0-5.2-0.7-5.2-3.1v-16.6h-4.5V198
					c0,6.6,4.2,7,9.7,7c5.7,0,9.8-0.4,9.8-7v-16.6H110.2z M103.3,176.1v2.7h-3.1v-2.7H103.3z M109.7,176.1v2.7h-3.1v-2.7H109.7z"/>
				<polygon fill-rule="evenodd" fill="#010000" points="123.1,181.4 118.6,181.4 118.6,204.8 123.1,204.8 123.1,194.8 125.2,194.8 
					133.8,204.8 139.5,204.8 129,192.8 138.5,181.4 133,181.4 125.2,191 123.1,191 				"/>
				<path fill-rule="evenodd" fill="#010000" d="M139.7,197.4v1.1c0,6.7,4.6,6.6,9.8,6.6c6,0,9.1-0.6,9.1-7.1c0-6-2-6.3-9.2-6.8
					c-4.6-0.3-5.1-0.4-5.1-3.2c0-2.5,0.7-2.9,5.2-2.9c3.2,0,4.2,0.1,4.2,2.6v0.7h4.5v-0.7c0-6.1-3.9-6.3-8.7-6.3
					c-5.6,0-9.7,0.2-9.7,6.6c0,6.8,4,6.6,9,6.9c3.5,0.2,5.3-0.2,5.3,3.1c0,2.7-0.6,3.5-4.6,3.5c-4.2,0-5.3-0.2-5.3-2.9v-1.1h-4.5
					V197.4z M150.3,205.2l-3.6,2.2l0.8,1.4l4.1-1.6L150.3,205.2z"/>
				<polygon fill-rule="evenodd" fill="#010000" points="165.8,185.2 177.3,185.2 177.3,181.4 161.3,181.4 161.3,204.8 177.4,204.8 
					177.4,201 165.8,201 165.8,194.8 176.7,194.8 176.7,191.1 165.8,191.1 				"/>
				<polygon fill-rule="evenodd" fill="#010000" points="200.6,181.4 196.1,181.4 196.1,191 185.2,191 185.2,181.4 180.7,181.4 
					180.7,204.8 185.2,204.8 185.2,194.8 196.1,194.8 196.1,204.8 200.6,204.8 				"/>
				<path fill-rule="evenodd" fill="#010000" d="M209.1,181.4h-4.5v23.4h4.5V181.4z M208.3,178h-3.1v2.7h3.1V178z"/>
				<path fill-rule="evenodd" fill="#010000" d="M224.3,197.1c2.2,0,3,1.4,3,3.4v4.4h4.5v-4.4c0-3.3-0.8-5-4-5.3V195
					c4-0.6,4.2-3.1,4.2-6.6c0-5.3-2-6.9-7.1-7h-12v23.4h4.5v-7.7L224.3,197.1L224.3,197.1z M217.4,193.2v-8h6.2
					c3.2,0,3.8,0.6,3.8,3.9c0,3.4-0.8,4.1-4.1,4.1H217.4z"/>
			</g>
		</g>
		<g>
			<g>
				<path fill-rule="evenodd" fill="#010000" d="M87.8,151.3h-2.3V172h2.3V151.3z M87.9,148.8h-2.4v2h2.4V148.8z"/>
				<polygon fill-rule="evenodd" fill="#010000" points="110.7,151.3 95.2,151.3 95.2,153.4 107.8,153.4 94.8,170 94.8,172 
					110.9,172 110.9,170 97.7,170 110.7,153.5 				"/>
				<polygon fill-rule="evenodd" fill="#010000" points="138.2,153.1 138.3,153.1 138.3,172 140.6,172 140.6,151.3 136.6,151.3 
					129.2,169 121.9,151.3 117.9,151.3 117.9,172 120.2,172 120.2,153.1 120.3,153.1 128.1,172 130.4,172 				"/>
				<path fill-rule="evenodd" fill="#010000" d="M151.2,151.3h-2.3V172h2.3V151.3z M151.2,148.8h-2.4v2h2.4V148.8z"/>
				<path fill-rule="evenodd" fill="#010000" d="M161.7,163.8h7.5c2.8,0,3.5,1.3,3.5,3.9v4.4h2.3v-5.5c0-2.2-1-3.6-3.3-3.7v-0.1
					c3.3-0.4,3.6-2.6,3.6-5.5c0-4.7-2-6-6.4-6h-9.5V172h2.3L161.7,163.8L161.7,163.8z M161.7,161.7v-8.3h7.2c3.7,0,4.1,1,4.1,3.6
					c0,3.4-0.4,4.5-4.1,4.6L161.7,161.7L161.7,161.7z"/>
			</g>
		</g>
		<g>
			<g>
				<path fill-rule="evenodd" fill="#010000" d="M41,225.3h7.7c3.1-0.1,3.5,1.3,3.5,4.1c0,3.2-1.2,3.5-3.8,3.5H41V225.3z
					 M49.6,234.9c3.5,0,4.9-2,4.9-5.8c0-2.6-0.4-4.5-3.2-5V224c2.2-0.7,2.6-2.2,2.6-4.4c0-3.6-0.9-5.5-4.8-5.5H38.6v20.7L49.6,234.9
					L49.6,234.9z M41,216.3h7c2.5,0,3.5,0.3,3.5,3.1c0,3.2-1,3.9-3.8,3.9H41V216.3z"/>
				<polygon fill-rule="evenodd" fill="#010000" points="63.9,216.3 74.8,216.3 74.8,214.2 61.5,214.2 61.5,234.9 74.8,234.9 
					74.8,232.8 63.9,232.8 63.9,225.2 74.3,225.2 74.3,223.3 63.9,223.3 				"/>
				<polygon fill-rule="evenodd" fill="#010000" points="84.5,214.2 82.2,214.2 82.2,234.9 95.1,234.9 95.1,232.8 84.5,232.8 				
					"/>
				<polygon fill-rule="evenodd" fill="#010000" points="103.3,216.3 114.2,216.3 114.2,214.2 100.9,214.2 100.9,234.9 114.2,234.9 
					114.2,232.8 103.3,232.8 103.3,225.2 113.8,225.2 113.8,223.3 103.3,223.3 				"/>
				<path fill-rule="evenodd" fill="#010000" d="M121.3,234.9h10.6c6.2,0,6.5-5.7,6.5-7.8v-4.9c0-7.6-4.6-8-7.1-8h-10.1L121.3,234.9
					L121.3,234.9z M123.6,232.8v-16.5h8.1c3.9,0,4.4,3.8,4.4,5v5.4c-0.1,3.7-0.6,6.1-4.7,6.1H123.6z"/>
				<path fill-rule="evenodd" fill="#010000" d="M148.4,214.2h-2.3v20.7h2.3V214.2z M148.5,211.7H146v2h2.4v-2H148.5z"/>
				<polygon fill-rule="evenodd" fill="#010000" points="172.2,214.2 169.5,214.2 163.3,223.9 157.2,214.2 154.5,214.2 162.1,226.2 
					162.1,234.9 164.4,234.9 164.4,226.2 				"/>
				<polygon fill-rule="evenodd" fill="#010000" points="179.9,216.3 190.8,216.3 190.8,214.2 177.5,214.2 177.5,234.9 190.8,234.9 
					190.8,232.8 179.9,232.8 179.9,225.2 190.3,225.2 190.3,223.3 179.9,223.3 				"/>
				<path fill-rule="evenodd" fill="#010000" d="M204.7,225.3c3.8,0.3,5.5-0.4,5.5,3.6c0,4.1-1.2,4.1-5.6,4.1c-4.4,0-5.3,0-5.2-4.5
					h-2.3c-0.4,6,2.3,6.6,7.6,6.6c5.2,0,8-0.2,8-6c0-5.6-2.5-5.5-7.4-5.7c-3.9-0.1-5.7,0.2-5.7-3.7c0-2.9,0.6-3.4,5.2-3.4
					c4.4,0,5.1,0.1,5.2,3.7h2.3c0.2-5.6-3-5.8-7.4-5.8c-5.1,0-7.6,0.5-7.6,6C197.1,225.5,200.6,225,204.7,225.3z"/>
				<path fill-rule="evenodd" fill="#010000" d="M222.1,214.2h-2.3v20.7h2.3V214.2z M222.1,211.7h-2.4v2h2.4V211.7z"/>
			</g>
		</g>
		<path fill-rule="evenodd" fill="#010000" d="M172.2,144.4c0-0.3,0-0.6,0-0.9c-1.1,0-2.2,0-3.3,0c0-0.3,0-0.6,0-1
			c-3.8,0-7.6,0-11.5,0c0-0.2,0-0.4-0.1-0.5c0.4-0.2,0.7-0.4,0.8-0.8c0.1-0.3,0-0.3-0.1-0.5c-0.2-0.4,0.5-0.8,0.8-0.8v-0.1h0.1
			c0,0,0,0,0.1,0l0,0c-0.2-0.2-0.8-0.1-1.3-0.1c0-0.2,0-0.4,0-0.6c0-0.1-0.1-0.1-0.1-0.2c0.1-0.1,0.1-0.1,0.2-0.2c0-0.2,0-0.5,0-0.7
			c-0.1,0-0.2-0.1-0.3-0.1c0-0.1,0-0.2,0-0.3c-0.1-0.1-0.1-0.1-0.3-0.1c0-0.2-0.1-0.2-0.1-0.4c0-1.5,0-2.9,0-4.4c0-0.6,0-1.3,0-1.9
			l0,0c0.1,0,0.1,0,0.2,0c0.4-0.2,0.1-0.6,0.2-0.9c0.1-0.1,0.2-0.2,0.3-0.3c0-0.1,0-0.1,0-0.2c0-0.4,0-0.7,0-1.1c0-2.2,0-4.4,0-6.7
			c0-0.1-0.1-0.2-0.1-0.3c0.1,0,0.1,0,0.2,0v-0.1c0.1,0,0.1,0,0.2,0l0,0c0.1-0.1-0.1-0.2-0.1-0.3c0.2-0.2,0.7-0.2,0.8-0.4
			c0-0.1,0-0.1,0-0.2s-0.2-0.2-0.3-0.2l0,0c0-0.8,0-1.6,0-2.3c-0.4,0-0.5,0.3-0.6,0.6c-0.1,0-0.2,0-0.3,0c0,0.1,0,0.3,0,0.4
			c0.3,0.1,0.5,0.4,0.2,0.7c-0.2,0-0.4,0-0.6,0c-0.1-0.1,0-0.3,0-0.4c-0.1-0.1-0.1-0.1-0.2-0.2l0,0c-0.2,0.2-0.1,0.6-0.5,0.7
			c-0.2,0-0.2,0-0.3,0c-0.2-0.2-0.1-0.6,0.3-0.7c0-0.2,0-0.3,0-0.5c-0.1,0-0.2,0-0.3,0c-0.1-0.8-1-0.8-1.2,0c-0.2,0-0.3,0-0.5,0
			c0-2-2-3.6-3.9-4.1c-0.3-0.1-0.7-0.8-0.3-1c0-0.1,0-0.1,0-0.2s-0.1-0.1-0.2-0.1c0.1-0.2,0.5-0.1,0.6-0.3v-0.1
			c-0.1-0.1-0.4-0.2-0.6-0.2c0-0.3-0.2-0.6-0.1-0.9c0.1-0.2,0.2-0.5,0.3-0.7c-0.1-0.3-0.3-0.5-0.4-0.8l0,0c-0.2,0.3-0.3,0.5-0.5,0.8
			c-0.1,0.3,0.4,0.8,0.3,1.2c-0.1,0.2-0.2,0.1-0.2,0.4c-0.2,0.1-0.5,0.1-0.6,0.2c0,0.1,0,0.1,0,0.2c0.2,0.1,0.4,0.1,0.6,0.2l0,0
			c0,0.1-0.1,0.1-0.2,0.2v0.1c0,0.1,0.1,0.1,0.2,0.1c0.1,0.9-1.3,1.3-2.1,1.5c0-0.4-0.1-0.3-0.2-0.5c0-0.2,0-0.3,0-0.5l-0.1-0.1
			c0-1.9,0-3.7,0-5.6h0.1c0-0.1-0.1-0.2-0.1-0.3c0.1-0.1,0-0.1,0.2-0.1c0-0.2,0-0.7,0.1-0.8c0-0.1,0-0.1-0.1-0.1c0-1.1,0-2.2,0-3.3
			c0-0.3-0.1-1,0.2-1.1c0.1-0.1,0-0.2,0-0.3c0.1-0.1,0.1-0.2,0.2-0.2c0.2,0,0.4,0,0.7,0c0.1,0,0.1-0.1,0.3-0.1c0-0.1,0-0.1,0.1-0.1
			c0-0.2-0.2-0.3-0.4-0.4c0-0.8,0-1.7,0-2.5c-0.2,0-0.4,0.1-0.4,0.2v0.1l0.1,0.1c-0.2,0.1-0.5,0.1-0.7,0.3c0,0.1,0,0.1,0,0.2
			c0.2,0,0.3,0,0.4,0.1c0.1,0.1,0.1,0.3,0,0.5c-0.1,0.1-0.3,0.1-0.4,0.1c0,0.1,0,0.2-0.1,0.3c-0.1,0-0.3,0-0.4,0
			c-0.1-0.1-0.1-0.1-0.1-0.3c-0.3,0-0.7-0.2-0.4-0.5c0.1-0.1,0.4-0.1,0.5-0.2c-0.1-0.2-0.3-0.3-0.6-0.3c0-0.1,0.1-0.1,0.1-0.3
			c-0.1,0-0.2-0.1-0.4-0.1c-0.1-0.1-0.5,0.1-0.5,0.2c-0.1,0.1,0,0.2,0.1,0.2c-0.2,0.1-0.4,0.1-0.5,0.3l0,0c0.1,0.1,0.3,0.1,0.4,0.2
			c0.1,0.2,0,0.3,0,0.4c-0.1,0.1-0.2,0.1-0.4,0.1c0,0.1,0,0.2-0.1,0.2c-0.1,0.1-0.4,0.1-0.5,0c-0.1,0-0.1-0.1-0.1-0.3
			c-0.2,0-0.4,0-0.4-0.2c-0.1-0.1,0-0.3,0-0.4c0.1-0.1,0.3-0.1,0.5-0.1c0-0.1,0-0.1,0-0.2c-0.1-0.1-0.3-0.2-0.6-0.2l0,0
			c0.1-0.1,0.1-0.1,0.1-0.2c-0.1-0.1-0.3-0.1-0.4-0.2c-0.1-0.1-0.5,0.1-0.6,0.2c0,0.1,0.1,0.1,0.1,0.2c-0.2,0.1-0.4,0.1-0.5,0.3
			c0.1,0.1,0.3,0.2,0.5,0.2c0.1,0.2,0,0.3-0.1,0.5c-0.2,0-0.2,0-0.4,0c0,0.1,0.1,0.2,0,0.2l-0.1,0.1c-0.2,0-0.3,0-0.5,0
			c-0.1-0.1-0.1-0.2-0.1-0.4c-0.5,0.2-0.7-0.4,0-0.6c0-0.1,0-0.1,0-0.2c-0.1-0.1-0.3-0.2-0.5-0.2c0-0.1,0-0.1,0-0.2
			c-0.1-0.1-0.3-0.2-0.5-0.2s-0.6,0.1-0.6,0.3c0.1,0.1,0.1,0.1,0.2,0.2l0,0c-0.2,0.1-0.5,0.1-0.6,0.1c-0.1,0.1-0.1,0.2,0,0.3
			c0.4,0,0.5,0,0.7,0.2c0.1,0.3,0,0.4-0.3,0.5c-0.2-0.1-0.3-0.2-0.6-0.2c0.1,0.1,0.3,0.1,0.3,0.3c0,0,0,0,0,0.1
			c-0.1,0.2-0.7,0.3-1,0.2c-0.1-0.1,0-1.4,0-1.6c-0.1,0-0.2-0.1-0.3-0.1c0-4.1,0-8.3,0-12.4c0.1,0,0.1,0,0.2,0
			c0.1-0.1,0.2-0.2,0.3-0.3c0.2-0.1,0.5-0.2,0.6-0.3c0.1-0.1,0.1-0.2,0-0.3c-0.1,0-0.2-0.1-0.3-0.1l0,0c-0.1,0.1-0.1,0.1-0.1,0.3
			c-0.1-0.1-0.2-0.1-0.3-0.2c0.1,0.2,0.1,0.2-0.2,0.2l0.1,0.1l-0.1,0.1c0.2-0.1,0.3-0.2,0.5-0.2l0,0c-0.1,0.1-0.4,0.4-0.6,0.4
			c0-0.3,0-0.6,0-0.9c0.3,0,0.6,0,0.9,0c0.3-0.4,0.2-2.2,0.2-2.9h0.1v-0.1c-0.4,0-0.8,0-1.2,0c0-1-0.2-2.3,0.1-3.3
			c0-0.1-0.1-0.1-0.1-0.2c0-0.2,0.1-0.5,0.2-0.6c0-1,0-2,0-3.1c-0.1,0-0.2,0-0.3,0c0-5.4,0-10.8,0-16.2h0.1c0.1-0.3,0.1-0.7,0.1-1.2
			c0.1,0,0.2,0,0.3,0c0.1-0.1,0.1-0.2,0.2-0.2c-0.4-0.4,0.4-1.2,0.7-1.3c0-0.4,0-0.9,0-1.3c-0.1-0.1-0.1-0.3-0.2-0.4h0.1
			c0-0.4,0-0.7,0-1.1c-0.1,0-0.1,0-0.2,0c0-0.1,0-0.2,0-0.3c0.1,0,0.1,0,0.2,0c0-2.8,0-5.7,0-8.5c-0.1,0-0.1,0-0.2,0
			c0-0.1,0-0.2,0-0.3c0.1,0,0.1,0,0.2,0c0-0.4,0-0.7,0-1.1c0.1-0.1,0.2-0.2,0.2-0.4c-0.1-0.1-0.3-0.1-0.4-0.2
			c-0.2-0.4,0.5-0.9,0.9-0.9v-0.1c0.1,0,0.1,0,0.2,0c0-0.1,0-0.1,0-0.2c-0.2-0.1-0.3-0.2-0.5-0.3c0-0.8,0-1.6,0-2.4
			c-0.1,0-0.3,0-0.4,0c0.1,0.2,0.1,0.4,0.2,0.6c-0.1,0-0.2,0-0.2,0c0,0.2,0.1,0.4,0.1,0.6c-0.1,0-0.2,0-0.3,0
			c0.1,0.2,0.1,0.4,0.2,0.6c-0.4,0-0.7,0-1.1,0c0-0.2,0.1-0.4,0.1-0.6c-0.1,0-0.2,0-0.3,0c0-0.2,0.1-0.3,0.1-0.5c-0.1,0-0.1,0-0.2,0
			l0,0c0-0.2,0.1-0.4,0.1-0.6c-0.2,0-0.4,0-0.5,0c0-0.1-0.1-0.1-0.1-0.2c-0.3,0-0.5,0-0.8,0c-0.2-0.2-0.3-0.4-0.5-0.6
			c-0.2,0-0.4,0-0.6,0c0-0.9,0-1.8,0-2.7c0-0.5,0-1.1,0.1-1.5c0-0.2-0.2-0.8-0.1-0.9c0-0.1,0,0,0.1,0V33h0.1v-0.1h0.1v-0.1
			c-0.1,0-0.2,0-0.4,0c0-1.3,0-2.7,0-4h0.1c0-0.2-0.1-0.3-0.1-0.4c0.1-0.4,0.5-0.7,1.1-0.7c0.1-0.3-0.2-0.4-0.4-0.5
			c-0.1-0.2,0-0.5,0-0.7c0-0.6,0-1.2,0-1.8l0,0c-0.1,0.2-0.2,0.4-0.3,0.5c0,0.1,0.1,0.2,0.1,0.3c0,0.1-0.3,0.7-0.4,0.8l0,0
			c-0.2,0-0.2-0.1-0.4-0.2c0-0.3,0-0.6,0-1c-0.4,0-0.7,0-1.1,0c0-1.6-0.8-2.8-1.9-3.5c-0.4-0.2-0.7-0.4-1.1-0.6
			c-0.2-0.1-0.7-0.2-0.8-0.3c-0.2-0.2-0.2-0.5-0.3-0.8c0-0.2,0.1-0.1,0.2-0.3c-0.1-0.1-0.2-0.1-0.2-0.3c0.5-0.2,0.6-0.5,0.4-1
			c-0.1-0.1,0-0.1,0.1-0.1c0,0,0,0,0-0.1c-0.2,0-0.4-0.1-0.6-0.1c0-0.1,0.1-0.1,0.2-0.2v-0.1c-0.1-0.1-0.1-0.1-0.2-0.1
			c0-0.3,0.4-0.4,0.3-0.7c0-0.3-0.4-0.4-0.4-0.7c0.2,0,0.3,0,0.3-0.1s0-0.1,0-0.2c-0.1-0.1-0.2-0.1-0.3-0.1v-0.1
			c0.2,0,0.3-0.1,0.4-0.2c0-0.2-0.3-0.2-0.4-0.4c0-1.2,0-2.3,0-3.5c0.5-0.1,0.7-0.5,0.5-0.9c0,0-0.1,0-0.1-0.1
			c0.2,0.4,0,0.7-0.4,0.8c-0.6,0.1-0.7-0.4-0.6-0.8c-0.5,0.3-0.1,0.9,0.4,1c0,1.2,0,2.3,0,3.5c-0.1,0.2-0.3,0.2-0.4,0.4
			c0.1,0.1,0.2,0.1,0.3,0.1l0,0c0,0.3-0.3,0.1-0.4,0.5c0.1,0.1,0.1,0.1,0.3,0.1c-0.1,0.7-0.7,0.5-0.1,1.3c0,0.1-0.1,0.1-0.2,0.2
			c0,0,0,0,0,0.1c0.1,0.1,0.1,0.1,0.2,0.1V18c-0.2,0-0.4,0.1-0.6,0.1c0,0.1,0,0.1,0.1,0.2c-0.4,0.3-0.1,0.9,0.3,1v0.1
			c-0.1,0.1-0.2,0.1-0.2,0.2c0.1,0,0.1,0.1,0.2,0.1c0,1.1-1.2,1.2-2,1.7c-1.2,0.7-2.2,1.9-2.1,3.7c-0.4,0-0.7,0-1.1,0
			c0,0.5,0.1,1-0.3,1.2c-0.4,0-0.2-0.3-0.4-0.5c-0.1-0.1-0.2-0.1-0.2-0.3c0-0.1,0.1-0.2,0.1-0.3c-0.1-0.2-0.2-0.3-0.3-0.5l0,0
			c0,0.8,0,1.6,0,2.4c-0.2,0.1-0.5,0.2-0.5,0.5c0.9,0.2,1,0.3,1,1.2h0.1c0,1.3,0,2.7,0,4c-0.1,0-0.2,0-0.4,0v0.1h0.1V33h0.1v0.1h0.1
			c0,0.2-0.2,0.8-0.1,1c0.1,0.4,0.1,1,0.1,1.5c0,0.9,0,1.8,0,2.7c-0.2,0-0.4,0-0.6,0c-0.2,0.2-0.3,0.4-0.5,0.6c-0.2,0.1-0.6,0-0.8,0
			c0,0.1-0.1,0.1-0.1,0.2c-0.2,0-0.4,0-0.5,0c0,0.2,0.1,0.4,0.1,0.6c-0.1,0-0.1,0-0.2,0l0,0c0,0.2,0.1,0.3,0.1,0.5
			c-0.1,0-0.2,0-0.3,0c0,0.2,0.1,0.4,0.1,0.6c-0.4,0-0.7,0-1.1,0c0.1-0.2,0.1-0.4,0.2-0.6c-0.1,0-0.2,0-0.3,0c0-0.2,0.1-0.4,0.1-0.6
			c-0.1,0-0.2,0-0.2,0c0.1-0.2,0.1-0.4,0.2-0.6c-0.1,0-0.3,0-0.4,0c0,0.8,0,1.6,0,2.4c-0.2,0.1-0.3,0.2-0.5,0.3c0,0.1,0,0.1,0,0.2
			c0.1,0,0.2,0,0.2,0V42c0.5,0.1,0.9,0.4,0.9,0.9c-0.1,0.1-0.1,0.1-0.3,0.2c0,0-0.1,0.1-0.1,0.2c0,0.1,0.2,0.2,0.2,0.3
			c0,0.4,0,0.7,0,1.1c0.1,0,0.1,0,0.2,0c0,0.1,0,0.2,0,0.3c-0.1,0-0.1,0-0.2,0c0,2.9,0,5.7,0,8.6c0.1,0,0.1,0,0.2,0
			c0,0.1,0,0.2,0,0.3c-0.1,0-0.1,0-0.2,0c0,0.4,0,0.7,0,1.1h0.1c-0.1,0.1-0.1,0.3-0.2,0.4c0,0.4,0,0.9,0,1.3
			c0.3,0.2,1.2,0.8,0.7,1.3c0.1,0.1,0.1,0.1,0.2,0.2c0.1,0,0.2,0,0.3,0c0,0.4,0,0.9,0.1,1.2h0.1c0,5.4,0,10.8,0,16.2
			c-0.1,0-0.2,0-0.3,0c0,1,0,2,0,3.1c0.1,0.2,0.2,0.4,0.2,0.6c0,0.1-0.1,0.1-0.1,0.2c0.2,0.9,0.1,2.2,0.1,3.3c-0.4,0-0.8,0-1.2,0
			v0.1h0.1c0,0.9,0,1.8,0,2.7c0.2,0.1,0.6,0.1,1.1,0.1c0,0.3,0,0.6,0,0.9c-0.3,0-0.5-0.3-0.6-0.4c0.1-0.1,0.4,0.1,0.5,0.1l-0.1-0.1
			l0.1-0.1c-0.1,0-0.2,0-0.3,0c0-0.1,0.1-0.1,0.1-0.2c-0.1,0.1-0.2,0.1-0.3,0.2c0-0.1,0-0.2-0.1-0.3c-0.1,0-0.2,0-0.3,0
			c-0.1,0.1-0.1,0.2-0.1,0.3c0.2,0.1,0.4,0.2,0.6,0.3c0.1,0.1,0.1,0.2,0.2,0.2h0.3c0,1.2,0,2.4,0,3.6c0,2.9,0,5.8,0,8.7
			c-0.1,0-0.2,0.1-0.3,0.1c0,0.5,0,1.1,0,1.6c-0.3,0.1-0.9,0-1-0.2s0.2-0.2,0.3-0.3l0,0l0,0c-0.3,0-0.4,0.1-0.6,0.2
			c-0.1,0-0.1,0-0.2,0c-0.1-0.1-0.2-0.2-0.1-0.4c0.1-0.3,0.4-0.1,0.7-0.2c0,0,0,0,0.1,0c0-0.1,0-0.1,0-0.2c-0.2-0.1-0.4-0.2-0.7-0.2
			l0,0c0.1,0,0.1-0.1,0.2-0.1c0-0.2-0.4-0.3-0.6-0.3c-0.1,0.1-0.3,0.1-0.4,0.2s-0.1,0.1-0.1,0.2l0,0c-0.2,0.1-0.4,0.1-0.5,0.2v0.1
			c0.1,0.1,0.3,0.1,0.4,0.2c0.1,0.3-0.1,0.5-0.4,0.4c0,0.1,0,0.2-0.1,0.3c-0.1,0.1-0.3,0.1-0.5,0l-0.1-0.1c0-0.1,0-0.2,0-0.3
			c-0.1,0-0.2,0.1-0.3,0c-0.4-0.2-0.2-0.6,0.3-0.7l0,0c-0.1-0.2-0.3-0.2-0.5-0.3c0.3-0.3-0.1-0.4-0.4-0.5c-0.1,0.1-0.3,0.2-0.4,0.2
			c-0.1,0.1-0.1,0.2,0.1,0.3c-0.2,0.1-0.4,0.1-0.6,0.3c0,0.1,0,0.1,0,0.2c0.2,0,0.4,0.1,0.5,0.1c0,0.1,0.1,0.2,0.1,0.4
			c-0.1,0.1-0.2,0.2-0.5,0.2c0,0.1,0,0.2-0.1,0.2c-0.1,0.1-0.4,0.2-0.5,0c-0.1,0-0.1-0.1-0.1-0.3c-0.2,0-0.2,0-0.3,0
			c-0.1-0.1-0.2-0.3-0.1-0.5c0.1-0.1,0.2-0.2,0.4-0.2v-0.1c-0.1-0.2-0.3-0.2-0.5-0.3c0.1-0.1,0.1-0.1,0.1-0.2
			c-0.1-0.1-0.3-0.2-0.5-0.3c-0.1,0.1-0.4,0.1-0.5,0.3c0,0.1,0,0.2,0.1,0.2c-0.2,0.1-0.5,0-0.6,0.3c0.1,0.1,0.4,0.1,0.5,0.2
			c0.3,0.3,0,0.6-0.4,0.6c0,0.1,0,0.2,0,0.2c-0.1,0.1-0.3,0.1-0.5,0c-0.1-0.1-0.1-0.1-0.1-0.3c-0.1,0-0.3,0-0.4,0
			c-0.1-0.1-0.2-0.4,0-0.5c0.1-0.1,0.2,0,0.3-0.1c0.1,0,0.1-0.1,0.1-0.1c-0.1-0.2-0.3-0.2-0.6-0.3l0,0c0.1,0,0.1-0.1,0.1-0.2
			c-0.1-0.1-0.3-0.2-0.4-0.2c0,0.8,0,1.7,0,2.5c-0.1,0.1-0.2,0.2-0.4,0.3c0,0.1,0.1,0.1,0.1,0.2c0.2,0,0.1,0.1,0.3,0.1
			c0.2,0,0.4,0,0.6,0c0.2,0.1,0.2,0.3,0.2,0.5c0.3,0.2,0.2,0.7,0.2,1.2c0,1.1,0,2.1,0,3.2c0,0,0,0-0.1,0c0,0.1,0.1,0.1,0.1,0.2
			c0.1,0.2-0.2,0.4,0,0.6c0,0.1,0,0.1,0.1,0.1c0,0.1,0,0.3-0.1,0.3c0,0.1,0,0.1,0.1,0.1c0,0.6,0,1.2,0,1.8c0,1.3,0,2.5,0,3.8
			l-0.1,0.1c0,0.2,0,0.3,0,0.5c-0.2,0.2-0.2,0.1-0.2,0.5c-0.7-0.3-2.2-0.6-2.1-1.5c0.1,0,0.1,0,0.2,0c0-0.1,0-0.1,0-0.2
			c-0.1-0.1-0.1-0.1-0.2-0.1c0,0,0,0,0-0.1c0.2,0,0.4-0.1,0.6-0.1c0-0.1,0.1-0.1,0.1-0.2c-0.1-0.2-0.4-0.1-0.5-0.2s0-0.2,0-0.3
			c-0.1,0-0.1-0.1-0.2-0.1c-0.1-0.3,0.4-0.9,0.3-1.2c-0.2-0.3-0.3-0.5-0.5-0.8l0,0c-0.1,0.3-0.3,0.6-0.4,0.8
			c0.1,0.2,0.2,0.5,0.3,0.7c0.1,0.3-0.1,0.5-0.1,0.9c-0.2,0-0.3,0.1-0.5,0.1c-0.1,0.1-0.1,0.1-0.1,0.2c0.1,0.1,0.4,0.2,0.6,0.2
			c0,0,0,0,0,0.1c-0.1,0-0.1,0-0.2,0c0,0.1,0,0.1,0,0.2s0.1,0.1,0.2,0.1c0,0.8-0.4,0.8-1,1c-0.3,0.2-0.7,0.3-1,0.5
			c-1.1,0.6-2.4,1.9-2.4,3.5c-0.2,0-0.3,0-0.5,0c0-0.3-0.3-0.7-0.7-0.6c-0.3,0.1-0.4,0.4-0.4,0.6c-0.1,0-0.2,0-0.3,0
			c0,0.2,0,0.3,0,0.5c0.4,0,0.5,0.3,0.3,0.6c-0.1,0.1-0.3,0.1-0.4,0.1c-0.3-0.1-0.3-0.5-0.4-0.7l0,0c-0.2,0.2-0.1,0.3-0.2,0.6
			c-0.2,0.1-0.5,0.2-0.7,0c-0.1-0.3,0-0.5,0.3-0.6c0.1-0.1,0-0.3,0-0.4c-0.1,0-0.2,0-0.3,0c0-0.3-0.2-0.6-0.6-0.6c0,0.8,0,1.6,0,2.4
			c-0.2,0.1-0.4,0.1-0.4,0.4c0.2,0.2,0.7,0.2,0.8,0.4c0,0.1-0.1,0.2-0.1,0.3c0,0,0,0,0.1,0s0.1,0,0.2,0v0.1c0.1,0,0.1,0,0.2,0
			c0,0.2,0,0.3-0.1,0.3c0,2.2,0,4.4,0,6.6c0,0.4,0,0.7,0,1.1c0,0.1,0,0.1,0,0.2c0.1,0.1,0.2,0.2,0.3,0.3c0.1,0.3-0.1,0.7,0.2,0.9
			c0.1,0,0.1,0,0.2,0c0,0.3,0,0.6,0,0.9c0.1,0.3,0,0.8,0,1.2c0,0.8,0,1.6,0,2.3c0,0.6,0,1.2,0,1.8c0,0.1-0.1,0.2-0.1,0.4
			c-0.1,0-0.2,0-0.2,0c-0.1,0.1-0.1,0.2-0.1,0.4c-0.1,0-0.2,0.1-0.3,0.1c0,0.2,0,0.5,0,0.7c0.1,0.1,0.1,0.1,0.2,0.2
			c0,0.1-0.1,0.2-0.1,0.2c0,0.2,0,0.4,0,0.6c-0.5,0-1,0-1.3,0.1c0,0,0,0,0,0.1h0.1v0.1c0.3,0.1,1,0.4,0.8,0.8c0,0.1-0.2,0.1-0.1,0.2
			c0.1,0.5,0.4,0.9,0.8,1c0,0,0,0.3,0,0.5c-3.8,0-7.6,0-11.5,0c0,0.3,0,0.6,0,1c-1.1,0-2.2,0-3.3,0c0,0.3,0,0.6,0,0.9
			c-1.1,0-2.2,0-3.3,0c0,0.3,0,0.6,0,0.9c30.1,0,60.2,0,90.3,0c0-0.3,0-0.6,0-0.9C174.4,144.4,173.3,144.4,172.2,144.4z
			 M110.4,133.8c-0.2,0-0.4,0.1-0.6,0.1l-0.4-0.1H109h-0.5c0,0.1-0.1,0.1-0.1,0.2c0.4,0.4,1.2,1,1.9,1.2v1.7c0,0.2-0.2,0.2-0.1,0.4
			H110c-0.1,0.1-0.1,0.2-0.1,0.4H108v-0.4h-0.3c0-0.1,0.1-0.2,0-0.4c-0.2-0.1-0.4-0.3-0.6-0.4c-0.3,0.2-0.6,0.2-0.6,0.7h-0.3v0.4
			h-0.6v-0.3c-0.1-0.1-0.2-0.1-0.4-0.1c0-0.2-0.1-0.2-0.1-0.4v-2c0-1.5,0-3,0-4.4h0.5c0.1-0.2,0.1-1,0.2-1.1c0-0.1-0.1-0.1-0.2-0.1
			l0.2-0.6c-0.3-0.3-0.5-0.5-0.6-0.9c-0.7-1.8,1.3-3.4,2.5-4c0.9,0.8,1.7,1.4,2.1,2.7c0.1,0.4,0.2,1,0.1,1.5l-0.2,0.8l0.3,0.6h-0.4
			l0.2,0.3c0,0.1,0,0.1-0.1,0.2c0,0.2,0.1,0.5,0.2,0.8c0.1,0.1,0.2,0.1,0.4,0.1C110.5,131.4,110.4,132.8,110.4,133.8z M116.7,113.6
			h-0.3c0,0.3,0,0.5-0.2,0.5c-0.1,0.1,0,0.4,0,0.5h-1c0-0.4,0-0.8-0.2-1.2v-1.7v-3.9c0.1-0.1,0.1-0.4,0.2-0.5c0.2,0,0.2,0,0.3,0
			c-0.1-0.2,0-0.6,0.1-0.8h-0.2l0.1-0.3l-0.3-0.2c-0.3-0.4,0-0.8,0.3-1c0-0.1-0.2-0.2-0.2-0.3c-0.2-0.5,0.3-0.9,0.6-1.1
			c0.7,0.3,0.5,1-0.1,1.3c0.2,0.3,0.9,0.5,0.6,1c-0.1,0.1-0.2,0.2-0.4,0.3l0.1,0.4c-0.1,0-0.1,0-0.1,0.1l0.2,0.1
			c-0.1,0.2,0,0.4,0,0.6c0.1,0,0.1,0,0.3,0c0,0.1,0.1,0.1,0.1,0.1c0.1,0,0.1,0,0.2,0C116.8,109.2,116.8,111.5,116.7,113.6
			C116.7,113.5,116.7,113.5,116.7,113.6z M119.5,113.6h-0.3v0.4l-0.2,0.1v0.5h-0.6v-0.5l-0.2-0.1v-0.4H118c-0.2-0.7-0.1-1.6-0.1-2.4
			c0-1.3-0.1-2.9,0.2-3.9c0.1,0,0.2,0,0.3,0c0-0.3,0-0.5,0.1-0.8h-0.2l0.1-0.4c-0.4-0.1-0.6-0.6-0.3-0.9l0.4-0.3
			c-0.1-0.1-0.2-0.1-0.2-0.2c-0.3-0.5,0.2-1,0.6-1.1c0.6,0.4,0.5,0.9-0.1,1.3c0.5,0.5,1.1,0.7,0.2,1.3c-0.1,0,0.1,0.3,0.1,0.4H119
			c0,0.1,0.1,0.1,0.2,0.1c0,0.2-0.1,0.4,0,0.6c0.1,0.1,0.1,0,0.3,0l0.1,0.2h0.1v6C119.5,113.5,119.5,113.5,119.5,113.6z
			 M142.1,113.6h-0.2v0.4l-0.2,0.1c-0.1,0.1,0,0.4,0,0.5h-0.6v-0.5l-0.2-0.1v-0.5h-0.3c0-0.1,0-0.1-0.1-0.1c0-2,0-4.4,0-6h0.1
			l0.1-0.1c0.1,0,0.2,0,0.3,0c0.1-0.2,0.1-0.5,0-0.6l0.2-0.1l0,0l-0.1-0.1l0.1-0.3c-0.7-0.2-0.5-1,0.1-1.2l0.1-0.1
			c-0.3-0.3-0.7-0.5-0.4-1c0.1-0.1,0.1-0.2,0.3-0.3c0.6,0.4,0.8,0.7,0.4,1.3l0.4,0.3c0.3,0.3,0,0.9-0.3,0.9l0.1,0.4h-0.2
			c0.1,0.2,0.1,0.4,0.1,0.8c0.5-0.1,0.4,0.9,0.4,1.4v3.1C142.2,112.5,142.2,113.1,142.1,113.6z M145,109.6v3.9
			c-0.1,0.3-0.2,0.7-0.2,1.2h-1v-0.5l-0.2-0.1c-0.1-0.1,0-0.3,0-0.5h-0.3c0-0.1,0-0.1-0.1-0.1c0-2,0-4.3,0-6h0.1l0.1-0.1
			c0.1-0.1,0.2,0,0.3,0c0-0.2,0.1-0.5,0-0.6l0.2-0.1c0,0,0,0-0.1-0.1l0.1-0.4c-0.2-0.1-0.3-0.2-0.4-0.3c-0.3-0.5,0.4-0.6,0.6-0.9
			c-0.4-0.4-0.9-0.8-0.1-1.3c0.4,0.2,0.9,0.6,0.6,1.1c0,0.1-0.2,0.1-0.2,0.2l0.3,0.2c0.3,0.4,0,0.8-0.3,1l0.1,0.3h-0.2
			c0.2,0.2,0.2,0.5,0.1,0.8c0.1,0,0.1,0,0.3,0C145,107.9,145,108.8,145,109.6z M155,136.9c0,0.1-0.1,0.2-0.1,0.4c-0.1,0-0.2,0-0.3,0
			c-0.1,0.1-0.1,0.2-0.1,0.4c-0.2,0-0.4,0-0.6,0c0-0.1,0-0.2,0-0.4c-0.1,0-0.2,0-0.3,0c0-0.4-0.3-0.6-0.6-0.7
			c-0.1-0.1-0.4,0.2-0.6,0.2c-0.1,0.1-0.2,0.3-0.1,0.4l0,0c-0.1,0-0.2,0-0.3,0c0,0.1,0,0.3,0,0.4c-0.6,0-1.2,0-1.9,0
			c0-0.1,0-0.2,0-0.3c-0.1-0.1-0.2-0.1-0.4-0.1l0,0c0.1-0.1,0-0.2-0.1-0.3c0.1-0.1,0-1.5,0-1.7c0.5-0.2,1-0.4,1.4-0.7
			c0.2-0.2,0.4-0.3,0.6-0.5v-0.1c-0.1,0-0.9-0.1-1-0.1s-0.3,0.1-0.4,0.1c-0.2,0-0.3-0.1-0.6-0.1c0-0.8,0-1.7,0.1-2.4
			c0-0.1-0.1-0.5,0-0.7c0.1-0.1,0.3,0,0.4-0.1c0-0.2,0-0.4,0.1-0.6c0.1-0.1,0.1-0.1,0.1-0.2c0,0,0,0-0.1,0c0-0.2,0.1-0.2,0.2-0.3
			v-0.1c-0.1,0-0.2,0-0.4,0c0.1-0.2,0.2-0.4,0.3-0.6c0-0.1-0.1-0.3-0.1-0.4c-0.1-0.3-0.2-0.8-0.1-1.1c0.3-1.3,0.7-2,1.5-2.8
			c0.2-0.2,0.4-0.5,0.7-0.6c0.2-0.1,1.1,0.6,1.2,0.7c0.8,0.7,1.8,2.1,1.2,3.4c-0.1,0.3-0.3,0.5-0.5,0.7c0.1,0.2,0.2,0.4,0.2,0.7
			c-0.1,0-0.2,0-0.3,0c0,0,0,0,0,0.1c0.3,0.3,0,0.9,0.3,1.1c0.1,0.1,0.4,0,0.5,0c0,1.4,0,2.9,0,4.4C155,135.6,155,136.2,155,136.9z"
			/>
	</g>
	<g>
		<g>
			<g>
				<path fill="#010000" d="M488.8,195.4l6-7.2c3.8,3.1,8.1,4.7,12.6,4.7c2.9,0,4.5-1,4.5-2.7v-0.1c0-1.6-1.3-2.5-6.6-3.7
					c-8.3-1.9-14.7-4.2-14.7-12.3V174c0-7.2,5.7-12.5,15.1-12.5c6.6,0,11.8,1.8,16,5.2l-5.4,7.6c-3.6-2.5-7.5-3.8-10.9-3.8
					c-2.6,0-3.9,1.1-3.9,2.5v0.1c0,1.8,1.3,2.6,6.7,3.8c9,2,14.5,4.8,14.5,12.1v0.1c0,8-6.3,12.7-15.8,12.7
					C500.2,201.8,493.6,199.6,488.8,195.4z"/>
				<path fill="#010000" d="M525.5,181.8v-0.1c0-11.2,9-20.3,21.1-20.3s21,9,21,20.2v0.1c0,11.2-9,20.3-21.1,20.3
					S525.5,193,525.5,181.8z M556.5,181.8v-0.1c0-5.6-4.1-10.5-10-10.5s-9.9,4.8-9.9,10.4v0.1c0,5.6,4.1,10.5,10,10.5
					S556.5,187.4,556.5,181.8z"/>
				<path fill="#010000" d="M579.7,186.5l-14.8-24.4h12.3l8,14.2l8.1-14.2h12.1l-14.8,24.2v14.8h-10.9L579.7,186.5L579.7,186.5z"/>
				<path fill="#010000" d="M608.6,162.1H640v9.2h-20.7v5.9H638v8.5h-18.7v6.2h21v9.2h-31.7V162.1z"/>
				<path fill="#010000" d="M645.4,162.1h18.4c6,0,10.1,1.6,12.7,4.2c2.3,2.2,3.5,5.2,3.5,9.1v0.1c0,6-3.2,9.9-8,12l9.3,13.6h-12.5
					l-7.9-11.8h-0.1h-4.6v11.8h-10.8L645.4,162.1L645.4,162.1z M663.3,180.9c3.7,0,5.8-1.8,5.8-4.6v-0.1c0-3.1-2.2-4.6-5.9-4.6h-7.1
					v9.4L663.3,180.9L663.3,180.9z"/>
			</g>
			<path fill="#010000" d="M458.4,204.8c-2.5,0-4.8-0.4-7-1.1v4.8h11.7v-4C461.7,204.7,460.1,204.8,458.4,204.8z"/>
			<path fill="#010000" d="M326.1,171.7H314V162h35.3v9.8h-12.1v30.5h-11.1L326.1,171.7L326.1,171.7z"/>
			<path fill="#010000" d="M353.3,184.5V162h11.3v22.3c0,5.8,2.9,8.6,7.4,8.6s7.4-2.6,7.4-8.3V162h11.3v22.3
				c0,13-7.4,18.7-18.8,18.7S353.3,197.1,353.3,184.5z"/>
			<path fill="#010000" d="M396.4,162h10.4l16.5,21.3V162h11v40.2h-9.8l-17.2-22.1v22.1h-11V162H396.4z"/>
			<path fill="#010000" d="M437.7,182.2v-0.1c0-11.7,9-20.9,21.2-20.9c8.2,0,13.5,3.4,17.1,8.4l-8.4,6.5c-2.3-2.9-4.9-4.7-8.8-4.7
				c-5.6,0-9.6,4.8-9.6,10.6v0.1c0,6,4,10.7,9.6,10.7c4.2,0,6.7-2,9.1-4.9l8.4,6c-3.8,5.2-8.9,9.1-17.8,9.1
				C446.9,203,437.7,194.2,437.7,182.2z"/>
		</g>
		<g>
			<path fill="#010000" d="M323.2,215.5h1.5v1.7h-1.5V215.5z M323.4,219h1.1v15.1h-1.1V219z"/>
			<polygon fill="#010000" points="328.1,233.5 336.1,224.1 328.4,224.1 328.4,223.1 337.6,223.1 337.6,223.7 329.7,233.1 
				337.6,233.1 337.6,234.1 328.1,234.1 			"/>
			<path fill="#010000" d="M340.8,223.1h1.1v2c0.2-0.3,0.4-0.6,0.6-0.8c0.2-0.3,0.5-0.5,0.8-0.7s0.6-0.4,1-0.5s0.8-0.2,1.3-0.2
				s0.9,0.1,1.3,0.2c0.4,0.1,0.7,0.3,1,0.5s0.6,0.5,0.8,0.8c0.2,0.3,0.4,0.6,0.6,0.9c0.2-0.3,0.4-0.6,0.6-0.9
				c0.2-0.3,0.5-0.5,0.8-0.8c0.3-0.2,0.7-0.4,1.1-0.5s0.9-0.2,1.4-0.2c0.6,0,1.2,0.1,1.8,0.3c0.5,0.2,1,0.5,1.3,0.9
				c0.4,0.4,0.6,0.9,0.8,1.4c0.2,0.6,0.3,1.2,0.3,1.9v6.6h-1.1v-6.5c0-1.2-0.3-2.1-0.9-2.8s-1.4-1-2.4-1c-0.5,0-0.9,0.1-1.3,0.3
				s-0.8,0.4-1.1,0.8c-0.3,0.3-0.6,0.7-0.8,1.2c-0.2,0.5-0.3,1-0.3,1.6v6.4h-1.1v-6.6c0-1.1-0.3-2-0.9-2.7s-1.4-1-2.3-1
				c-0.5,0-0.9,0.1-1.4,0.3c-0.4,0.2-0.8,0.5-1.1,0.8c-0.3,0.4-0.6,0.8-0.7,1.2c-0.2,0.5-0.3,1-0.3,1.5v6.3h-1.1v-10.7H340.8z"/>
			<path fill="#010000" d="M361.3,218.8h1.3v1.4h-1.3V218.8z M361.4,223.1h1.1v11h-1.1V223.1z"/>
			<path fill="#010000" d="M366.6,223.1h1.1v3.1c0.2-0.5,0.5-0.9,0.8-1.4c0.3-0.4,0.7-0.8,1.1-1.1s0.9-0.5,1.4-0.7s1-0.2,1.6-0.2
				v1.2h-0.1c-0.6,0-1.2,0.1-1.8,0.4c-0.6,0.2-1.1,0.6-1.5,1.1s-0.8,1-1,1.7c-0.3,0.7-0.4,1.5-0.4,2.4v4.5h-1.1v-11H366.6z"/>
			<path fill="#010000" d="M381.9,219h6.2c0.9,0,1.6,0.1,2.3,0.4c0.7,0.2,1.2,0.6,1.6,1c0.6,0.6,1,1.4,1,2.4l0,0
				c0,0.5-0.1,1-0.2,1.4c-0.2,0.4-0.3,0.7-0.6,1c-0.2,0.3-0.5,0.5-0.8,0.7s-0.6,0.4-0.9,0.5c0.4,0.1,0.9,0.3,1.3,0.5
				s0.8,0.4,1.1,0.7c0.3,0.3,0.6,0.6,0.7,1c0.2,0.4,0.3,0.8,0.3,1.4l0,0c0,0.6-0.1,1.2-0.4,1.7s-0.6,0.9-1.1,1.3
				c-0.5,0.4-1,0.6-1.7,0.8s-1.4,0.3-2.2,0.3H382L381.9,219L381.9,219z M388,226c0.6,0,1.1-0.1,1.5-0.2c0.5-0.1,0.9-0.3,1.2-0.6
				c0.3-0.3,0.6-0.6,0.8-1c0.2-0.4,0.3-0.8,0.3-1.3l0,0c0-0.8-0.3-1.5-1-2c-0.6-0.5-1.6-0.8-2.8-0.8h-5v6L388,226L388,226z
				 M388.5,233.1c1.3,0,2.3-0.3,3.1-0.8s1.1-1.3,1.1-2.3l0,0c0-0.9-0.4-1.7-1.2-2.2c-0.8-0.5-1.9-0.8-3.4-0.8H383v6.1H388.5z"/>
			<path fill="#010000" d="M401.4,234.3c-0.7,0-1.3-0.1-1.9-0.3c-0.5-0.2-1-0.5-1.4-0.9s-0.7-0.9-0.9-1.4c-0.2-0.6-0.3-1.2-0.3-1.8
				v-6.7h1.1v6.5c0,1.1,0.3,2,0.9,2.7s1.5,1,2.6,1c0.5,0,1-0.1,1.5-0.3s0.9-0.5,1.2-0.8c0.3-0.3,0.6-0.8,0.8-1.2
				c0.2-0.5,0.3-1,0.3-1.6v-6.3h1.1v11h-1.1v-2c-0.4,0.6-0.9,1.2-1.5,1.6C403.2,234.1,402.4,234.3,401.4,234.3 M399.4,219.6h1.5v1.7
				h-1.5V219.6z M402.9,219.6h1.5v1.7h-1.5V219.6z"/>
			<path fill="#010000" d="M411.8,237.6c-0.4,0-0.8,0-1.1-0.1c-0.3-0.1-0.7-0.2-1.1-0.4l0.4-0.9c0.3,0.1,0.6,0.2,0.8,0.3
				c0.3,0.1,0.6,0.1,1,0.1c0.3,0,0.6,0,0.8-0.1c0.2-0.1,0.5-0.2,0.7-0.4s0.4-0.5,0.6-0.8s0.4-0.7,0.6-1.2l-5.3-10.9h1.2l4.6,9.8
				l4-9.8h1.2l-4.8,11.4c-0.5,1.1-1,2-1.6,2.4C413.2,237.4,412.5,237.6,411.8,237.6"/>
			<path fill="#010000" d="M427.2,234.3c-0.7,0-1.3-0.1-1.9-0.3c-0.5-0.2-1-0.5-1.4-0.9s-0.7-0.9-0.9-1.4c-0.2-0.6-0.3-1.2-0.3-1.8
				v-6.7h1.1v6.5c0,1.1,0.3,2,0.9,2.7s1.5,1,2.6,1c0.5,0,1-0.1,1.5-0.3s0.9-0.5,1.2-0.8c0.3-0.3,0.6-0.8,0.8-1.2
				c0.2-0.5,0.3-1,0.3-1.6v-6.3h1.1v11h-1.1v-2c-0.4,0.6-0.9,1.2-1.5,1.6C429.1,234.1,428.2,234.3,427.2,234.3 M425.2,219.6h1.5v1.7
				h-1.5V219.6z M428.7,219.6h1.5v1.7h-1.5V219.6z"/>
			<polygon fill="#010000" points="436.3,218.4 437.3,218.4 437.3,230.1 444.1,223.1 445.5,223.1 440.7,228 445.7,234.1 
				444.3,234.1 440,228.7 437.3,231.4 437.3,234.1 436.3,234.1 			"/>
			<path fill="#010000" d="M450.2,236.7l1.6-2.4c-0.8,0-1.6-0.2-2.4-0.5s-1.5-0.7-2.1-1.2l0.6-0.8c0.6,0.5,1.2,0.8,1.9,1.1
				c0.7,0.3,1.3,0.4,2,0.4s1.4-0.2,1.9-0.6c0.5-0.4,0.8-0.9,0.8-1.5l0,0c0-0.3-0.1-0.6-0.2-0.8c-0.2-0.2-0.4-0.4-0.6-0.6
				c-0.3-0.2-0.6-0.3-0.9-0.4c-0.3-0.1-0.7-0.2-1.1-0.3s-0.9-0.3-1.3-0.4c-0.5-0.1-0.9-0.3-1.2-0.5c-0.4-0.2-0.6-0.5-0.9-0.8
				c-0.2-0.3-0.3-0.7-0.3-1.2l0,0c0-0.4,0.1-0.8,0.3-1.2c0.2-0.4,0.4-0.7,0.7-1c0.3-0.3,0.7-0.5,1.1-0.6c0.4-0.2,0.9-0.2,1.5-0.2
				c0.7,0,1.3,0.1,2,0.3s1.3,0.5,1.9,0.9l-0.6,0.9c-0.5-0.3-1-0.6-1.6-0.8s-1.2-0.3-1.8-0.3c-0.8,0-1.4,0.2-1.8,0.5
				c-0.5,0.4-0.7,0.8-0.7,1.4l0,0c0,0.3,0.1,0.6,0.3,0.8c0.2,0.2,0.4,0.4,0.7,0.6c0.3,0.2,0.6,0.3,1,0.4c0.4,0.1,0.8,0.2,1.1,0.4
				c0.4,0.1,0.9,0.3,1.3,0.4c0.4,0.2,0.8,0.3,1.2,0.6c0.3,0.2,0.6,0.5,0.8,0.8c0.2,0.3,0.3,0.7,0.3,1.2l0,0c0,0.5-0.1,0.9-0.3,1.3
				c-0.2,0.4-0.5,0.7-0.8,1s-0.7,0.5-1.2,0.7c-0.1,0-0.3,0.1-0.4,0.1l-1.5,3.1L450.2,236.7z"/>
			<path fill="#010000" d="M463.6,234.3c-0.7,0-1.4-0.1-2.1-0.4c-0.7-0.3-1.2-0.7-1.7-1.2s-0.9-1.1-1.2-1.8
				c-0.3-0.7-0.4-1.5-0.4-2.3l0,0c0-0.8,0.1-1.5,0.4-2.2s0.6-1.3,1.1-1.8s1-0.9,1.6-1.2s1.3-0.5,2.1-0.5c0.8,0,1.5,0.1,2.1,0.4
				c0.6,0.3,1.1,0.7,1.6,1.2c0.4,0.5,0.8,1.1,1,1.8s0.4,1.5,0.4,2.3v0.2c0,0,0,0.1,0,0.2h-9.1c0,0.7,0.2,1.3,0.5,1.8s0.6,1,1,1.3
				c0.4,0.4,0.8,0.7,1.3,0.8c0.5,0.2,1,0.3,1.6,0.3c0.9,0,1.6-0.2,2.2-0.5s1.1-0.7,1.6-1.2l0.7,0.6c-0.6,0.6-1.2,1.1-1.9,1.5
				C465.6,234.1,464.7,234.3,463.6,234.3 M467.4,228.1c0-0.6-0.2-1.1-0.3-1.6c-0.2-0.5-0.4-1-0.8-1.4c-0.3-0.4-0.7-0.7-1.2-0.9
				s-1-0.4-1.7-0.4c-0.5,0-1.1,0.1-1.5,0.3c-0.5,0.2-0.9,0.5-1.2,0.9c-0.4,0.4-0.6,0.8-0.9,1.4c-0.2,0.5-0.4,1.1-0.4,1.7H467.4z"/>
			<path fill="#010000" d="M471.6,218.4h1.1v6.8c0.4-0.6,0.9-1.2,1.5-1.6c0.6-0.4,1.4-0.7,2.5-0.7c0.7,0,1.3,0.1,1.9,0.3
				c0.5,0.2,1,0.5,1.4,0.9s0.7,0.9,0.9,1.4c0.2,0.6,0.3,1.2,0.3,1.8v6.7h-1.1v-6.5c0-1.1-0.3-2-0.9-2.7s-1.5-1-2.6-1
				c-0.5,0-1,0.1-1.5,0.3s-0.9,0.5-1.2,0.8c-0.3,0.3-0.6,0.8-0.8,1.2c-0.2,0.5-0.3,1-0.3,1.6v6.3h-1.1L471.6,218.4L471.6,218.4z"/>
			<path fill="#010000" d="M484.8,218.8h1.3v1.4h-1.3V218.8z M484.9,223.1h1.1v11h-1.1V223.1z"/>
			<path fill="#010000" d="M490.1,223.1h1.1v3.1c0.2-0.5,0.5-0.9,0.8-1.4c0.3-0.4,0.7-0.8,1.1-1.1s0.9-0.5,1.4-0.7s1-0.2,1.6-0.2
				v1.2H496c-0.6,0-1.2,0.1-1.8,0.4c-0.6,0.2-1.1,0.6-1.5,1.1s-0.8,1-1,1.7c-0.3,0.7-0.4,1.5-0.4,2.4v4.5h-1.1v-11H490.1z"/>
			<path fill="#010000" d="M505.4,219h6.2c0.9,0,1.6,0.1,2.3,0.4c0.7,0.2,1.2,0.6,1.6,1c0.6,0.6,1,1.4,1,2.4l0,0
				c0,0.5-0.1,1-0.2,1.4c-0.2,0.4-0.3,0.7-0.6,1c-0.2,0.3-0.5,0.5-0.8,0.7s-0.6,0.4-0.9,0.5c0.4,0.1,0.9,0.3,1.3,0.5
				c0.4,0.2,0.8,0.4,1.1,0.7s0.6,0.6,0.7,1c0.2,0.4,0.3,0.8,0.3,1.4l0,0c0,0.6-0.1,1.2-0.4,1.7c-0.3,0.5-0.6,0.9-1.1,1.3
				c-0.5,0.4-1,0.6-1.7,0.8s-1.4,0.3-2.2,0.3h-6.5L505.4,219L505.4,219z M511.5,226c0.6,0,1.1-0.1,1.5-0.2c0.5-0.1,0.9-0.3,1.2-0.6
				s0.6-0.6,0.8-1s0.3-0.8,0.3-1.3l0,0c0-0.8-0.3-1.5-1-2c-0.6-0.5-1.6-0.8-2.8-0.8h-5.1v6L511.5,226L511.5,226z M512,233.1
				c1.3,0,2.3-0.3,3.1-0.8c0.8-0.6,1.1-1.3,1.1-2.3l0,0c0-0.9-0.4-1.7-1.2-2.2s-1.9-0.8-3.4-0.8h-5.1v6.1H512z"/>
			<path fill="#010000" d="M525.3,234.3c-0.7,0-1.4-0.1-2.1-0.4c-0.7-0.3-1.2-0.7-1.7-1.2s-0.9-1.1-1.2-1.8s-0.4-1.5-0.4-2.3l0,0
				c0-0.8,0.1-1.5,0.4-2.2c0.3-0.7,0.6-1.3,1.1-1.8s1-0.9,1.6-1.2s1.3-0.5,2.1-0.5s1.5,0.1,2.1,0.4c0.6,0.3,1.1,0.7,1.6,1.2
				c0.4,0.5,0.8,1.1,1,1.8s0.4,1.5,0.4,2.3v0.2c0,0,0,0.1,0,0.2h-9.1c0,0.7,0.2,1.3,0.5,1.8s0.6,1,1,1.3c0.4,0.4,0.8,0.7,1.3,0.8
				c0.5,0.2,1,0.3,1.6,0.3c0.9,0,1.6-0.2,2.2-0.5c0.6-0.3,1.1-0.7,1.6-1.2l0.7,0.6c-0.6,0.6-1.2,1.1-1.9,1.5
				C527.3,234.1,526.4,234.3,525.3,234.3 M529.1,228.1c0-0.6-0.2-1.1-0.3-1.6c-0.2-0.5-0.4-1-0.8-1.4c-0.3-0.4-0.7-0.7-1.2-0.9
				s-1-0.4-1.7-0.4c-0.5,0-1.1,0.1-1.5,0.3c-0.5,0.2-0.9,0.5-1.2,0.9c-0.4,0.4-0.6,0.8-0.9,1.4c-0.2,0.5-0.4,1.1-0.4,1.7H529.1z"/>
			<rect x="533.4" y="218.4" fill="#010000" width="1.1" height="15.7"/>
			<path fill="#010000" d="M543.3,234.3c-0.7,0-1.4-0.1-2.1-0.4c-0.7-0.3-1.2-0.7-1.7-1.2s-0.9-1.1-1.2-1.8s-0.4-1.5-0.4-2.3l0,0
				c0-0.8,0.1-1.5,0.4-2.2c0.3-0.7,0.6-1.3,1.1-1.8s1-0.9,1.6-1.2s1.3-0.5,2.1-0.5s1.5,0.1,2.1,0.4c0.6,0.3,1.1,0.7,1.6,1.2
				c0.4,0.5,0.8,1.1,1,1.8s0.4,1.5,0.4,2.3v0.2c0,0,0,0.1,0,0.2H539c0,0.7,0.2,1.3,0.5,1.8s0.6,1,1,1.3c0.4,0.4,0.8,0.7,1.3,0.8
				c0.5,0.2,1,0.3,1.6,0.3c0.9,0,1.6-0.2,2.2-0.5c0.6-0.3,1.1-0.7,1.6-1.2l0.7,0.6c-0.6,0.6-1.2,1.1-1.9,1.5
				C545.2,234.1,544.3,234.3,543.3,234.3 M547,228.1c0-0.6-0.2-1.1-0.3-1.6c-0.2-0.5-0.4-1-0.8-1.4c-0.3-0.4-0.7-0.7-1.2-0.9
				s-1-0.4-1.7-0.4c-0.5,0-1.1,0.1-1.5,0.3c-0.5,0.2-0.9,0.5-1.2,0.9c-0.4,0.4-0.6,0.8-0.9,1.4c-0.2,0.5-0.4,1.1-0.4,1.7H547z"/>
			<path fill="#010000" d="M555.8,234.3c-0.7,0-1.3-0.1-1.9-0.4c-0.6-0.3-1.2-0.6-1.7-1.1s-0.9-1.1-1.2-1.8s-0.5-1.5-0.5-2.4l0,0
				c0-0.9,0.2-1.7,0.5-2.4s0.7-1.3,1.2-1.8s1.1-0.9,1.7-1.1c0.6-0.3,1.3-0.4,1.9-0.4c0.5,0,1,0.1,1.5,0.2c0.5,0.1,0.9,0.3,1.2,0.6
				c0.4,0.2,0.7,0.5,1,0.8s0.6,0.6,0.8,1v-7.1h1.1v15.7h-1.1v-2.5c-0.2,0.4-0.5,0.7-0.8,1s-0.6,0.6-1,0.9c-0.4,0.2-0.8,0.4-1.2,0.6
				C556.9,234.3,556.4,234.3,555.8,234.3 M555.9,233.3c0.6,0,1.1-0.1,1.7-0.3c0.5-0.2,1-0.6,1.4-1s0.8-0.9,1-1.5
				c0.3-0.6,0.4-1.2,0.4-1.9l0,0c0-0.7-0.1-1.3-0.4-1.9c-0.3-0.6-0.6-1.1-1-1.5s-0.9-0.7-1.4-1c-0.5-0.2-1.1-0.3-1.7-0.3
				c-0.6,0-1.2,0.1-1.7,0.3s-1,0.5-1.4,0.9s-0.7,0.9-0.9,1.5s-0.3,1.2-0.3,2l0,0c0,0.7,0.1,1.4,0.3,2s0.5,1.1,0.9,1.5
				s0.9,0.7,1.4,0.9C554.8,233.2,555.4,233.3,555.9,233.3"/>
			<path fill="#010000" d="M565.4,218.8h1.3v1.4h-1.3V218.8z M565.6,223.1h1.1v11h-1.1V223.1z"/>
			<path fill="#010000" d="M572.1,237.6c-0.4,0-0.8,0-1.1-0.1s-0.7-0.2-1.1-0.4l0.4-0.9c0.3,0.1,0.6,0.2,0.8,0.3
				c0.3,0.1,0.6,0.1,1,0.1c0.3,0,0.6,0,0.8-0.1s0.5-0.2,0.7-0.4s0.4-0.5,0.6-0.8c0.2-0.3,0.4-0.7,0.6-1.2l-5.3-10.9h1.2l4.6,9.8
				l4-9.8h1.2l-4.8,11.4c-0.5,1.1-1,2-1.6,2.4C573.6,237.4,572.9,237.6,572.1,237.6"/>
			<path fill="#010000" d="M588,234.3c-0.7,0-1.4-0.1-2.1-0.4c-0.7-0.3-1.2-0.7-1.7-1.2s-0.9-1.1-1.2-1.8s-0.4-1.5-0.4-2.3l0,0
				c0-0.8,0.1-1.5,0.4-2.2c0.3-0.7,0.6-1.3,1.1-1.8s1-0.9,1.6-1.2s1.3-0.5,2.1-0.5s1.5,0.1,2.1,0.4c0.6,0.3,1.1,0.7,1.6,1.2
				c0.4,0.5,0.8,1.1,1,1.8s0.4,1.5,0.4,2.3v0.2c0,0,0,0.1,0,0.2h-9.1c0,0.7,0.2,1.3,0.5,1.8s0.6,1,1,1.3c0.4,0.4,0.8,0.7,1.3,0.8
				c0.5,0.2,1,0.3,1.6,0.3c0.9,0,1.6-0.2,2.2-0.5c0.6-0.3,1.1-0.7,1.6-1.2l0.7,0.6c-0.6,0.6-1.2,1.1-1.9,1.5
				C590,234.1,589.1,234.3,588,234.3 M591.8,228.1c0-0.6-0.2-1.1-0.3-1.6c-0.2-0.5-0.4-1-0.8-1.4c-0.3-0.4-0.7-0.7-1.2-0.9
				s-1-0.4-1.7-0.4c-0.5,0-1.1,0.1-1.5,0.3c-0.5,0.2-0.9,0.5-1.2,0.9c-0.4,0.4-0.6,0.8-0.9,1.4c-0.2,0.5-0.4,1.1-0.4,1.7H591.8z"/>
			<path fill="#010000" d="M602.7,219h6.2c0.9,0,1.6,0.1,2.3,0.4c0.7,0.2,1.2,0.6,1.6,1c0.6,0.6,1,1.4,1,2.4l0,0
				c0,0.5-0.1,1-0.2,1.4c-0.2,0.4-0.3,0.7-0.6,1c-0.2,0.3-0.5,0.5-0.8,0.7s-0.6,0.4-0.9,0.5c0.4,0.1,0.9,0.3,1.3,0.5
				c0.4,0.2,0.8,0.4,1.1,0.7s0.6,0.6,0.7,1c0.2,0.4,0.3,0.8,0.3,1.4l0,0c0,0.6-0.1,1.2-0.4,1.7c-0.3,0.5-0.6,0.9-1.1,1.3
				c-0.5,0.4-1,0.6-1.7,0.8s-1.4,0.3-2.2,0.3h-6.5L602.7,219L602.7,219z M608.8,226c0.6,0,1.1-0.1,1.5-0.2c0.5-0.1,0.9-0.3,1.2-0.6
				s0.6-0.6,0.8-1s0.3-0.8,0.3-1.3l0,0c0-0.8-0.3-1.5-1-2c-0.6-0.5-1.6-0.8-2.8-0.8h-5.1v6L608.8,226L608.8,226z M609.3,233.1
				c1.3,0,2.3-0.3,3.1-0.8c0.8-0.6,1.1-1.3,1.1-2.3l0,0c0-0.9-0.4-1.7-1.2-2.2s-1.9-0.8-3.4-0.8h-5.1v6.1H609.3z"/>
			<path fill="#010000" d="M621.3,234.3c-0.5,0-1-0.1-1.5-0.2c-0.5-0.1-1-0.4-1.4-0.6c-0.4-0.3-0.7-0.6-1-1.1
				c-0.3-0.4-0.4-0.9-0.4-1.5l0,0c0-0.6,0.1-1.1,0.4-1.5c0.2-0.4,0.6-0.8,1-1.1s0.9-0.5,1.5-0.7s1.2-0.2,2-0.2s1.4,0,2,0.1
				s1.1,0.2,1.6,0.3v-0.5c0-1.1-0.3-1.9-1-2.5c-0.6-0.6-1.5-0.8-2.7-0.8c-0.7,0-1.3,0.1-1.9,0.2c-0.6,0.2-1.1,0.4-1.6,0.6l-0.4-0.9
				c0.6-0.3,1.2-0.5,1.8-0.7s1.3-0.3,2.1-0.3c1.5,0,2.7,0.4,3.5,1.2c0.7,0.7,1.1,1.8,1.1,3.1v6.8h-1v-1.8c-0.2,0.3-0.4,0.5-0.7,0.8
				s-0.6,0.5-0.9,0.7c-0.3,0.2-0.7,0.4-1.2,0.5C622.3,234.3,621.8,234.3,621.3,234.3 M621.4,233.3c0.6,0,1.1-0.1,1.6-0.2
				c0.5-0.2,0.9-0.4,1.3-0.7c0.4-0.3,0.7-0.6,0.9-1.1c0.2-0.4,0.3-0.9,0.3-1.4v-1.2c-0.5-0.1-1-0.2-1.6-0.3s-1.3-0.2-2.1-0.2
				c-1.2,0-2.1,0.2-2.7,0.7c-0.6,0.5-0.9,1.1-0.9,1.9l0,0c0,0.4,0.1,0.8,0.3,1.1s0.4,0.6,0.7,0.8s0.6,0.4,1,0.5
				C620.6,233.3,621,233.3,621.4,233.3"/>
			<path fill="#010000" d="M632.2,236.7l1.6-2.4c-0.8,0-1.6-0.2-2.4-0.5c-0.8-0.3-1.5-0.7-2.1-1.2l0.6-0.8c0.6,0.5,1.2,0.8,1.9,1.1
				s1.3,0.4,2,0.4s1.4-0.2,1.9-0.6c0.5-0.4,0.8-0.9,0.8-1.5l0,0c0-0.3-0.1-0.6-0.2-0.8c-0.2-0.2-0.4-0.4-0.6-0.6
				c-0.3-0.2-0.6-0.3-0.9-0.4c-0.3-0.1-0.7-0.2-1.1-0.3c-0.4-0.1-0.9-0.3-1.3-0.4c-0.5-0.1-0.9-0.3-1.2-0.5
				c-0.4-0.2-0.6-0.5-0.9-0.8c-0.2-0.3-0.3-0.7-0.3-1.2l0,0c0-0.4,0.1-0.8,0.3-1.2s0.4-0.7,0.7-1s0.7-0.5,1.1-0.6
				c0.4-0.2,0.9-0.2,1.5-0.2c0.7,0,1.3,0.1,2,0.3s1.3,0.5,1.9,0.9l-0.6,0.9c-0.5-0.3-1-0.6-1.6-0.8s-1.2-0.3-1.8-0.3
				c-0.8,0-1.4,0.2-1.8,0.5c-0.5,0.4-0.7,0.8-0.7,1.4l0,0c0,0.3,0.1,0.6,0.3,0.8s0.4,0.4,0.7,0.6c0.3,0.2,0.6,0.3,1,0.4
				c0.4,0.1,0.8,0.2,1.1,0.4c0.4,0.1,0.9,0.3,1.3,0.4c0.4,0.2,0.8,0.3,1.2,0.6c0.3,0.2,0.6,0.5,0.8,0.8s0.3,0.7,0.3,1.2l0,0
				c0,0.5-0.1,0.9-0.3,1.3c-0.2,0.4-0.5,0.7-0.8,1s-0.7,0.5-1.2,0.7c-0.1,0-0.3,0.1-0.4,0.1l-1.5,3.1L632.2,236.7z"/>
			<polygon fill="#010000" points="641,218.4 642.1,218.4 642.1,230.1 648.9,223.1 650.3,223.1 645.5,228 650.4,234.1 649.1,234.1 
				644.7,228.7 642.1,231.4 642.1,234.1 641,234.1 			"/>
			<path fill="#010000" d="M656.4,234.3c-0.5,0-1-0.1-1.5-0.2c-0.5-0.1-1-0.4-1.4-0.6c-0.4-0.3-0.7-0.6-1-1.1
				c-0.3-0.4-0.4-0.9-0.4-1.5l0,0c0-0.6,0.1-1.1,0.4-1.5c0.2-0.4,0.6-0.8,1-1.1s0.9-0.5,1.5-0.7s1.2-0.2,2-0.2s1.4,0,2,0.1
				s1.1,0.2,1.6,0.3v-0.5c0-1.1-0.3-1.9-1-2.5c-0.6-0.6-1.5-0.8-2.7-0.8c-0.7,0-1.3,0.1-1.9,0.2c-0.6,0.2-1.1,0.4-1.6,0.6l-0.4-0.9
				c0.6-0.3,1.2-0.5,1.8-0.7s1.3-0.3,2.1-0.3c1.5,0,2.7,0.4,3.5,1.2c0.7,0.7,1.1,1.8,1.1,3.1v6.8h-1v-1.8c-0.2,0.3-0.4,0.5-0.7,0.8
				s-0.6,0.5-0.9,0.7c-0.3,0.2-0.7,0.4-1.2,0.5C657.4,234.3,656.9,234.3,656.4,234.3 M656.5,233.3c0.6,0,1.1-0.1,1.6-0.2
				c0.5-0.2,0.9-0.4,1.3-0.7c0.4-0.3,0.7-0.6,0.9-1.1c0.2-0.4,0.3-0.9,0.3-1.4v-1.2c-0.5-0.1-1-0.2-1.6-0.3s-1.3-0.2-2.1-0.2
				c-1.2,0-2.1,0.2-2.7,0.7c-0.6,0.5-0.9,1.1-0.9,1.9l0,0c0,0.4,0.1,0.8,0.3,1.1s0.4,0.6,0.7,0.8s0.6,0.4,1,0.5
				C655.7,233.3,656.1,233.3,656.5,233.3"/>
			<path fill="#010000" d="M665.4,223.1h1.1v2c0.4-0.6,0.9-1.2,1.5-1.6c0.6-0.4,1.4-0.7,2.5-0.7c0.7,0,1.3,0.1,1.9,0.3
				c0.5,0.2,1,0.5,1.4,0.9s0.7,0.9,0.9,1.4c0.2,0.6,0.3,1.2,0.3,1.8v6.7h-1.1v-6.5c0-1.1-0.3-2-0.9-2.7c-0.6-0.7-1.5-1-2.6-1
				c-0.5,0-1,0.1-1.5,0.3s-0.9,0.5-1.2,0.8s-0.6,0.8-0.8,1.2c-0.2,0.5-0.3,1-0.3,1.6v6.3h-1.1v-10.8H665.4z"/>
			<rect x="678.9" y="223.1" fill="#010000" width="1.1" height="11"/>
		</g>
	</g>
	<rect x="274" y="24.3" fill="#010000" width="5.7" height="211.8"/>
</g>
</svg>
