<svg width="41" height="43" viewBox="0 0 41 43" fill="none" xmlns="http://www.w3.org/2000/svg">
<path d="M34 18C34 30.4444 18 41.1111 18 41.1111C18 41.1111 2 30.4444 2 18C2 13.7565 3.68571 9.68687 6.68629 6.68629C9.68687 3.68571 13.7565 2 18 2C22.2435 2 26.3131 3.68571 29.3137 6.68629C32.3143 9.68687 34 13.7565 34 18Z" fill="white" stroke="#0AC2A2" stroke-width="3" stroke-linecap="round" stroke-linejoin="round"/>
<path d="M16 18.9997L16.6667 17.6663H15.3334L16 16.333" stroke="#0AC2A2" stroke-width="1.5" stroke-linecap="round" stroke-linejoin="round"/>
<path d="M16 22.3333V24.3333C16 24.5101 16.0702 24.6797 16.1953 24.8047C16.3203 24.9298 16.4899 25 16.6667 25H22C22.1768 25 22.3464 24.9298 22.4714 24.8047C22.5964 24.6797 22.6667 24.5101 22.6667 24.3333V17" stroke="#0AC2A2" stroke-width="1.5" stroke-linecap="round" stroke-linejoin="round"/>
<path d="M19.3333 21.6667V13.6667C19.3333 13.4899 19.2631 13.3203 19.138 13.1953C19.013 13.0702 18.8434 13 18.6666 13H13.3333C13.1565 13 12.9869 13.0702 12.8619 13.1953C12.7369 13.3203 12.6666 13.4899 12.6666 13.6667V21.6667C12.6666 21.8435 12.7369 22.013 12.8619 22.1381C12.9869 22.2631 13.1565 22.3333 13.3333 22.3333H18.6666C18.8434 22.3333 19.013 22.2631 19.138 22.1381C19.2631 22.013 19.3333 21.8435 19.3333 21.6667ZM23.3333 14.3333H22V16.3333H23.3333V14.3333Z" stroke="#0AC2A2" stroke-width="1.5" stroke-linecap="round" stroke-linejoin="round"/>
<rect x="25" y="3" width="16" height="10" rx="2" fill="#0C0A3E"/>
<path d="M30.0039 11H28.789L28.7968 10.2227H30.0039C30.3554 10.2227 30.6497 10.1458 30.8867 9.99219C31.1263 9.83854 31.3059 9.61849 31.4257 9.33203C31.5481 9.04557 31.6093 8.70443 31.6093 8.30859V8C31.6093 7.69271 31.5742 7.42057 31.5039 7.18359C31.4362 6.94661 31.3346 6.7474 31.1992 6.58594C31.0664 6.42448 30.9023 6.30208 30.707 6.21875C30.5143 6.13542 30.2916 6.09375 30.039 6.09375H28.7656V5.3125H30.039C30.4166 5.3125 30.7617 5.3763 31.0742 5.50391C31.3867 5.62891 31.6562 5.8099 31.8828 6.04688C32.1119 6.28385 32.2877 6.56771 32.4101 6.89844C32.5325 7.22917 32.5937 7.59896 32.5937 8.00781V8.30859C32.5937 8.71745 32.5325 9.08724 32.4101 9.41797C32.2877 9.7487 32.1119 10.0326 31.8828 10.2695C31.6536 10.5039 31.3802 10.6849 31.0625 10.8125C30.7474 10.9375 30.3945 11 30.0039 11ZM29.332 5.3125V11H28.3515V5.3125H29.332ZM36.9375 9.14844H37.914C37.8828 9.52083 37.7786 9.85286 37.6015 10.1445C37.4244 10.4336 37.1757 10.6615 36.8554 10.8281C36.5351 10.9948 36.1458 11.0781 35.6875 11.0781C35.3359 11.0781 35.0195 11.0156 34.7382 10.8906C34.457 10.763 34.2161 10.5833 34.0156 10.3516C33.8151 10.1172 33.6614 9.83464 33.5546 9.50391C33.4505 9.17318 33.3984 8.80339 33.3984 8.39453V7.92188C33.3984 7.51302 33.4518 7.14323 33.5586 6.8125C33.6679 6.48177 33.8242 6.19922 34.0273 5.96484C34.2304 5.72786 34.4739 5.54688 34.7578 5.42188C35.0442 5.29688 35.3658 5.23438 35.7226 5.23438C36.1757 5.23438 36.5586 5.31771 36.8711 5.48438C37.1836 5.65104 37.4257 5.88151 37.5976 6.17578C37.7721 6.47005 37.8789 6.80729 37.9179 7.1875H36.9414C36.9153 6.94271 36.858 6.73307 36.7695 6.55859C36.6836 6.38411 36.5559 6.2513 36.3867 6.16016C36.2174 6.06641 35.9961 6.01953 35.7226 6.01953C35.4987 6.01953 35.3033 6.0612 35.1367 6.14453C34.97 6.22786 34.8307 6.35026 34.7187 6.51172C34.6067 6.67318 34.5221 6.8724 34.4648 7.10938C34.4101 7.34375 34.3828 7.61198 34.3828 7.91406V8.39453C34.3828 8.68099 34.4075 8.94141 34.457 9.17578C34.5091 9.40755 34.5872 9.60677 34.6914 9.77344C34.7981 9.9401 34.9336 10.069 35.0976 10.1602C35.2617 10.2513 35.4583 10.2969 35.6875 10.2969C35.9661 10.2969 36.1914 10.2526 36.3632 10.1641C36.5377 10.0755 36.6692 9.94661 36.7578 9.77734C36.8489 9.60547 36.9088 9.39583 36.9375 9.14844Z" fill="white"/>
</svg>
