<?xml version="1.0" encoding="utf-8"?>
<svg id="master-artboard" viewBox="0 0 1400 980" version="1.1" xmlns="http://www.w3.org/2000/svg" x="0px" y="0px" enable-background="new 0 0 1400 980" width="1400px" height="980px"><rect id="ee-background" x="0" y="0" width="1400" height="980" style="fill: white; fill-opacity: 0; pointer-events: none;"/>
<path fill="#57919B" d="M554,102.9c-67.8,0-122.7,55-122.7,122.7c0,37.7,17,71.5,43.8,94c0,0,67.4,63.2,78.9,141.4&#10;&#9;&#9;&#9;c11.6-78.2,78.9-141.3,78.9-141.4c26.8-22.5,43.8-56.3,43.8-94C676.7,157.8,621.7,102.9,554,102.9z" transform="matrix(1.9288702011108396, 0, 0, 1.9288702011108396, -379.63469393783976, 64.53296336204053)"/><g transform="matrix(1.9288702011108396, 0, 0, 1.9288702011108396, -379.63469393783976, 64.53296336204053)">
				<path fill="#AE302C" d="M664.7,213.6c0-67.8-55-122.7-122.7-122.7s-122.7,55-122.7,122.7c0,37.7,17,71.5,43.8,94&#10;&#9;&#9;&#9;&#9;&#9;c0,0,67.4,63.2,78.9,141.4c11.6-78.2,78.9-141.3,78.9-141.4C647.7,285.1,664.7,251.4,664.7,213.6z"/>
				<path fill="#EF4638" d="M541.9,429.7c-18.3-70.2-75.7-124.3-76.3-124.9l-0.1-0.1c-27-22.7-42.5-55.9-42.5-91&#10;&#9;&#9;&#9;&#9;&#9;c0-65.5,53.3-118.9,118.9-118.9s118.9,53.3,118.9,118.9c0,35.2-15.5,68.4-42.5,91l-0.2,0.1C615.6,307.2,560,360.2,541.9,429.7z"/>
			</g><path d="M 644.099998 214.300003 A 102.099998 102.099998 0 0 1 542 316.400002 A 102.099998 102.099998 0 0 1 439.900002 214.300003 A 102.099998 102.099998 0 0 1 542 112.200005 A 102.099998 102.099998 0 0 1 644.099998 214.300003 Z" fill="#AE302C" transform="matrix(1.9288702011108396, 0, 0, 1.9288702011108396, -379.63469393783976, 64.53296336204053)"/><path d="M 639.900002 214.300003 A 97.900002 97.900002 0 0 1 542 312.200005 A 97.900002 97.900002 0 0 1 444.099998 214.300003 A 97.900002 97.900002 0 0 1 542 116.400002 A 97.900002 97.900002 0 0 1 639.900002 214.300003 Z" fill="#FFFFFF" transform="matrix(1.9288702011108396, 0, 0, 1.9288702011108396, -379.63469393783976, 64.53296336204053)"/>
<path d="M 473.6454772949219 184.87001037597656 L 479.6254577636719 184.87001037597656 C 481.9521484375 184.87001037597656 483.6788024902344 185.21334838867188 484.80548095703125 185.90000915527344 C 485.9388122558594 186.59335327148438 486.5054626464844 187.67001342773438 486.5054626464844 189.13002014160156 C 486.5054626464844 190.0900115966797 486.2587890625 190.91001892089844 485.7654724121094 191.5900115966797 C 485.2721252441406 192.27001953125 484.62213134765625 192.71002197265625 483.8154602050781 192.91001892089844 L 483.8154602050781 193.02001953125 C 484.88214111328125 193.3066864013672 485.6521301269531 193.7766876220703 486.1254577636719 194.4300079345703 C 486.60546875 195.08334350585938 486.845458984375 195.933349609375 486.845458984375 196.98001098632812 C 486.845458984375 198.54000854492188 486.2587890625 199.7666778564453 485.0854797363281 200.66001892089844 C 483.9187927246094 201.5533447265625 482.32879638671875 202.00001525878906 480.3154602050781 202.00001525878906 L 473.6454772949219 202.00001525878906 L 473.6454772949219 184.87001037597656 M 478.2754821777344 191.4400177001953 L 479.67547607421875 191.4400177001953 C 480.3354797363281 191.4400177001953 480.84881591796875 191.3033447265625 481.2154846191406 191.03001403808594 C 481.5754699707031 190.75668334960938 481.7554626464844 190.3500213623047 481.7554626464844 189.8100128173828 C 481.7554626464844 188.8500213623047 481.02880859375 188.37001037597656 479.5754699707031 188.37001037597656 L 478.2754821777344 188.37001037597656 L 478.2754821777344 191.4400177001953 M 478.2754821777344 194.83001708984375 L 478.2754821777344 198.4300079345703 L 479.90545654296875 198.4300079345703 C 481.3521423339844 198.4300079345703 482.0754699707031 197.8200225830078 482.0754699707031 196.6000213623047 C 482.0754699707031 196.0266876220703 481.88214111328125 195.5900115966797 481.4954833984375 195.29000854492188 C 481.1087951660156 194.9833526611328 480.5487976074219 194.83001708984375 479.8154602050781 194.83001708984375 L 478.2754821777344 194.83001708984375 ZM 504.386474609375 184.87001037597656 L 504.386474609375 195.1800079345703 C 504.386474609375 197.42001342773438 503.7497863769531 199.15667724609375 502.4764709472656 200.3900146484375 C 501.2098083496094 201.61668395996094 499.3797912597656 202.23001098632812 496.9864501953125 202.23001098632812 C 494.65313720703125 202.23001098632812 492.85980224609375 201.6333465576172 491.6064758300781 200.4400177001953 C 490.3531188964844 199.24668884277344 489.7264709472656 197.53001403808594 489.7264709472656 195.29000854492188 L 489.7264709472656 184.87001037597656 L 494.37646484375 184.87001037597656 L 494.37646484375 194.92001342773438 C 494.37646484375 196.1333465576172 494.6031188964844 197.0133514404297 495.05645751953125 197.5600128173828 C 495.5097961425781 198.106689453125 496.17645263671875 198.38002014160156 497.05645751953125 198.38002014160156 C 498.00311279296875 198.38002014160156 498.6897888183594 198.106689453125 499.116455078125 197.5600128173828 C 499.5431213378906 197.02001953125 499.7564697265625 196.1333465576172 499.7564697265625 194.90000915527344 L 499.7564697265625 184.87001037597656 L 504.386474609375 184.87001037597656 ZM 512.6099853515625 195.77001953125 L 512.6099853515625 202.00001525878906 L 507.97998046875 202.00001525878906 L 507.97998046875 184.87001037597656 L 513.5899658203125 184.87001037597656 C 518.25 184.87001037597656 520.5799560546875 186.5566864013672 520.5799560546875 189.93002319335938 C 520.5799560546875 191.91668701171875 519.6099853515625 193.45335388183594 517.6699829101562 194.54000854492188 L 522.6699829101562 202.00001525878906 L 517.4199829101562 202.00001525878906 L 513.7799682617188 195.77001953125 L 512.6099853515625 195.77001953125 M 512.6099853515625 192.29000854492188 L 513.47998046875 192.29000854492188 C 515.0933227539062 192.29000854492188 515.8999633789062 191.57334899902344 515.8999633789062 190.1400146484375 C 515.8999633789062 188.96002197265625 515.1066284179688 188.37001037597656 513.5199584960938 188.37001037597656 L 512.6099853515625 188.37001037597656 L 512.6099853515625 192.29000854492188 ZM 534.7298583984375 202.00001525878906 L 533.889892578125 198.79000854492188 L 528.3198852539062 198.79000854492188 L 527.4598999023438 202.00001525878906 L 522.369873046875 202.00001525878906 L 527.9598999023438 184.80001831054688 L 534.139892578125 184.80001831054688 L 539.7998657226562 202.00001525878906 L 534.7298583984375 202.00001525878906 M 532.9298706054688 194.99002075195312 L 532.1898803710938 192.18002319335938 C 532.0165405273438 191.5533447265625 531.8065185546875 190.74334716796875 531.5598754882812 189.75001525878906 C 531.313232421875 188.7633514404297 531.1531982421875 188.0533447265625 531.0798950195312 187.62001037597656 C 531.0065307617188 188.02001953125 530.8665161132812 188.6766815185547 530.6598510742188 189.5900115966797 C 530.4531860351562 190.5033416748047 529.9932250976562 192.3033447265625 529.2798461914062 194.99002075195312 L 532.9298706054688 194.99002075195312 ZM 556.1863403320312 193.07000732421875 C 556.1863403320312 195.9300079345703 555.399658203125 198.1333465576172 553.8263549804688 199.6800079345703 C 552.2529907226562 201.2266845703125 550.0396728515625 202.00001525878906 547.1863403320312 202.00001525878906 L 541.6463012695312 202.00001525878906 L 541.6463012695312 184.87001037597656 L 547.5763549804688 184.87001037597656 C 550.3296508789062 184.87001037597656 552.4530029296875 185.57334899902344 553.9463500976562 186.98001098632812 C 555.4396362304688 188.38668823242188 556.1863403320312 190.41668701171875 556.1863403320312 193.07000732421875 M 551.3863525390625 193.23001098632812 C 551.3863525390625 191.66334533691406 551.0763549804688 190.50001525878906 550.456298828125 189.74002075195312 C 549.8363037109375 188.98667907714844 548.8930053710938 188.61001586914062 547.6263427734375 188.61001586914062 L 546.2763061523438 188.61001586914062 L 546.2763061523438 198.20001220703125 L 547.3063354492188 198.20001220703125 C 548.7130126953125 198.20001220703125 549.746337890625 197.79335021972656 550.4063110351562 196.98001098632812 C 551.0596313476562 196.16001892089844 551.3863525390625 194.91001892089844 551.3863525390625 193.23001098632812 ZM 569.7685546875 202.00001525878906 L 568.9285888671875 198.79000854492188 L 563.3585815429688 198.79000854492188 L 562.4985961914062 202.00001525878906 L 557.4085693359375 202.00001525878906 L 562.9985961914062 184.80001831054688 L 569.1785888671875 184.80001831054688 L 574.8385620117188 202.00001525878906 L 569.7685546875 202.00001525878906 M 567.9685668945312 194.99002075195312 L 567.2285766601562 192.18002319335938 C 567.0552368164062 191.5533447265625 566.84521484375 190.74334716796875 566.5985717773438 189.75001525878906 C 566.3519287109375 188.7633514404297 566.19189453125 188.0533447265625 566.1185913085938 187.62001037597656 C 566.0452270507812 188.02001953125 565.9052124023438 188.6766815185547 565.6985473632812 189.5900115966797 C 565.4918823242188 190.5033416748047 565.0319213867188 192.3033447265625 564.3185424804688 194.99002075195312 L 567.9685668945312 194.99002075195312 ZM 582.8019409179688 191.2200164794922 L 585.751953125 184.87001037597656 L 590.77197265625 184.87001037597656 L 585.1319580078125 195.3100128173828 L 585.1319580078125 202.00001525878906 L 580.4719848632812 202.00001525878906 L 580.4719848632812 195.45001220703125 L 574.8319702148438 184.87001037597656 L 579.8719482421875 184.87001037597656 L 582.8019409179688 191.2200164794922 ZM 592.6192626953125 202.00001525878906 L 592.6192626953125 184.87001037597656 L 597.269287109375 184.87001037597656 L 597.269287109375 202.00001525878906 L 592.6192626953125 202.00001525878906 ZM 608.4459228515625 202.00001525878906 L 604.9359130859375 189.66001892089844 L 604.8359375 189.66001892089844 C 604.9959106445312 191.760009765625 605.075927734375 193.39334106445312 605.075927734375 194.5600128173828 L 605.075927734375 202.00001525878906 L 600.9758911132812 202.00001525878906 L 600.9758911132812 184.87001037597656 L 607.1459350585938 184.87001037597656 L 610.7159423828125 197.03001403808594 L 610.805908203125 197.03001403808594 L 614.31591796875 184.87001037597656 L 620.4859008789062 184.87001037597656 L 620.4859008789062 202.00001525878906 L 616.2359008789062 202.00001525878906 L 616.2359008789062 194.49002075195312 C 616.2359008789062 194.0966796875 616.2425537109375 193.66334533691406 616.2559204101562 193.1900177001953 C 616.2625732421875 192.71002197265625 616.31591796875 191.54000854492188 616.4158935546875 189.68002319335938 L 616.305908203125 189.68002319335938 L 612.8458862304688 202.00001525878906 L 608.4459228515625 202.00001525878906 Z" transform="matrix(6.935990333557129, 0, 0, 6.935990333557129, -3143.00634765625, -1353.4312744140625)" style="fill: rgb(239, 71, 56); white-space: pre; color: rgb(51, 51, 51);"/></svg>