<svg width="166" height="116" viewBox="0 0 166 116" fill="none" xmlns="http://www.w3.org/2000/svg">
<path d="M106.76 56.4069C106.76 40.9271 94.2107 28.3926 78.763 28.3926C63.3154 28.3926 50.7656 40.9499 50.7656 56.4069C50.7656 65.0143 54.6447 72.7314 60.7598 77.8685C60.7598 77.8685 76.139 92.298 78.763 110.152C81.4099 92.298 96.7663 77.8913 96.7663 77.8685C102.881 72.7314 106.76 65.0372 106.76 56.4069Z" fill="#AE302C"/>
<path d="M78.7402 105.746C74.5645 89.7183 61.4671 77.3664 61.3302 77.2294L61.3074 77.2066C55.1466 72.0238 51.6099 64.4437 51.6099 56.4299C51.6099 41.4752 63.7717 29.2832 78.7402 29.2832C93.7087 29.2832 105.871 41.4524 105.871 56.4299C105.871 64.4666 102.334 72.0467 96.173 77.2066L96.1273 77.2294C95.5569 77.7774 82.8702 89.8781 78.7402 105.746Z" fill="#386BEF"/>
<path d="M102 56.5C102 59.5861 101.392 62.6419 100.211 65.4931C99.0302 68.3442 97.2992 70.9348 95.117 73.117C92.9348 75.2992 90.3442 77.0302 87.4931 78.2112C84.6419 79.3922 81.5861 80 78.5 80C75.4139 80 72.3581 79.3922 69.5069 78.2112C66.6558 77.0302 64.0652 75.2992 61.883 73.117C59.7008 70.9348 57.9698 68.3442 56.7888 65.4931C55.6078 62.6419 55 59.5861 55 56.5C55 53.4139 55.6078 50.3581 56.7888 47.5069C57.9698 44.6558 59.7008 42.0652 61.883 39.883C64.0652 37.7008 66.6558 35.9698 69.5069 34.7888C72.3581 33.6078 75.4139 33 78.5 33C84.7326 33 90.7099 35.4759 95.117 39.883C99.5241 44.2901 102 50.2674 102 56.5V56.5Z" fill="#AE302C"/>
<path d="M101 56.5C101 62.4674 98.6295 68.1903 94.4099 72.4099C90.1903 76.6295 84.4674 79 78.5 79C72.5326 79 66.8097 76.6295 62.5901 72.4099C58.3705 68.1903 56 62.4674 56 56.5C56 50.5326 58.3705 44.8097 62.5901 40.5901C66.8097 36.3705 72.5326 34 78.5 34C84.4674 34 90.1903 36.3705 94.4099 40.5901C98.6295 44.8097 101 50.5326 101 56.5V56.5Z" fill="white"/>
<path d="M20 12.0562H24.9276C26.8449 12.0562 28.2677 12.332 29.1961 12.8835C30.13 13.4404 30.5969 14.3052 30.5969 15.4779C30.5969 16.249 30.3937 16.9076 29.9872 17.4538C29.5806 18 29.045 18.3534 28.3803 18.5141V18.6024C29.2593 18.8327 29.8938 19.2102 30.2838 19.7349C30.6793 20.2597 30.8771 20.9424 30.8771 21.7831C30.8771 23.0361 30.3937 24.0214 29.4268 24.739C28.4655 25.4565 27.1553 25.8153 25.4962 25.8153H20V12.0562ZM23.8152 17.3333H24.9689C25.5127 17.3333 25.9357 17.2236 26.2379 17.004C26.5345 16.7845 26.6828 16.4578 26.6828 16.0241C26.6828 15.253 26.084 14.8675 24.8865 14.8675H23.8152V17.3333ZM23.8152 20.0562V22.9478H25.1584C26.3505 22.9478 26.9465 22.4578 26.9465 21.4779C26.9465 21.0174 26.7872 20.6667 26.4686 20.4257C26.15 20.1794 25.6885 20.0562 25.0842 20.0562H23.8152ZM45.3313 12.0562V20.3373C45.3313 22.1365 44.8067 23.5315 43.7574 24.5221C42.7137 25.5074 41.2057 26 39.2335 26C37.3108 26 35.8331 25.5208 34.8003 24.5623C33.7675 23.6038 33.2511 22.2249 33.2511 20.4257V12.0562H37.0828V20.1285C37.0828 21.1031 37.2696 21.8099 37.6432 22.249C38.0167 22.6881 38.5661 22.9076 39.2912 22.9076C40.0713 22.9076 40.6371 22.6881 40.9887 22.249C41.3403 21.8153 41.5161 21.1031 41.5161 20.1124V12.0562H45.3313ZM52.1077 20.8112V25.8153H48.2924V12.0562H52.9152C56.7552 12.0562 58.6751 13.411 58.6751 16.1205C58.6751 17.7162 57.8758 18.9505 56.2772 19.8233L60.3974 25.8153H56.0712L53.0718 20.8112H52.1077ZM52.1077 18.0161H52.8246C54.154 18.0161 54.8187 17.4404 54.8187 16.2892C54.8187 15.3414 54.165 14.8675 52.8575 14.8675H52.1077V18.0161ZM70.335 25.8153L69.6428 23.2369H65.053L64.3444 25.8153H60.1501L64.7564 12H69.8488L74.5128 25.8153H70.335ZM68.8518 20.1847L68.242 17.9277C68.0991 17.4244 67.9261 16.7738 67.7228 15.9759C67.5196 15.1834 67.3877 14.6131 67.3273 14.2651C67.2669 14.5863 67.1515 15.1138 66.9812 15.8474C66.8109 16.581 66.4319 18.0268 65.844 20.1847H68.8518ZM88.0156 18.6426C88.0156 20.9398 87.3674 22.7095 86.071 23.9518C84.7745 25.1941 82.9506 25.8153 80.5994 25.8153H76.0343V12.0562H80.9208C83.1896 12.0562 84.9393 12.6211 86.1698 13.751C87.4003 14.8809 88.0156 16.5114 88.0156 18.6426ZM84.0603 18.7711C84.0603 17.5127 83.8049 16.5783 83.2939 15.9679C82.7831 15.3628 82.0058 15.0602 80.962 15.0602H79.8495V22.7631H80.6983C81.8574 22.7631 82.7089 22.4364 83.2528 21.7831C83.7911 21.1245 84.0603 20.1205 84.0603 18.7711ZM99.2077 25.8153L98.5156 23.2369H93.9257L93.2171 25.8153H89.0228L93.6291 12H98.7216L103.386 25.8153H99.2077ZM97.7245 20.1847L97.1147 17.9277C96.9719 17.4244 96.7988 16.7738 96.5956 15.9759C96.3923 15.1834 96.2604 14.6131 96.2 14.2651C96.1396 14.5863 96.0242 15.1138 95.8539 15.8474C95.6836 16.581 95.3046 18.0268 94.7168 20.1847H97.7245ZM109.948 17.1566L112.378 12.0562H116.515L111.868 20.4418V25.8153H108.028V20.5542L103.38 12.0562H107.533L109.948 17.1566ZM118.037 25.8153V12.0562H121.869V25.8153H118.037ZM131.079 25.8153L128.186 15.9036H128.104C128.236 17.5904 128.302 18.9023 128.302 19.8394V25.8153H124.923V12.0562H130.008L132.949 21.8233H133.023L135.916 12.0562H141V25.8153H137.498V19.7831C137.498 19.4672 137.503 19.1191 137.514 18.739C137.52 18.3534 137.564 17.4136 137.646 15.9197H137.556L134.704 25.8153H131.079Z" fill="#386BEF"/>
</svg>
