<svg width="166" height="116" viewBox="0 0 166 116" fill="none" xmlns="http://www.w3.org/2000/svg">
<path d="M106.76 56.4069C106.76 40.9271 94.2107 28.3926 78.763 28.3926C63.3154 28.3926 50.7656 40.9499 50.7656 56.4069C50.7656 65.0143 54.6447 72.7314 60.7598 77.8685C60.7598 77.8685 76.139 92.298 78.763 110.152C81.4099 92.298 96.7663 77.8913 96.7663 77.8685C102.881 72.7314 106.76 65.0372 106.76 56.4069Z" fill="#AE302C"/>
<path d="M78.7402 105.746C74.5645 89.7183 61.4671 77.3664 61.3302 77.2294L61.3074 77.2066C55.1466 72.0238 51.6099 64.4437 51.6099 56.4299C51.6099 41.4752 63.7717 29.2832 78.7402 29.2832C93.7087 29.2832 105.871 41.4524 105.871 56.4299C105.871 64.4666 102.334 72.0467 96.173 77.2066L96.1273 77.2294C95.5569 77.7774 82.8702 89.8781 78.7402 105.746Z" fill="#393861"/>
<path d="M102 56.5C102 59.5861 101.392 62.6419 100.211 65.4931C99.0302 68.3442 97.2992 70.9348 95.117 73.117C92.9348 75.2992 90.3442 77.0302 87.4931 78.2112C84.6419 79.3922 81.5861 80 78.5 80C75.4139 80 72.3581 79.3922 69.5069 78.2112C66.6558 77.0302 64.0652 75.2992 61.883 73.117C59.7008 70.9348 57.9698 68.3442 56.7888 65.4931C55.6078 62.6419 55 59.5861 55 56.5C55 53.4139 55.6078 50.3581 56.7888 47.5069C57.9698 44.6558 59.7008 42.0652 61.883 39.883C64.0652 37.7008 66.6558 35.9698 69.5069 34.7888C72.3581 33.6078 75.4139 33 78.5 33C84.7326 33 90.7099 35.4759 95.117 39.883C99.5241 44.2901 102 50.2674 102 56.5V56.5Z" fill="#AE302C"/>
<path d="M39 12.0562H42.1765C43.4124 12.0562 44.3296 12.332 44.9281 12.8835C45.5301 13.4404 45.8311 14.3052 45.8311 15.4779C45.8311 16.249 45.7001 16.9076 45.438 17.4538C45.1759 18 44.8307 18.3534 44.4022 18.5141V18.6024C44.9688 18.8327 45.3778 19.2102 45.6292 19.7349C45.8842 20.2597 46.0117 20.9424 46.0117 21.7831C46.0117 23.0361 45.7001 24.0214 45.0768 24.739C44.4571 25.4565 43.6125 25.8153 42.543 25.8153H39V12.0562ZM41.4594 17.3333H42.2031C42.5537 17.3333 42.8263 17.2236 43.0211 17.004C43.2123 16.7845 43.3079 16.4578 43.3079 16.0241C43.3079 15.253 42.9219 14.8675 42.1499 14.8675H41.4594V17.3333ZM41.4594 20.0562V22.9478H42.3252C43.0937 22.9478 43.4779 22.4578 43.4779 21.4779C43.4779 21.0174 43.3752 20.6667 43.1698 20.4257C42.9644 20.1794 42.667 20.0562 42.2774 20.0562H41.4594ZM55.3293 12.0562V20.3373C55.3293 22.1365 54.9911 23.5315 54.3147 24.5221C53.6419 25.5074 52.6698 26 51.3985 26C50.159 26 49.2064 25.5208 48.5407 24.5623C47.8749 23.6038 47.542 22.2249 47.542 20.4257V12.0562H50.0121V20.1285C50.0121 21.1031 50.1325 21.8099 50.3733 22.249C50.6141 22.6881 50.9682 22.9076 51.4357 22.9076C51.9385 22.9076 52.3033 22.6881 52.5299 22.249C52.7565 21.8153 52.8699 21.1031 52.8699 20.1124V12.0562H55.3293ZM59.6975 20.8112V25.8153H57.2381V12.0562H60.2181C62.6934 12.0562 63.9311 13.411 63.9311 16.1205C63.9311 17.7162 63.4158 18.9505 62.3853 19.8233L65.0413 25.8153H62.2525L60.319 20.8112H59.6975ZM59.6975 18.0161H60.1596C61.0166 18.0161 61.4451 17.4404 61.4451 16.2892C61.4451 15.3414 61.0237 14.8675 60.1809 14.8675H59.6975V18.0161ZM71.4473 25.8153L71.0012 23.2369H68.0424L67.5856 25.8153H64.8819L67.8512 12H71.134L74.1405 25.8153H71.4473ZM70.4912 20.1847L70.0981 17.9277C70.0061 17.4244 69.8945 16.7738 69.7635 15.9759C69.6325 15.1834 69.5475 14.6131 69.5085 14.2651C69.4696 14.5863 69.3952 15.1138 69.2854 15.8474C69.1756 16.581 68.9313 18.0268 68.5524 20.1847H70.4912ZM82.8448 18.6426C82.8448 20.9398 82.4269 22.7095 81.5912 23.9518C80.7554 25.1941 79.5797 25.8153 78.0641 25.8153H75.1213V12.0562H78.2713C79.7338 12.0562 80.8617 12.6211 81.6549 13.751C82.4481 14.8809 82.8448 16.5114 82.8448 18.6426ZM80.2951 18.7711C80.2951 17.5127 80.1304 16.5783 79.8011 15.9679C79.4717 15.3628 78.9707 15.0602 78.2978 15.0602H77.5807V22.7631H78.1278C78.875 22.7631 79.4239 22.4364 79.7745 21.7831C80.1215 21.1245 80.2951 20.1205 80.2951 18.7711ZM90.0595 25.8153L89.6133 23.2369H86.6546L86.1978 25.8153H83.494L86.4634 12H89.7461L92.7526 25.8153H90.0595ZM89.1034 20.1847L88.7103 17.9277C88.6182 17.4244 88.5067 16.7738 88.3757 15.9759C88.2446 15.1834 88.1596 14.6131 88.1207 14.2651C88.0817 14.5863 88.0073 15.1138 87.8976 15.8474C87.7878 16.581 87.5435 18.0268 87.1645 20.1847H89.1034ZM96.9827 17.1566L98.5497 12.0562H101.216L98.2204 20.4418V25.8153H95.7451V20.5542L92.7491 12.0562H95.4263L96.9827 17.1566ZM102.198 25.8153V12.0562H104.668V25.8153H102.198ZM110.605 25.8153L108.74 15.9036H108.687C108.772 17.5904 108.814 18.9023 108.814 19.8394V25.8153H106.637V12.0562H109.914L111.81 21.8233H111.858L113.723 12.0562H117V25.8153H114.742V19.7831C114.742 19.4672 114.746 19.1191 114.753 18.739C114.757 18.3534 114.785 17.4136 114.838 15.9197H114.78L112.942 25.8153H110.605Z" fill="#0C0A3E" fill-opacity="0.79"/>
</svg>
