<svg width="166" height="116" viewBox="0 0 166 116" fill="none" xmlns="http://www.w3.org/2000/svg">
<path d="M106.76 56.4069C106.76 40.9271 94.2107 28.3926 78.763 28.3926C63.3154 28.3926 50.7656 40.9499 50.7656 56.4069C50.7656 65.0143 54.6447 72.7314 60.7598 77.8685C60.7598 77.8685 76.139 92.298 78.763 110.152C81.4099 92.298 96.7663 77.8913 96.7663 77.8685C102.881 72.7314 106.76 65.0372 106.76 56.4069Z" fill="#AE302C"/>
<path d="M78.7402 105.746C74.5645 89.7183 61.4671 77.3664 61.3302 77.2294L61.3074 77.2066C55.1466 72.0238 51.6099 64.4437 51.6099 56.4299C51.6099 41.4752 63.7717 29.2832 78.7402 29.2832C93.7087 29.2832 105.871 41.4524 105.871 56.4299C105.871 64.4666 102.334 72.0467 96.173 77.2066L96.1273 77.2294C95.5569 77.7774 82.8702 89.8781 78.7402 105.746Z" fill="#393861"/>
<path d="M102 56.5C102 59.5861 101.392 62.6419 100.211 65.4931C99.0302 68.3442 97.2992 70.9348 95.117 73.117C92.9348 75.2992 90.3442 77.0302 87.4931 78.2112C84.6419 79.3922 81.5861 80 78.5 80C75.4139 80 72.3581 79.3922 69.5069 78.2112C66.6558 77.0302 64.0652 75.2992 61.883 73.117C59.7008 70.9348 57.9698 68.3442 56.7888 65.4931C55.6078 62.6419 55 59.5861 55 56.5C55 53.4139 55.6078 50.3581 56.7888 47.5069C57.9698 44.6558 59.7008 42.0652 61.883 39.883C64.0652 37.7008 66.6558 35.9698 69.5069 34.7888C72.3581 33.6078 75.4139 33 78.5 33C84.7326 33 90.7099 35.4759 95.117 39.883C99.5241 44.2901 102 50.2674 102 56.5V56.5Z" fill="#AE302C"/>
<path d="M7 2.10441H12.905C15.2026 2.10441 16.9076 2.61656 18.0201 3.64084C19.1393 4.67508 19.6988 6.28112 19.6988 8.45898C19.6988 9.89099 19.4552 11.1142 18.9681 12.1285C18.4809 13.1429 17.8391 13.7992 17.0425 14.0975V14.2616C18.0958 14.6892 18.8562 15.3903 19.3236 16.3649C19.7976 17.3394 20.0345 18.6074 20.0345 20.1687C20.0345 22.4957 19.4552 24.3255 18.2966 25.6581C17.1446 26.9906 15.5745 27.6569 13.5864 27.6569H7V2.10441ZM11.572 11.9048H12.9544C13.6062 11.9048 14.1131 11.7009 14.4751 11.2932C14.8306 10.8854 15.0083 10.2788 15.0083 9.47332C15.0083 8.04132 14.2908 7.32529 12.8557 7.32529H11.572V11.9048ZM11.572 16.9616V22.3316H13.1815C14.6101 22.3316 15.3243 21.4217 15.3243 19.6018C15.3243 18.7466 15.1334 18.0952 14.7516 17.6477C14.3698 17.1903 13.8168 16.9616 13.0927 16.9616H11.572ZM37.3557 2.10441V17.4836C37.3557 20.825 36.727 23.4156 35.4696 25.2553C34.2189 27.0851 32.4118 28 30.0484 28C27.7444 28 25.9735 27.11 24.7359 25.3299C23.4982 23.5498 22.8794 20.9891 22.8794 17.6477V2.10441H27.4712V17.0958C27.4712 18.9057 27.695 20.2184 28.1426 21.0339C28.5903 21.8493 29.2486 22.257 30.1176 22.257C31.0523 22.257 31.7304 21.8493 32.1517 21.0339C32.5731 20.2284 32.7837 18.9057 32.7837 17.066V2.10441H37.3557ZM45.4761 18.3638V27.6569H40.9042V2.10441H46.4438C51.0455 2.10441 53.3462 4.62039 53.3462 9.65233C53.3462 12.6158 52.3884 14.908 50.4727 16.529L55.4101 27.6569H50.2259L46.6315 18.3638H45.4761ZM45.4761 13.1727H46.3352C47.9284 13.1727 48.7249 12.1037 48.7249 9.96557C48.7249 8.2054 47.9415 7.32529 46.3747 7.32529H45.4761V13.1727ZM67.3188 27.6569L66.4893 22.8686H60.9891L60.1399 27.6569H55.1137L60.6337 2H66.7362L72.3252 27.6569H67.3188ZM65.5414 17.2002L64.8106 13.0086C64.6395 12.0738 64.4321 10.8656 64.1885 9.38382C63.945 7.91203 63.7869 6.85293 63.7146 6.20653C63.6421 6.80322 63.5039 7.78275 63.2998 9.14515C63.0957 10.5075 62.6415 13.1926 61.9371 17.2002H65.5414ZM88.5063 14.3362C88.5063 18.6024 87.7295 21.8891 86.1759 24.1962C84.6223 26.5034 82.4367 27.6569 79.6191 27.6569H74.1485V2.10441H80.0043C82.7231 2.10441 84.8198 3.15356 86.2944 5.25186C87.769 7.35017 88.5063 10.3783 88.5063 14.3362ZM83.7665 14.5749C83.7665 12.2379 83.4604 10.5026 82.8481 9.36891C82.2359 8.24517 81.3044 7.6833 80.0536 7.6833H78.7205V21.9885H79.7376C81.1267 21.9885 82.1471 21.3819 82.7988 20.1687C83.4439 18.9455 83.7665 17.0809 83.7665 14.5749ZM101.918 27.6569L101.089 22.8686H95.5887L94.7395 27.6569H89.7132L95.2332 2H101.336L106.925 27.6569H101.918ZM100.141 17.2002L99.4102 13.0086C99.239 12.0738 99.0316 10.8656 98.7881 9.38382C98.5445 7.91203 98.3865 6.85293 98.3141 6.20653C98.2417 6.80322 98.1034 7.78275 97.8993 9.14515C97.6952 10.5075 97.2411 13.1926 96.5366 17.2002H100.141ZM114.788 11.5766L117.701 2.10441H122.658L117.089 17.6776V27.6569H112.488V17.8864L106.918 2.10441H111.895L114.788 11.5766ZM124.483 27.6569V2.10441H129.074V27.6569H124.483ZM140.111 27.6569L136.645 9.24957H136.546C136.704 12.3821 136.783 14.8185 136.783 16.5588V27.6569H132.735V2.10441H138.827L142.352 20.2433H142.441L145.907 2.10441H152V27.6569H147.803V16.4544C147.803 15.8677 147.81 15.2213 147.823 14.5152C147.83 13.7992 147.882 12.0539 147.981 9.27941H147.872L144.456 27.6569H140.111Z" fill="#0C0A3E" fill-opacity="0.79"/>
</svg>
