<svg width="166" height="116" viewBox="0 0 166 116" fill="none" xmlns="http://www.w3.org/2000/svg">
<rect x="2" width="154" height="28" rx="4" fill="white"/>
<path d="M106.76 56.4069C106.76 40.9271 94.2107 28.3926 78.763 28.3926C63.3154 28.3926 50.7656 40.9499 50.7656 56.4069C50.7656 65.0143 54.6447 72.7314 60.7598 77.8685C60.7598 77.8685 76.139 92.298 78.763 110.152C81.4099 92.298 96.7663 77.8913 96.7663 77.8685C102.881 72.7314 106.76 65.0372 106.76 56.4069Z" fill="#AE302C"/>
<path d="M78.7402 105.746C74.5645 89.7183 61.4671 77.3664 61.3302 77.2294L61.3074 77.2066C55.1466 72.0238 51.6099 64.4437 51.6099 56.4299C51.6099 41.4752 63.7717 29.2832 78.7402 29.2832C93.7087 29.2832 105.871 41.4524 105.871 56.4299C105.871 64.4666 102.334 72.0467 96.173 77.2066L96.1273 77.2294C95.5569 77.7774 82.8702 89.8781 78.7402 105.746Z" fill="#393861"/>
<path d="M102 56.5C102 59.5861 101.392 62.6419 100.211 65.4931C99.0302 68.3442 97.2992 70.9348 95.117 73.117C92.9348 75.2992 90.3442 77.0302 87.4931 78.2112C84.6419 79.3922 81.5861 80 78.5 80C75.4139 80 72.3581 79.3922 69.5069 78.2112C66.6558 77.0302 64.0652 75.2992 61.883 73.117C59.7008 70.9348 57.9698 68.3442 56.7888 65.4931C55.6078 62.6419 55 59.5861 55 56.5C55 53.4139 55.6078 50.3581 56.7888 47.5069C57.9698 44.6558 59.7008 42.0652 61.883 39.883C64.0652 37.7008 66.6558 35.9698 69.5069 34.7888C72.3581 33.6078 75.4139 33 78.5 33C84.7326 33 90.7099 35.4759 95.117 39.883C99.5241 44.2901 102 50.2674 102 56.5V56.5Z" fill="#AE302C"/>
<path d="M7 2.09236H12.905C15.2026 2.09236 16.9076 2.54542 18.0201 3.45151C19.1393 4.36642 19.6988 5.78714 19.6988 7.71372C19.6988 8.98049 19.4552 10.0625 18.9681 10.9598C18.4809 11.8571 17.8391 12.4378 17.0425 12.7017V12.8468C18.0958 13.2251 18.8562 13.8453 19.3236 14.7074C19.7976 15.5695 20.0345 16.6911 20.0345 18.0723C20.0345 20.1308 19.4552 21.7495 18.2966 22.9283C17.1446 24.1071 15.5745 24.6965 13.5864 24.6965H7V2.09236ZM11.572 10.7619H12.9544C13.6062 10.7619 14.1131 10.5816 14.4751 10.2209C14.8306 9.8602 15.0083 9.32359 15.0083 8.61101C15.0083 7.34424 14.2908 6.71084 12.8557 6.71084H11.572V10.7619ZM11.572 15.2352V19.9857H13.1815C14.6101 19.9857 15.3243 19.1807 15.3243 17.5709C15.3243 16.8143 15.1334 16.2381 14.7516 15.8422C14.3698 15.4376 13.8168 15.2352 13.0927 15.2352H11.572ZM37.3557 2.09236V15.6971C37.3557 18.6529 36.727 20.9445 35.4696 22.572C34.2189 24.1907 32.4118 25 30.0484 25C27.7444 25 25.9735 24.2127 24.7359 22.638C23.4982 21.0633 22.8794 18.7981 22.8794 15.8422V2.09236H27.4712V15.354C27.4712 16.9551 27.695 18.1163 28.1426 18.8376C28.5903 19.559 29.2486 19.9197 30.1176 19.9197C31.0523 19.9197 31.7304 19.559 32.1517 18.8376C32.5731 18.1251 32.7837 16.9551 32.7837 15.3276V2.09236H37.3557ZM45.4761 16.4756V24.6965H40.9042V2.09236H46.4438C51.0455 2.09236 53.3462 4.31804 53.3462 8.76937C53.3462 11.3909 52.3884 13.4186 50.4727 14.8525L55.4101 24.6965H50.2259L46.6315 16.4756H45.4761ZM45.4761 11.8835H46.3352C47.9284 11.8835 48.7249 10.9378 48.7249 9.04647C48.7249 7.48939 47.9415 6.71084 46.3747 6.71084H45.4761V11.8835ZM67.3188 24.6965L66.4893 20.4607H60.9891L60.1399 24.6965H55.1137L60.6337 2H66.7362L72.3252 24.6965H67.3188ZM65.5414 15.4464L64.8106 11.7384C64.6395 10.9115 64.4321 9.84261 64.1885 8.53184C63.945 7.22987 63.7869 6.29297 63.7146 5.72116C63.6421 6.249 63.5039 7.11551 63.2998 8.32071C63.0957 9.5259 62.6415 11.9011 61.9371 15.4464H65.5414ZM88.5063 12.9128C88.5063 16.6867 87.7295 19.5942 86.1759 21.6351C84.6223 23.676 82.4367 24.6965 79.6191 24.6965H74.1485V2.09236H80.0043C82.7231 2.09236 84.8198 3.02046 86.2944 4.87664C87.769 6.73284 88.5063 9.41156 88.5063 12.9128ZM83.7665 13.1239C83.7665 11.0566 83.4604 9.52151 82.8481 8.51865C82.2359 7.52457 81.3044 7.02754 80.0536 7.02754H78.7205V19.6822H79.7376C81.1267 19.6822 82.1471 19.1455 82.7988 18.0723C83.4439 16.9903 83.7665 15.3408 83.7665 13.1239ZM101.918 24.6965L101.089 20.4607H95.5887L94.7395 24.6965H89.7132L95.2332 2H101.336L106.925 24.6965H101.918ZM100.141 15.4464L99.4102 11.7384C99.239 10.9115 99.0316 9.84261 98.7881 8.53184C98.5445 7.22987 98.3865 6.29297 98.3141 5.72116C98.2417 6.249 98.1034 7.11551 97.8993 8.32071C97.6952 9.5259 97.2411 11.9011 96.5366 15.4464H100.141ZM114.788 10.4716L117.701 2.09236H122.658L117.089 15.8686V24.6965H112.488V16.0534L106.918 2.09236H111.895L114.788 10.4716ZM124.483 24.6965V2.09236H129.074V24.6965H124.483ZM140.111 24.6965L136.645 8.41308H136.546C136.704 11.1842 136.783 13.3394 136.783 14.8789V24.6965H132.735V2.09236H138.827L142.352 18.1383H142.441L145.907 2.09236H152V24.6965H147.803V14.7866C147.803 14.2675 147.81 13.6957 147.823 13.0711C147.83 12.4378 147.882 10.8939 147.981 8.43948H147.872L144.456 24.6965H140.111Z" fill="#0C0A3E" fill-opacity="0.79"/>
</svg>
