<?xml version="1.0" encoding="utf-8"?>
<svg id="master-artboard" viewBox="0 0 1400 980" version="1.1" xmlns="http://www.w3.org/2000/svg" x="0px" y="0px" enable-background="new 0 0 1400 980" width="1400px" height="980px"><rect id="ee-background" x="0" y="0" width="1400" height="980" style="fill: white; fill-opacity: 0; pointer-events: none;"/>
<path fill="#57919B" d="M554,102.9c-67.8,0-122.7,55-122.7,122.7c0,37.7,17,71.5,43.8,94c0,0,67.4,63.2,78.9,141.4&#10;&#9;&#9;&#9;c11.6-78.2,78.9-141.3,78.9-141.4c26.8-22.5,43.8-56.3,43.8-94C676.7,157.8,621.7,102.9,554,102.9z" transform="matrix(2.466269777792532, 0, 0, 2.466269777792532, -655.5087715449827, -191.8067694540335)"/><g transform="matrix(2.466269777792532, 0, 0, 2.466269777792532, -655.5087715449827, -191.8067694540335)">
				<path fill="#AE302C" d="M664.7,213.6c0-67.8-55-122.7-122.7-122.7s-122.7,55-122.7,122.7c0,37.7,17,71.5,43.8,94&#10;&#9;&#9;&#9;&#9;&#9;c0,0,67.4,63.2,78.9,141.4c11.6-78.2,78.9-141.3,78.9-141.4C647.7,285.1,664.7,251.4,664.7,213.6z"/>
				<path fill="#EF4638" d="M541.9,429.7c-18.3-70.2-75.7-124.3-76.3-124.9l-0.1-0.1c-27-22.7-42.5-55.9-42.5-91&#10;&#9;&#9;&#9;&#9;&#9;c0-65.5,53.3-118.9,118.9-118.9s118.9,53.3,118.9,118.9c0,35.2-15.5,68.4-42.5,91l-0.2,0.1C615.6,307.2,560,360.2,541.9,429.7z"/>
			</g><path d="M 644.099998 214.300003 A 102.099998 102.099998 0 0 1 542 316.400002 A 102.099998 102.099998 0 0 1 439.900002 214.300003 A 102.099998 102.099998 0 0 1 542 112.200005 A 102.099998 102.099998 0 0 1 644.099998 214.300003 Z" fill="#AE302C" transform="matrix(2.466269777792532, 0, 0, 2.466269777792532, -655.5087715449827, -191.8067694540335)"/><path d="M 639.900002 214.300003 A 97.900002 97.900002 0 0 1 542 312.200005 A 97.900002 97.900002 0 0 1 444.099998 214.300003 A 97.900002 97.900002 0 0 1 542 116.400002 A 97.900002 97.900002 0 0 1 639.900002 214.300003 Z" fill="#FFFFFF" transform="matrix(2.466269777792532, 0, 0, 2.466269777792532, -655.5087715449827, -191.8067694540335)"/>
<path d="M 473.6454772949219 184.8699951171875 L 479.6254577636719 184.8699951171875 C 481.9521484375 184.8699951171875 483.6788024902344 185.2133331298828 484.80548095703125 185.89999389648438 C 485.9388122558594 186.5933380126953 486.5054626464844 187.6699981689453 486.5054626464844 189.1300048828125 C 486.5054626464844 190.08999633789062 486.2587890625 190.91000366210938 485.7654724121094 191.58999633789062 C 485.2721252441406 192.27000427246094 484.62213134765625 192.7100067138672 483.8154602050781 192.91000366210938 L 483.8154602050781 193.02000427246094 C 484.88214111328125 193.30667114257812 485.6521301269531 193.77667236328125 486.1254577636719 194.42999267578125 C 486.60546875 195.0833282470703 486.845458984375 195.93333435058594 486.845458984375 196.97999572753906 C 486.845458984375 198.5399932861328 486.2587890625 199.76666259765625 485.0854797363281 200.66000366210938 C 483.9187927246094 201.55332946777344 482.32879638671875 202 480.3154602050781 202 L 473.6454772949219 202 L 473.6454772949219 184.8699951171875 M 478.2754821777344 191.44000244140625 L 479.67547607421875 191.44000244140625 C 480.3354797363281 191.44000244140625 480.84881591796875 191.30332946777344 481.2154846191406 191.02999877929688 C 481.5754699707031 190.7566680908203 481.7554626464844 190.35000610351562 481.7554626464844 189.80999755859375 C 481.7554626464844 188.85000610351562 481.02880859375 188.3699951171875 479.5754699707031 188.3699951171875 L 478.2754821777344 188.3699951171875 L 478.2754821777344 191.44000244140625 M 478.2754821777344 194.8300018310547 L 478.2754821777344 198.42999267578125 L 479.90545654296875 198.42999267578125 C 481.3521423339844 198.42999267578125 482.0754699707031 197.82000732421875 482.0754699707031 196.60000610351562 C 482.0754699707031 196.02667236328125 481.88214111328125 195.58999633789062 481.4954833984375 195.2899932861328 C 481.1087951660156 194.98333740234375 480.5487976074219 194.8300018310547 479.8154602050781 194.8300018310547 L 478.2754821777344 194.8300018310547 ZM 504.38275146484375 184.8699951171875 L 504.38275146484375 195.17999267578125 C 504.38275146484375 197.4199981689453 503.7460632324219 199.1566619873047 502.4727478027344 200.38999938964844 C 501.2060852050781 201.61666870117188 499.3760681152344 202.22999572753906 496.98272705078125 202.22999572753906 C 494.6494140625 202.22999572753906 492.8560791015625 201.63333129882812 491.6027526855469 200.44000244140625 C 490.3493957519531 199.24667358398438 489.7227478027344 197.52999877929688 489.7227478027344 195.2899932861328 L 489.7227478027344 184.8699951171875 L 494.37274169921875 184.8699951171875 L 494.37274169921875 194.9199981689453 C 494.37274169921875 196.13333129882812 494.5993957519531 197.01333618164062 495.052734375 197.55999755859375 C 495.5060729980469 198.10665893554688 496.1727294921875 198.3800048828125 497.052734375 198.3800048828125 C 497.9993896484375 198.3800048828125 498.6860656738281 198.10665893554688 499.11273193359375 197.55999755859375 C 499.5393981933594 197.02000427246094 499.75274658203125 196.13333129882812 499.75274658203125 194.89999389648438 L 499.75274658203125 184.8699951171875 L 504.38275146484375 184.8699951171875 ZM 512.6083374023438 195.77000427246094 L 512.6083374023438 202 L 507.97833251953125 202 L 507.97833251953125 184.8699951171875 L 513.5883178710938 184.8699951171875 C 518.2483520507812 184.8699951171875 520.5783081054688 186.55667114257812 520.5783081054688 189.92999267578125 C 520.5783081054688 191.9166717529297 519.6083374023438 193.45333862304688 517.6683349609375 194.5399932861328 L 522.6683349609375 202 L 517.4183349609375 202 L 513.7783203125 195.77000427246094 L 512.6083374023438 195.77000427246094 M 512.6083374023438 192.2899932861328 L 513.4783325195312 192.2899932861328 C 515.0916748046875 192.2899932861328 515.8983154296875 191.57333374023438 515.8983154296875 190.13999938964844 C 515.8983154296875 188.9600067138672 515.10498046875 188.3699951171875 513.518310546875 188.3699951171875 L 512.6083374023438 188.3699951171875 L 512.6083374023438 192.2899932861328 ZM 534.7277221679688 202 L 533.8877563476562 198.7899932861328 L 528.3177490234375 198.7899932861328 L 527.457763671875 202 L 522.3677368164062 202 L 527.957763671875 184.8000030517578 L 534.1377563476562 184.8000030517578 L 539.7977294921875 202 L 534.7277221679688 202 M 532.927734375 194.99000549316406 L 532.187744140625 192.17999267578125 C 532.014404296875 191.55332946777344 531.8043823242188 190.7433319091797 531.5577392578125 189.75 C 531.3110961914062 188.76333618164062 531.1510620117188 188.05332946777344 531.0777587890625 187.6199951171875 C 531.00439453125 188.02000427246094 530.8643798828125 188.67666625976562 530.65771484375 189.58999633789062 C 530.4510498046875 190.50332641601562 529.9910888671875 192.30332946777344 529.2777099609375 194.99000549316406 L 532.927734375 194.99000549316406 ZM 556.1875 193.07000732421875 C 556.1875 195.92999267578125 555.4008178710938 198.13333129882812 553.8275146484375 199.67999267578125 C 552.254150390625 201.22666931152344 550.0408325195312 202 547.1875 202 L 541.6474609375 202 L 541.6474609375 184.8699951171875 L 547.5775146484375 184.8699951171875 C 550.330810546875 184.8699951171875 552.4541625976562 185.57333374023438 553.947509765625 186.97999572753906 C 555.4407958984375 188.3866729736328 556.1875 190.4166717529297 556.1875 193.07000732421875 M 551.3875122070312 193.22999572753906 C 551.3875122070312 191.663330078125 551.0775146484375 190.5 550.4574584960938 189.74000549316406 C 549.8374633789062 188.98666381835938 548.8941650390625 188.61000061035156 547.6275024414062 188.61000061035156 L 546.2774658203125 188.61000061035156 L 546.2774658203125 198.1999969482422 L 547.3074951171875 198.1999969482422 C 548.7141723632812 198.1999969482422 549.7474975585938 197.7933349609375 550.407470703125 196.97999572753906 C 551.060791015625 196.16000366210938 551.3875122070312 194.91000366210938 551.3875122070312 193.22999572753906 ZM 569.767578125 202 L 568.9276123046875 198.7899932861328 L 563.3576049804688 198.7899932861328 L 562.4976196289062 202 L 557.4075927734375 202 L 562.9976196289062 184.8000030517578 L 569.1776123046875 184.8000030517578 L 574.8375854492188 202 L 569.767578125 202 M 567.9675903320312 194.99000549316406 L 567.2276000976562 192.17999267578125 C 567.0542602539062 191.55332946777344 566.84423828125 190.7433319091797 566.5975952148438 189.75 C 566.3509521484375 188.76333618164062 566.19091796875 188.05332946777344 566.1176147460938 187.6199951171875 C 566.0442504882812 188.02000427246094 565.9042358398438 188.67666625976562 565.6975708007812 189.58999633789062 C 565.4909057617188 190.50332641601562 565.0309448242188 192.30332946777344 564.3175659179688 194.99000549316406 L 567.9675903320312 194.99000549316406 ZM 582.8073120117188 191.22000122070312 L 585.75732421875 184.8699951171875 L 590.77734375 184.8699951171875 L 585.1373291015625 195.30999755859375 L 585.1373291015625 202 L 580.4773559570312 202 L 580.4773559570312 195.4499969482422 L 574.8373413085938 184.8699951171875 L 579.8773193359375 184.8699951171875 L 582.8073120117188 191.22000122070312 ZM 592.6237182617188 202 L 592.6237182617188 184.8699951171875 L 597.2737426757812 184.8699951171875 L 597.2737426757812 202 L 592.6237182617188 202 ZM 608.4478759765625 202 L 604.9378662109375 189.66000366210938 L 604.837890625 189.66000366210938 C 604.9978637695312 191.75999450683594 605.077880859375 193.39334106445312 605.077880859375 194.55999755859375 L 605.077880859375 202 L 600.9778442382812 202 L 600.9778442382812 184.8699951171875 L 607.1478881835938 184.8699951171875 L 610.7178955078125 197.02999877929688 L 610.807861328125 197.02999877929688 L 614.31787109375 184.8699951171875 L 620.4878540039062 184.8699951171875 L 620.4878540039062 202 L 616.2378540039062 202 L 616.2378540039062 194.49000549316406 C 616.2378540039062 194.09666442871094 616.2445068359375 193.663330078125 616.2578735351562 193.19000244140625 C 616.2645263671875 192.7100067138672 616.31787109375 191.5399932861328 616.4178466796875 189.67999267578125 L 616.307861328125 189.67999267578125 L 612.8478393554688 202 L 608.4478759765625 202 Z" transform="matrix(2.880703926086426, 0, 0, 2.880703926086426, -891.0278930664062, -285.12030029296875)" style="fill: rgb(239, 71, 56); white-space: pre; color: rgb(51, 51, 51);"/></svg>