<?xml version="1.0" encoding="utf-8"?>
<svg id="master-artboard" viewBox="0 0 1400 980" version="1.1" xmlns="http://www.w3.org/2000/svg" x="0px" y="0px" enable-background="new 0 0 1400 980" width="1400px" height="980px">
<path fill="#57919B" d="M554,102.9c-67.8,0-122.7,55-122.7,122.7c0,37.7,17,71.5,43.8,94c0,0,67.4,63.2,78.9,141.4&#10;&#9;&#9;&#9;c11.6-78.2,78.9-141.3,78.9-141.4c26.8-22.5,43.8-56.3,43.8-94C676.7,157.8,621.7,102.9,554,102.9z" transform="matrix(1, 0, 0, 1, -5.684341886080802e-14, 0)"/><g transform="matrix(1, 0, 0, 1, -8.526512829121202e-14, 0)">
				<path fill="#AE302C" d="M664.7,213.6c0-67.8-55-122.7-122.7-122.7s-122.7,55-122.7,122.7c0,37.7,17,71.5,43.8,94&#10;&#9;&#9;&#9;&#9;&#9;c0,0,67.4,63.2,78.9,141.4c11.6-78.2,78.9-141.3,78.9-141.4C647.7,285.1,664.7,251.4,664.7,213.6z"/>
				<path fill="#EF4638" d="M541.9,429.7c-18.3-70.2-75.7-124.3-76.3-124.9l-0.1-0.1c-27-22.7-42.5-55.9-42.5-91&#10;&#9;&#9;&#9;&#9;&#9;c0-65.5,53.3-118.9,118.9-118.9s118.9,53.3,118.9,118.9c0,35.2-15.5,68.4-42.5,91l-0.2,0.1C615.6,307.2,560,360.2,541.9,429.7z"/>
			</g><path d="M 644.099998 214.300003 A 102.099998 102.099998 0 0 1 542 316.400002 A 102.099998 102.099998 0 0 1 439.900002 214.300003 A 102.099998 102.099998 0 0 1 542 112.200005 A 102.099998 102.099998 0 0 1 644.099998 214.300003 Z" fill="#AE302C" transform="matrix(1, 0, 0, 1, -8.526512829121202e-14, 0)"/><path d="M 639.900002 214.300003 A 97.900002 97.900002 0 0 1 542 312.200005 A 97.900002 97.900002 0 0 1 444.099998 214.300003 A 97.900002 97.900002 0 0 1 542 116.400002 A 97.900002 97.900002 0 0 1 639.900002 214.300003 Z" fill="#FFFFFF" transform="matrix(1, 0, 0, 1, -8.526512829121202e-14, 0)"/>
<path d="M 473.6454772949219 184.87001037597656 L 479.6254577636719 184.87001037597656 C 481.9521484375 184.87001037597656 483.6788024902344 185.21334838867188 484.80548095703125 185.90000915527344 C 485.9388122558594 186.59335327148438 486.5054626464844 187.67001342773438 486.5054626464844 189.13002014160156 C 486.5054626464844 190.0900115966797 486.2587890625 190.91001892089844 485.7654724121094 191.5900115966797 C 485.2721252441406 192.27001953125 484.62213134765625 192.71002197265625 483.8154602050781 192.91001892089844 L 483.8154602050781 193.02001953125 C 484.88214111328125 193.3066864013672 485.6521301269531 193.7766876220703 486.1254577636719 194.4300079345703 C 486.60546875 195.08334350585938 486.845458984375 195.933349609375 486.845458984375 196.98001098632812 C 486.845458984375 198.54000854492188 486.2587890625 199.7666778564453 485.0854797363281 200.66001892089844 C 483.9187927246094 201.5533447265625 482.32879638671875 202.00001525878906 480.3154602050781 202.00001525878906 L 473.6454772949219 202.00001525878906 L 473.6454772949219 184.87001037597656 M 478.2754821777344 191.4400177001953 L 479.67547607421875 191.4400177001953 C 480.3354797363281 191.4400177001953 480.84881591796875 191.3033447265625 481.2154846191406 191.03001403808594 C 481.5754699707031 190.75668334960938 481.7554626464844 190.3500213623047 481.7554626464844 189.8100128173828 C 481.7554626464844 188.8500213623047 481.02880859375 188.37001037597656 479.5754699707031 188.37001037597656 L 478.2754821777344 188.37001037597656 L 478.2754821777344 191.4400177001953 M 478.2754821777344 194.83001708984375 L 478.2754821777344 198.4300079345703 L 479.90545654296875 198.4300079345703 C 481.3521423339844 198.4300079345703 482.0754699707031 197.8200225830078 482.0754699707031 196.6000213623047 C 482.0754699707031 196.0266876220703 481.88214111328125 195.5900115966797 481.4954833984375 195.29000854492188 C 481.1087951660156 194.9833526611328 480.5487976074219 194.83001708984375 479.8154602050781 194.83001708984375 L 478.2754821777344 194.83001708984375 ZM 504.3840026855469 184.87001037597656 L 504.3840026855469 195.1800079345703 C 504.3840026855469 197.42001342773438 503.747314453125 199.15667724609375 502.4739990234375 200.3900146484375 C 501.20733642578125 201.61668395996094 499.3773193359375 202.23001098632812 496.9839782714844 202.23001098632812 C 494.6506652832031 202.23001098632812 492.8573303222656 201.6333465576172 491.60400390625 200.4400177001953 C 490.35064697265625 199.24668884277344 489.7239990234375 197.53001403808594 489.7239990234375 195.29000854492188 L 489.7239990234375 184.87001037597656 L 494.3739929199219 184.87001037597656 L 494.3739929199219 194.92001342773438 C 494.3739929199219 196.1333465576172 494.60064697265625 197.0133514404297 495.0539855957031 197.5600128173828 C 495.50732421875 198.106689453125 496.1739807128906 198.38002014160156 497.0539855957031 198.38002014160156 C 498.00067138671875 198.38002014160156 498.68731689453125 198.106689453125 499.1139831542969 197.5600128173828 C 499.5406494140625 197.02001953125 499.7539978027344 196.1333465576172 499.7539978027344 194.90000915527344 L 499.7539978027344 184.87001037597656 L 504.3840026855469 184.87001037597656 ZM 512.6080932617188 195.77001953125 L 512.6080932617188 202.00001525878906 L 507.97808837890625 202.00001525878906 L 507.97808837890625 184.87001037597656 L 513.5880737304688 184.87001037597656 C 518.2481079101562 184.87001037597656 520.5780639648438 186.5566864013672 520.5780639648438 189.93002319335938 C 520.5780639648438 191.91668701171875 519.6080932617188 193.45335388183594 517.6680908203125 194.54000854492188 L 522.6680908203125 202.00001525878906 L 517.4180908203125 202.00001525878906 L 513.778076171875 195.77001953125 L 512.6080932617188 195.77001953125 M 512.6080932617188 192.29000854492188 L 513.4780883789062 192.29000854492188 C 515.0914306640625 192.29000854492188 515.8980712890625 191.57334899902344 515.8980712890625 190.1400146484375 C 515.8980712890625 188.96002197265625 515.104736328125 188.37001037597656 513.51806640625 188.37001037597656 L 512.6080932617188 188.37001037597656 L 512.6080932617188 192.29000854492188 ZM 534.7302856445312 202.00001525878906 L 533.8903198242188 198.79000854492188 L 528.3203125 198.79000854492188 L 527.4603271484375 202.00001525878906 L 522.3703002929688 202.00001525878906 L 527.9603271484375 184.80001831054688 L 534.1403198242188 184.80001831054688 L 539.80029296875 202.00001525878906 L 534.7302856445312 202.00001525878906 M 532.9302978515625 194.99002075195312 L 532.1903076171875 192.18002319335938 C 532.0169677734375 191.5533447265625 531.8069458007812 190.74334716796875 531.560302734375 189.75001525878906 C 531.3136596679688 188.7633514404297 531.1536254882812 188.0533447265625 531.080322265625 187.62001037597656 C 531.0069580078125 188.02001953125 530.866943359375 188.6766815185547 530.6602783203125 189.5900115966797 C 530.45361328125 190.5033416748047 529.99365234375 192.3033447265625 529.2802734375 194.99002075195312 L 532.9302978515625 194.99002075195312 ZM 556.1869506835938 193.07000732421875 C 556.1869506835938 195.9300079345703 555.4002685546875 198.1333465576172 553.8269653320312 199.6800079345703 C 552.2536010742188 201.2266845703125 550.040283203125 202.00001525878906 547.1869506835938 202.00001525878906 L 541.6469116210938 202.00001525878906 L 541.6469116210938 184.87001037597656 L 547.5769653320312 184.87001037597656 C 550.3302612304688 184.87001037597656 552.45361328125 185.57334899902344 553.9469604492188 186.98001098632812 C 555.4402465820312 188.38668823242188 556.1869506835938 190.41668701171875 556.1869506835938 193.07000732421875 M 551.386962890625 193.23001098632812 C 551.386962890625 191.66334533691406 551.0769653320312 190.50001525878906 550.4569091796875 189.74002075195312 C 549.8369140625 188.98667907714844 548.8936157226562 188.61001586914062 547.626953125 188.61001586914062 L 546.2769165039062 188.61001586914062 L 546.2769165039062 198.20001220703125 L 547.3069458007812 198.20001220703125 C 548.713623046875 198.20001220703125 549.7469482421875 197.79335021972656 550.4069213867188 196.98001098632812 C 551.0602416992188 196.16001892089844 551.386962890625 194.91001892089844 551.386962890625 193.23001098632812 ZM 569.77001953125 202.00001525878906 L 568.9300537109375 198.79000854492188 L 563.3600463867188 198.79000854492188 L 562.5000610351562 202.00001525878906 L 557.4100341796875 202.00001525878906 L 563.0000610351562 184.80001831054688 L 569.1800537109375 184.80001831054688 L 574.8400268554688 202.00001525878906 L 569.77001953125 202.00001525878906 M 567.9700317382812 194.99002075195312 L 567.2300415039062 192.18002319335938 C 567.0567016601562 191.5533447265625 566.8466796875 190.74334716796875 566.6000366210938 189.75001525878906 C 566.3533935546875 188.7633514404297 566.193359375 188.0533447265625 566.1200561523438 187.62001037597656 C 566.0466918945312 188.02001953125 565.9066772460938 188.6766815185547 565.7000122070312 189.5900115966797 C 565.4933471679688 190.5033416748047 565.0333862304688 192.3033447265625 564.3200073242188 194.99002075195312 L 567.9700317382812 194.99002075195312 ZM 582.8065795898438 191.2200164794922 L 585.756591796875 184.87001037597656 L 590.776611328125 184.87001037597656 L 585.1365966796875 195.3100128173828 L 585.1365966796875 202.00001525878906 L 580.4766235351562 202.00001525878906 L 580.4766235351562 195.45001220703125 L 574.8366088867188 184.87001037597656 L 579.8765869140625 184.87001037597656 L 582.8065795898438 191.2200164794922 ZM 592.620849609375 202.00001525878906 L 592.620849609375 184.87001037597656 L 597.2708740234375 184.87001037597656 L 597.2708740234375 202.00001525878906 L 592.620849609375 202.00001525878906 ZM 608.4462890625 202.00001525878906 L 604.936279296875 189.66001892089844 L 604.8363037109375 189.66001892089844 C 604.9962768554688 191.760009765625 605.0762939453125 193.39334106445312 605.0762939453125 194.5600128173828 L 605.0762939453125 202.00001525878906 L 600.9762573242188 202.00001525878906 L 600.9762573242188 184.87001037597656 L 607.1463012695312 184.87001037597656 L 610.71630859375 197.03001403808594 L 610.8062744140625 197.03001403808594 L 614.3162841796875 184.87001037597656 L 620.4862670898438 184.87001037597656 L 620.4862670898438 202.00001525878906 L 616.2362670898438 202.00001525878906 L 616.2362670898438 194.49002075195312 C 616.2362670898438 194.0966796875 616.242919921875 193.66334533691406 616.2562866210938 193.1900177001953 C 616.262939453125 192.71002197265625 616.3162841796875 191.54000854492188 616.416259765625 189.68002319335938 L 616.3062744140625 189.68002319335938 L 612.8462524414062 202.00001525878906 L 608.4462890625 202.00001525878906 Z" transform="matrix(1.1680409908294678, 0, 0, 1.1680409908294678, -95.4960708618164, -37.83590316772461)" style="fill: rgb(239, 71, 56); white-space: pre; color: rgb(51, 51, 51);"/></svg>