<?xml version="1.0" encoding="utf-8"?>
<svg id="master-artboard" viewBox="0 0 1400 980" version="1.1" xmlns="http://www.w3.org/2000/svg" x="0px" y="0px" enable-background="new 0 0 1400 980" width="1400px" height="980px">
<path fill="#57919B" d="M554,102.9c-67.8,0-122.7,55-122.7,122.7c0,37.7,17,71.5,43.8,94c0,0,67.4,63.2,78.9,141.4&#10;&#9;&#9;&#9;c11.6-78.2,78.9-141.3,78.9-141.4c26.8-22.5,43.8-56.3,43.8-94C676.7,157.8,621.7,102.9,554,102.9z" transform="matrix(0.44189197422760895, 0, 0, 0.44189197422760895, -151.70407983614297, -10.450952375416238)"/><g transform="matrix(0.44189197422760895, 0, 0, 0.44189197422760895, -151.70407983614297, -10.450952375416238)">
				<path fill="#AE302C" d="M664.7,213.6c0-67.8-55-122.7-122.7-122.7s-122.7,55-122.7,122.7c0,37.7,17,71.5,43.8,94&#10;&#9;&#9;&#9;&#9;&#9;c0,0,67.4,63.2,78.9,141.4c11.6-78.2,78.9-141.3,78.9-141.4C647.7,285.1,664.7,251.4,664.7,213.6z"/>
				<path fill="#EF4638" d="M541.9,429.7c-18.3-70.2-75.7-124.3-76.3-124.9l-0.1-0.1c-27-22.7-42.5-55.9-42.5-91&#10;&#9;&#9;&#9;&#9;&#9;c0-65.5,53.3-118.9,118.9-118.9s118.9,53.3,118.9,118.9c0,35.2-15.5,68.4-42.5,91l-0.2,0.1C615.6,307.2,560,360.2,541.9,429.7z"/>
			</g><path d="M 644.099998 214.300003 A 102.099998 102.099998 0 0 1 542 316.400002 A 102.099998 102.099998 0 0 1 439.900002 214.300003 A 102.099998 102.099998 0 0 1 542 112.200005 A 102.099998 102.099998 0 0 1 644.099998 214.300003 Z" fill="#AE302C" transform="matrix(0.44189197422760895, 0, 0, 0.44189197422760895, -151.70407983614297, -10.450952375416238)"/><path d="M 639.900002 214.300003 A 97.900002 97.900002 0 0 1 542 312.200005 A 97.900002 97.900002 0 0 1 444.099998 214.300003 A 97.900002 97.900002 0 0 1 542 116.400002 A 97.900002 97.900002 0 0 1 639.900002 214.300003 Z" fill="#FFFFFF" transform="matrix(0.44189197422760895, 0, 0, 0.44189197422760895, -151.70407983614297, -10.450952375416238)"/>
<path d="M 473.6454772949219 184.8699951171875 L 479.6254577636719 184.8699951171875 C 481.9521484375 184.8699951171875 483.6788024902344 185.2133331298828 484.80548095703125 185.89999389648438 C 485.9388122558594 186.5933380126953 486.5054626464844 187.6699981689453 486.5054626464844 189.1300048828125 C 486.5054626464844 190.08999633789062 486.2587890625 190.91000366210938 485.7654724121094 191.58999633789062 C 485.2721252441406 192.27000427246094 484.62213134765625 192.7100067138672 483.8154602050781 192.91000366210938 L 483.8154602050781 193.02000427246094 C 484.88214111328125 193.30667114257812 485.6521301269531 193.77667236328125 486.1254577636719 194.42999267578125 C 486.60546875 195.0833282470703 486.845458984375 195.93333435058594 486.845458984375 196.97999572753906 C 486.845458984375 198.5399932861328 486.2587890625 199.76666259765625 485.0854797363281 200.66000366210938 C 483.9187927246094 201.55332946777344 482.32879638671875 202 480.3154602050781 202 L 473.6454772949219 202 L 473.6454772949219 184.8699951171875 M 478.2754821777344 191.44000244140625 L 479.67547607421875 191.44000244140625 C 480.3354797363281 191.44000244140625 480.84881591796875 191.30332946777344 481.2154846191406 191.02999877929688 C 481.5754699707031 190.7566680908203 481.7554626464844 190.35000610351562 481.7554626464844 189.80999755859375 C 481.7554626464844 188.85000610351562 481.02880859375 188.3699951171875 479.5754699707031 188.3699951171875 L 478.2754821777344 188.3699951171875 L 478.2754821777344 191.44000244140625 M 478.2754821777344 194.8300018310547 L 478.2754821777344 198.42999267578125 L 479.90545654296875 198.42999267578125 C 481.3521423339844 198.42999267578125 482.0754699707031 197.82000732421875 482.0754699707031 196.60000610351562 C 482.0754699707031 196.02667236328125 481.88214111328125 195.58999633789062 481.4954833984375 195.2899932861328 C 481.1087951660156 194.98333740234375 480.5487976074219 194.8300018310547 479.8154602050781 194.8300018310547 L 478.2754821777344 194.8300018310547 ZM 504.3614196777344 184.8699951171875 L 504.3614196777344 195.17999267578125 C 504.3614196777344 197.4199981689453 503.7247314453125 199.1566619873047 502.451416015625 200.38999938964844 C 501.18475341796875 201.61666870117188 499.354736328125 202.22999572753906 496.9613952636719 202.22999572753906 C 494.6280822753906 202.22999572753906 492.8347473144531 201.63333129882812 491.5814208984375 200.44000244140625 C 490.32806396484375 199.24667358398438 489.701416015625 197.52999877929688 489.701416015625 195.2899932861328 L 489.701416015625 184.8699951171875 L 494.3514099121094 184.8699951171875 L 494.3514099121094 194.9199981689453 C 494.3514099121094 196.13333129882812 494.57806396484375 197.01333618164062 495.0314025878906 197.55999755859375 C 495.4847412109375 198.10665893554688 496.1513977050781 198.3800048828125 497.0314025878906 198.3800048828125 C 497.97808837890625 198.3800048828125 498.66473388671875 198.10665893554688 499.0914001464844 197.55999755859375 C 499.51806640625 197.02000427246094 499.7314147949219 196.13333129882812 499.7314147949219 194.89999389648438 L 499.7314147949219 184.8699951171875 L 504.3614196777344 184.8699951171875 ZM 512.58056640625 195.77000427246094 L 512.58056640625 202 L 507.9505615234375 202 L 507.9505615234375 184.8699951171875 L 513.560546875 184.8699951171875 C 518.2205810546875 184.8699951171875 520.550537109375 186.55667114257812 520.550537109375 189.92999267578125 C 520.550537109375 191.9166717529297 519.58056640625 193.45333862304688 517.6405639648438 194.5399932861328 L 522.6405639648438 202 L 517.3905639648438 202 L 513.7505493164062 195.77000427246094 L 512.58056640625 195.77000427246094 M 512.58056640625 192.2899932861328 L 513.4505615234375 192.2899932861328 C 515.0639038085938 192.2899932861328 515.8705444335938 191.57333374023438 515.8705444335938 190.13999938964844 C 515.8705444335938 188.9600067138672 515.0772094726562 188.3699951171875 513.4905395507812 188.3699951171875 L 512.58056640625 188.3699951171875 L 512.58056640625 192.2899932861328 ZM 534.68701171875 202 L 533.8470458984375 198.7899932861328 L 528.2770385742188 198.7899932861328 L 527.4170532226562 202 L 522.3270263671875 202 L 527.9170532226562 184.8000030517578 L 534.0970458984375 184.8000030517578 L 539.7570190429688 202 L 534.68701171875 202 M 532.8870239257812 194.99000549316406 L 532.1470336914062 192.17999267578125 C 531.9736938476562 191.55332946777344 531.763671875 190.7433319091797 531.5170288085938 189.75 C 531.2703857421875 188.76333618164062 531.1103515625 188.05332946777344 531.0370483398438 187.6199951171875 C 530.9636840820312 188.02000427246094 530.8236694335938 188.67666625976562 530.6170043945312 189.58999633789062 C 530.4103393554688 190.50332641601562 529.9503784179688 192.30332946777344 529.2369995117188 194.99000549316406 L 532.8870239257812 194.99000549316406 ZM 556.1514282226562 193.07000732421875 C 556.1514282226562 195.92999267578125 555.36474609375 198.13333129882812 553.7914428710938 199.67999267578125 C 552.2180786132812 201.22666931152344 550.0047607421875 202 547.1514282226562 202 L 541.6113891601562 202 L 541.6113891601562 184.8699951171875 L 547.5414428710938 184.8699951171875 C 550.2947387695312 184.8699951171875 552.4180908203125 185.57333374023438 553.9114379882812 186.97999572753906 C 555.4047241210938 188.3866729736328 556.1514282226562 190.4166717529297 556.1514282226562 193.07000732421875 M 551.3514404296875 193.22999572753906 C 551.3514404296875 191.663330078125 551.0414428710938 190.5 550.42138671875 189.74000549316406 C 549.8013916015625 188.98666381835938 548.8580932617188 188.61000061035156 547.5914306640625 188.61000061035156 L 546.2413940429688 188.61000061035156 L 546.2413940429688 198.1999969482422 L 547.2714233398438 198.1999969482422 C 548.6781005859375 198.1999969482422 549.71142578125 197.7933349609375 550.3713989257812 196.97999572753906 C 551.0247192382812 196.16000366210938 551.3514404296875 194.91000366210938 551.3514404296875 193.22999572753906 ZM 569.7168579101562 202 L 568.8768920898438 198.7899932861328 L 563.306884765625 198.7899932861328 L 562.4468994140625 202 L 557.3568725585938 202 L 562.9468994140625 184.8000030517578 L 569.1268920898438 184.8000030517578 L 574.786865234375 202 L 569.7168579101562 202 M 567.9168701171875 194.99000549316406 L 567.1768798828125 192.17999267578125 C 567.0035400390625 191.55332946777344 566.7935180664062 190.7433319091797 566.546875 189.75 C 566.3002319335938 188.76333618164062 566.1401977539062 188.05332946777344 566.06689453125 187.6199951171875 C 565.9935302734375 188.02000427246094 565.853515625 188.67666625976562 565.6468505859375 189.58999633789062 C 565.440185546875 190.50332641601562 564.980224609375 192.30332946777344 564.266845703125 194.99000549316406 L 567.9168701171875 194.99000549316406 ZM 582.76123046875 191.22000122070312 L 585.7112426757812 184.8699951171875 L 590.7312622070312 184.8699951171875 L 585.0912475585938 195.30999755859375 L 585.0912475585938 202 L 580.4312744140625 202 L 580.4312744140625 195.4499969482422 L 574.791259765625 184.8699951171875 L 579.8312377929688 184.8699951171875 L 582.76123046875 191.22000122070312 ZM 592.5455932617188 202 L 592.5455932617188 184.8699951171875 L 597.1956176757812 184.8699951171875 L 597.1956176757812 202 L 592.5455932617188 202 ZM 608.3905639648438 202 L 604.8805541992188 189.66000366210938 L 604.7805786132812 189.66000366210938 C 604.9405517578125 191.75999450683594 605.0205688476562 193.39334106445312 605.0205688476562 194.55999755859375 L 605.0205688476562 202 L 600.9205322265625 202 L 600.9205322265625 184.8699951171875 L 607.090576171875 184.8699951171875 L 610.6605834960938 197.02999877929688 L 610.7505493164062 197.02999877929688 L 614.2605590820312 184.8699951171875 L 620.4305419921875 184.8699951171875 L 620.4305419921875 202 L 616.1805419921875 202 L 616.1805419921875 194.49000549316406 C 616.1805419921875 194.09666442871094 616.1871948242188 193.663330078125 616.2005615234375 193.19000244140625 C 616.2072143554688 192.7100067138672 616.2605590820312 191.5399932861328 616.3605346679688 189.67999267578125 L 616.2505493164062 189.67999267578125 L 612.79052734375 202 L 608.3905639648438 202 Z" transform="matrix(0.5161476135253906, 0, 0, 0.5161476135253906, -193.90286254882812, -27.170303344726562)" style="fill: rgb(239, 71, 56); white-space: pre; color: rgb(51, 51, 51);"/></svg>