<svg xmlns="http://www.w3.org/2000/svg" width="180" height="95" viewBox="0 0 180 95" version="1.1"><path d="M 32.594 1.645 C 25.265 3.895, 16.695 12.800, 14.460 20.489 C 11.200 31.703, 13.199 38.621, 25.010 57 C 32.644 68.879, 36.784 77.394, 39.576 86.959 C 40.773 91.061, 42.167 94.556, 42.673 94.724 C 43.179 94.893, 44.137 92.400, 44.801 89.184 C 46.304 81.907, 52.920 68.189, 61.132 55.320 C 71.916 38.420, 73.776 31.343, 70.411 20.013 C 68.179 12.497, 59.503 3.821, 51.987 1.589 C 45.428 -0.359, 39.063 -0.341, 32.594 1.645 M 34.994 2.934 C 30.407 4.330, 26.538 6.796, 22.860 10.668 C 17 16.837, 15.539 20.500, 15.545 29 C 15.551 37.470, 16.496 39.746, 26.811 56.119 C 33.843 67.283, 38.098 75.596, 40.441 82.750 C 41.387 85.637, 42.313 88, 42.500 88 C 42.687 88, 43.613 85.637, 44.559 82.750 C 46.909 75.576, 51.199 67.196, 57.998 56.500 C 68.223 40.417, 69.449 37.473, 69.455 29 C 69.461 20.330, 67.994 16.792, 61.674 10.240 C 55.155 3.483, 43.596 0.317, 34.994 2.934" stroke="none" fill="#0d140d" fill-rule="evenodd"/><path d="M 34.994 2.934 C 30.407 4.330, 26.538 6.796, 22.860 10.668 C 17 16.837, 15.539 20.500, 15.545 29 C 15.551 37.470, 16.496 39.746, 26.811 56.119 C 33.843 67.283, 38.098 75.596, 40.441 82.750 C 41.387 85.637, 42.313 88, 42.500 88 C 42.687 88, 43.613 85.637, 44.559 82.750 C 46.909 75.576, 51.199 67.196, 57.998 56.500 C 68.223 40.417, 69.449 37.473, 69.455 29 C 69.461 20.330, 67.994 16.792, 61.674 10.240 C 55.155 3.483, 43.596 0.317, 34.994 2.934 M 121 5.500 C 121 7.785, 120.624 8, 116.635 8 C 113.733 8, 111.386 8.695, 109.635 10.073 L 107 12.145 107 51.073 C 107 88.667, 107.069 90.069, 109 92 C 110.866 93.866, 112.333 94, 130.845 94 C 148.801 94, 150.848 93.826, 152.345 92.171 C 153.826 90.534, 154 86.186, 154 50.728 L 154 11.113 151.777 9.557 C 150.519 8.675, 147.483 8, 144.777 8 C 140.348 8, 140 7.818, 140 5.500 C 140 3.009, 139.967 3, 130.500 3 C 121.033 3, 121 3.009, 121 5.500 M 21.405 8.250 L 19.500 10.500 21.750 8.595 C 23.864 6.805, 24.455 6, 23.655 6 C 23.465 6, 22.453 7.012, 21.405 8.250 M 62 7.378 C 62 7.585, 62.788 8.373, 63.750 9.128 C 65.336 10.371, 65.371 10.336, 64.128 8.750 C 62.821 7.084, 62 6.555, 62 7.378 M 113.689 14.644 C 113.310 15.023, 113 31.683, 113 51.667 L 113 88 131.012 88 L 149.025 88 148.762 51.250 L 148.500 14.500 131.439 14.227 C 122.056 14.077, 114.069 14.265, 113.689 14.644 M 13 23 C 13 23.733, 13.300 24.033, 13.667 23.667 C 14.033 23.300, 14.033 22.700, 13.667 22.333 C 13.300 21.967, 13 22.267, 13 23 M 71 23 C 71 23.733, 71.300 24.033, 71.667 23.667 C 72.033 23.300, 72.033 22.700, 71.667 22.333 C 71.300 21.967, 71 22.267, 71 23 M 115 37 L 115 43 131 43 L 147 43 147 37 L 147 31 131 31 L 115 31 115 37 M 115 51.500 L 115 58 131 58 L 147 58 147 51.500 L 147 45 131 45 L 115 45 115 51.500 M 115 65.500 L 115 72 131 72 L 147 72 147 65.500 L 147 59 131 59 L 115 59 115 65.500 M 115 80 L 115 86 131 86 L 147 86 147 80 L 147 74 131 74 L 115 74 115 80" stroke="none" fill="#04fb04" fill-rule="evenodd"/></svg>