<?xml version="1.0" encoding="utf-8"?>
<!-- Generator: Adobe Illustrator 16.0.0, SVG Export Plug-In . SVG Version: 6.00 Build 0)  -->
<!DOCTYPE svg PUBLIC "-//W3C//DTD SVG 1.1//EN" "http://www.w3.org/Graphics/SVG/1.1/DTD/svg11.dtd">
<svg version="1.1" id="katman_1" xmlns="http://www.w3.org/2000/svg" xmlns:xlink="http://www.w3.org/1999/xlink" x="0px" y="0px"
	 width="17.535px" height="26.307px" viewBox="11.233 16.125 17.535 26.307" enable-background="new 11.233 16.125 17.535 26.307"
	 xml:space="preserve">
<g>
	<g>
		<g>
			<defs>
				<rect id="SVGID_1_" x="11.233" y="16.568" width="17.535" height="25.864"/>
			</defs>
			<clipPath id="SVGID_2_">
				<use xlink:href="#SVGID_1_"  overflow="visible"/>
			</clipPath>
			<g clip-path="url(#SVGID_2_)">
				<path fill="#FEFEFE" d="M14.173,19.427c0,0,2.724-1.116,5.477-1.17c3.102-0.055,6.177,1.17,6.177,1.17s0.81,2.75,0.836,5.499
					c0.055,3.131-0.836,6.262-0.836,6.262s-2.888,1.197-5.746,1.226c-2.967,0-5.908-1.226-5.908-1.226s-1.511-3.13-1.429-6.262
					C12.825,22.149,14.173,19.427,14.173,19.427L14.173,19.427z"/>
				<path fill="#161746" d="M25.018,24.79c-0.162,0.245-0.513,0.272-0.729,0.082c-2.48-2.15-6.07-2.15-8.551-0.027l-0.027,0.027
					c-0.107,0.082-0.215,0.109-0.323,0.109c-0.135,0-0.297-0.054-0.378-0.164c-0.162-0.218-0.135-0.517,0.081-0.708
					c1.376-1.17,3.102-1.824,4.91-1.824c1.808,0,3.562,0.654,4.909,1.824C25.1,24.273,25.152,24.572,25.018,24.79L25.018,24.79z"/>
				<path fill="#161746" d="M23.479,26.587c-0.107,0.082-0.242,0.136-0.351,0.136s-0.243-0.027-0.323-0.109
					c-1.617-1.416-3.965-1.416-5.611-0.027c-0.189,0.163-0.458,0.19-0.647,0.027c-0.215-0.218-0.215-0.572,0-0.762h0.027
					c0.944-0.844,2.158-1.28,3.426-1.28c1.268,0,2.482,0.463,3.426,1.28C23.643,26.042,23.669,26.369,23.479,26.587L23.479,26.587z"
					/>
				<path fill="#161746" d="M21.915,28.193c-0.161,0.218-0.485,0.245-0.675,0.054c-0.729-0.626-1.753-0.626-2.455,0h-0.027
					c-0.082,0.082-0.189,0.136-0.324,0.136c-0.162,0-0.351-0.109-0.431-0.326c-0.108-0.191-0.027-0.409,0.135-0.572
					c1.079-0.926,2.644-0.926,3.723,0.027C22.077,27.676,22.104,28.002,21.915,28.193z"/>
				<path fill="#161746" d="M28.768,25.417c0,7.214-6.394,8.901-8.768,16.933c-2.374-8.031-8.767-9.719-8.767-16.933
					c0-4.874,3.938-8.848,8.767-8.848C24.829,16.568,28.768,20.543,28.768,25.417z M26.313,25.335c0-3.512-2.832-6.371-6.313-6.371
					c-3.48,0-6.313,2.859-6.313,6.371c0,3.375,2.644,6.151,5.935,6.343c-0.108-0.107-0.189-0.271-0.189-0.436
					c0-0.301,0.27-0.572,0.566-0.572s0.565,0.271,0.565,0.572c0,0.164-0.081,0.326-0.188,0.436
					C23.669,31.486,26.313,28.71,26.313,25.335z"/>
			</g>
		</g>
	</g>
</g>
</svg>
