<svg version="1.2" xmlns="http://www.w3.org/2000/svg" viewBox="0 0 739 591" width="739" height="591"><defs><linearGradient id="P" gradientUnits="userSpaceOnUse"/><linearGradient id="g1" x1="313.9" y1="472.6" x2="334.1" y2="452.3" href="#P"><stop stop-color="#005a91"/><stop offset="1" stop-color="#084c7f"/></linearGradient><linearGradient id="g2" x1="202.8" y1="282.4" x2="571.9" y2="614.7" href="#P"><stop stop-color="#005289"/><stop offset="1" stop-color="#00609f"/></linearGradient><linearGradient id="g3" x1="205.9" y1="241.3" x2="510.4" y2="556.7" href="#P"><stop stop-color="#006db1"/><stop offset="1" stop-color="#163d6e"/></linearGradient><linearGradient id="g4" x1="373.5" y1="375.6" x2="582" y2="736.8" href="#P"><stop stop-color="#0077bc"/><stop offset="1" stop-color="#005285"/></linearGradient><linearGradient id="g5" x1="297" y1="458.4" x2="319.9" y2="435.5" href="#P"><stop stop-color="#005a91"/><stop offset="1" stop-color="#084c7f"/></linearGradient><linearGradient id="g6" x1="182.7" y1="414.9" x2="494.7" y2="617.5" href="#P"><stop stop-color="#1b4381"/><stop offset="1" stop-color="#277aab"/></linearGradient><linearGradient id="g7" x1="360.4" y1="467.7" x2="484.2" y2="690.9" href="#P"><stop stop-color="#0064a3"/><stop offset="1" stop-color="#1065a7"/></linearGradient><linearGradient id="g8" x1="370.7" y1="491.5" x2="653" y2="816.3" href="#P"><stop stop-color="#00599b"/><stop offset="1" stop-color="#001a37"/></linearGradient><linearGradient id="g9" x1="331.8" y1="455.4" x2="655.7" y2="642.3" href="#P"><stop stop-color="#262e6d"/><stop offset="1" stop-color="#0d4775"/></linearGradient><linearGradient id="g10" x1="214.8" y1="258.3" x2="581.6" y2="588.5" href="#P"><stop stop-color="#005289"/><stop offset="1" stop-color="#00609f"/></linearGradient><linearGradient id="g11" x1="-1225.6" y1="-578.8" x2="1239.4" y2="961.5" href="#P"><stop stop-color="#0064a3"/><stop offset="1" stop-color="#1065a7"/></linearGradient><linearGradient id="g12" x1="210.6" y1="221.8" x2="538.7" y2="561.6" href="#P"><stop stop-color="#006db1"/><stop offset="1" stop-color="#163d6e"/></linearGradient><linearGradient id="g13" x1="406.4" y1="388.3" x2="548.1" y2="633.8" href="#P"><stop stop-color="#0077bc"/><stop offset="1" stop-color="#005285"/></linearGradient><linearGradient id="g14" x1="146.3" y1="208" x2="274.7" y2="79.6" href="#P"><stop stop-color="#005a91"/><stop offset="1" stop-color="#084c7f"/></linearGradient><linearGradient id="g15" x1="42.8" y1="178" x2="225.9" y2="430" href="#P"><stop stop-color="#0f2d59"/><stop offset="1" stop-color="#163d6e"/></linearGradient><linearGradient id="g16" x1="219.5" y1="-40.6" x2="391.9" y2="270.4" href="#P"><stop stop-color="#044d80"/><stop offset="1" stop-color="#081e4e"/></linearGradient><linearGradient id="g17" x1="560.7" y1="186.8" x2="782.5" y2="354" href="#P"><stop stop-color="#0f4573"/><stop offset="1" stop-color="#0e2e58"/></linearGradient><linearGradient id="g18" x1="544.3" y1="274.9" x2="813.3" y2="383.5" href="#P"><stop stop-color="#0e426d"/><stop offset="1" stop-color="#002348"/></linearGradient><linearGradient id="g19" x1="565.7" y1="137.3" x2="663" y2="345.9" href="#P"><stop stop-color="#005080"/><stop offset="1" stop-color="#094b7b"/></linearGradient><linearGradient id="g20" x1="337.2" y1="-132.9" x2="657.3" y2="341.7" href="#P"><stop stop-color="#005a91"/><stop offset="1" stop-color="#084c7f"/></linearGradient><linearGradient id="g21" x1="507.5" y1="129.2" x2="721.6" y2="350.9" href="#P"><stop stop-color="#094978"/><stop offset="1" stop-color="#0e325b"/></linearGradient><linearGradient id="g22" x1="348.7" y1="2.7" x2="807.4" y2="387.6" href="#P"><stop stop-color="#064a78"/><stop offset="1" stop-color="#0e355f"/></linearGradient><linearGradient id="g23" x1="296.6" y1="-41.1" x2="506" y2="408" href="#P"><stop stop-color="#005081"/><stop offset="1" stop-color="#183065"/></linearGradient><linearGradient id="g24" x1="206.3" y1="-129.5" x2="671.5" y2="369.3" href="#P"><stop stop-color="#252563"/><stop offset="1" stop-color="#006ba8"/></linearGradient><linearGradient id="g25" x1="-41.3" y1="66.8" x2="311" y2="332.4" href="#P"><stop stop-color="#062b50"/><stop offset="1" stop-color="#0e426d"/></linearGradient><linearGradient id="g26" x1="17.3" y1="141.5" x2="251.5" y2="282.2" href="#P"><stop stop-color="#0b2f57"/><stop offset="1" stop-color="#094978"/></linearGradient><linearGradient id="g27" x1="141.2" y1="72.5" x2="255.7" y2="287.9" href="#P"><stop stop-color="#103f6b"/><stop offset="1" stop-color="#054c7c"/></linearGradient><linearGradient id="g28" x1="114.3" y1="194.3" x2="402" y2="388.4" href="#P"><stop stop-color="#00548c"/><stop offset="1" stop-color="#0065a6"/></linearGradient><linearGradient id="g29" x1="189.2" y1="79.1" x2="376.5" y2="280" href="#P"><stop stop-color="#005385"/><stop offset="1" stop-color="#132a5d"/></linearGradient><linearGradient id="g30" x1="109.6" y1="101.3" x2="487" y2="453.2" href="#P"><stop stop-color="#0074b2"/><stop offset="1" stop-color="#173063"/></linearGradient><linearGradient id="g31" x1="31.2" y1="203.3" x2="279.4" y2="460.3" href="#P"><stop stop-color="#153c6b"/><stop offset="1" stop-color="#094978"/></linearGradient><linearGradient id="g32" x1="132.2" y1="306.9" x2="323.7" y2="473.4" href="#P"><stop stop-color="#005289"/><stop offset="1" stop-color="#00609f"/></linearGradient><linearGradient id="g33" x1="321.4" y1="-43.4" x2="586.8" y2="296.3" href="#P"><stop stop-color="#262e6d"/><stop offset="1" stop-color="#0d4775"/></linearGradient><linearGradient id="g34" x1="410.2" y1="-4.7" x2="631.2" y2="323" href="#P"><stop stop-color="#0069a6"/><stop offset="1" stop-color="#133d6b"/></linearGradient><linearGradient id="g35" x1="347.8" y1="-4.2" x2="646.8" y2="294.8" href="#P"><stop stop-color="#005e98"/><stop offset="1" stop-color="#103862"/></linearGradient><linearGradient id="g36" x1="97.2" y1="82.5" x2="247.8" y2="-68.2" href="#P"><stop stop-color="#005a91"/><stop offset="1" stop-color="#084c7f"/></linearGradient><linearGradient id="g37" x1="209.9" y1="-103.9" x2="413.4" y2="147.4" href="#P"><stop stop-color="#0a3057"/><stop offset="1" stop-color="#0e426d"/></linearGradient><linearGradient id="g38" x1="-2.4" y1="-484.1" x2="404.5" y2="167.1" href="#P"><stop stop-color="#03284c"/><stop offset="1" stop-color="#005289"/></linearGradient><linearGradient id="g39" x1="208.5" y1="-159" x2="417.3" y2="217.6" href="#P"><stop stop-color="#044d80"/><stop offset="1" stop-color="#081e4e"/></linearGradient><linearGradient id="g40" x1="265.7" y1="-85.8" x2="432.7" y2="256.5" href="#P"><stop stop-color="#005ba1"/><stop offset="1" stop-color="#084c7f"/></linearGradient><linearGradient id="g41" x1="484.7" y1="-22.9" x2="596.2" y2="142.4" href="#P"><stop stop-color="#005a91"/><stop offset="1" stop-color="#084c7f"/></linearGradient><linearGradient id="g42" x1="421.2" y1="-33.1" x2="787" y2="153.3" href="#P"><stop stop-color="#0e325b"/><stop offset="1" stop-color="#164376"/></linearGradient><linearGradient id="g43" x1="-602.6" y1="-453" x2="368" y2="587.9" href="#P"><stop stop-color="#091329"/><stop offset="1" stop-color="#081124"/></linearGradient><linearGradient id="g44" x1="65" y1="-88.2" x2="256.9" y2="84.6" href="#P"><stop stop-color="#03254a"/><stop offset="1" stop-color="#002649"/></linearGradient><linearGradient id="g45" x1="613.8" y1="89.7" x2="787.6" y2="240.7" href="#P"><stop stop-color="#0c2f58"/><stop offset="1" stop-color="#05152c"/></linearGradient><linearGradient id="g46" x1="523.5" y1="-27.9" x2="762.1" y2="219.2" href="#P"><stop stop-color="#094978"/><stop offset="1" stop-color="#0e325b"/></linearGradient><linearGradient id="g47" x1="363.7" y1="-136.1" x2="810.3" y2="238.6" href="#P"><stop stop-color="#064a78"/><stop offset="1" stop-color="#0e355f"/></linearGradient><linearGradient id="g48" x1="460.9" y1="-142.6" x2="747" y2="210.7" href="#P"><stop stop-color="#0f335e"/><stop offset="1" stop-color="#001a35"/></linearGradient><linearGradient id="g49" x1="609.1" y1="75.1" x2="770.9" y2="192.6" href="#P"><stop stop-color="#0e325b"/><stop offset="1" stop-color="#031b33"/></linearGradient><linearGradient id="g50" x1="618.9" y1="52" x2="834.6" y2="309" href="#P"><stop stop-color="#09101c"/><stop offset="1" stop-color="#091120"/></linearGradient><linearGradient id="g51" x1="526.5" y1="-123.6" x2="916.3" y2="454.3" href="#P"><stop stop-color="#081221"/><stop offset="1" stop-color="#091122"/></linearGradient><linearGradient id="g52" x1="267.8" y1="-220.5" x2="542.8" y2="369.4" href="#P"><stop stop-color="#005081"/><stop offset="1" stop-color="#183065"/></linearGradient><linearGradient id="g53" x1="252.3" y1="-231.5" x2="509.3" y2="179.9" href="#P"><stop stop-color="#114270"/><stop offset="1" stop-color="#005f99"/></linearGradient><linearGradient id="g54" x1="188.7" y1="-162.7" x2="617.7" y2="297.4" href="#P"><stop stop-color="#252563"/><stop offset="1" stop-color="#006ba8"/></linearGradient><linearGradient id="g55" x1="394.3" y1="-105.8" x2="519.5" y2="175.4" href="#P"><stop stop-color="#00609f"/><stop offset="1" stop-color="#0070b9"/></linearGradient><linearGradient id="g56" x1="401.8" y1="-45.3" x2="576.7" y2="68.3" href="#P"><stop stop-color="#0077bc"/><stop offset="1" stop-color="#005285"/></linearGradient><linearGradient id="g57" x1="385" y1="3" x2="651.5" y2="110.7" href="#P"><stop stop-color="#005a8f"/><stop offset="1" stop-color="#005285"/></linearGradient><linearGradient id="g58" x1="9.4" y1="100" x2="194.6" y2="261" href="#P"><stop stop-color="#051529"/><stop offset="1" stop-color="#03254a"/></linearGradient><linearGradient id="g59" x1="5.3" y1="-15.2" x2="187.3" y2="235.2" href="#P"><stop stop-color="#061426"/><stop offset="1" stop-color="#001b36"/></linearGradient><linearGradient id="g60" x1="85.8" y1="-34.8" x2="280.2" y2="196.8" href="#P"><stop stop-color="#021a30"/><stop offset="1" stop-color="#0f3963"/></linearGradient><linearGradient id="g61" x1="46.8" y1="-188.2" x2="285.2" y2="260.2" href="#P"><stop stop-color="#103f6b"/><stop offset="1" stop-color="#054c7c"/></linearGradient><linearGradient id="g62" x1="159.7" y1="57.2" x2="343.8" y2="254.6" href="#P"><stop stop-color="#005385"/><stop offset="1" stop-color="#132a5d"/></linearGradient><linearGradient id="g63" x1="207.8" y1="321" x2="287.2" y2="241.6" href="#P"><stop stop-color="#005a91"/><stop offset="1" stop-color="#084c7f"/></linearGradient><linearGradient id="g64" x1="522.8" y1="318.9" x2="774" y2="607.7" href="#P"><stop stop-color="#114271"/><stop offset="1" stop-color="#0f3e68"/></linearGradient><linearGradient id="g65" x1="116.6" y1="209.2" x2="334.6" y2="356.3" href="#P"><stop stop-color="#00548c"/><stop offset="1" stop-color="#0065a6"/></linearGradient><linearGradient id="g66" x1="194" y1="164.9" x2="388.5" y2="346.3" href="#P"><stop stop-color="#0074b2"/><stop offset="1" stop-color="#173063"/></linearGradient><linearGradient id="g67" x1="-409.2" y1="-389.5" x2="979.7" y2="1522.2" href="#P"><stop stop-color="#0f335e"/><stop offset="1" stop-color="#0e325b"/></linearGradient><linearGradient id="g68" x1="105.6" y1="291.2" x2="256.7" y2="447.6" href="#P"><stop stop-color="#153c6b"/><stop offset="1" stop-color="#094978"/></linearGradient><linearGradient id="g69" x1="176.7" y1="237.2" x2="380.3" y2="414.2" href="#P"><stop stop-color="#005289"/><stop offset="1" stop-color="#00609f"/></linearGradient><linearGradient id="g70" x1="275.4" y1="150.5" x2="512.8" y2="396.4" href="#P"><stop stop-color="#0077bc"/><stop offset="1" stop-color="#005285"/></linearGradient><linearGradient id="g71" x1="216" y1="4.2" x2="580.3" y2="470.5" href="#P"><stop stop-color="#262e6d"/><stop offset="1" stop-color="#0d4775"/></linearGradient><linearGradient id="g72" x1="344.6" y1="130.8" x2="638.3" y2="566.2" href="#P"><stop stop-color="#0069a6"/><stop offset="1" stop-color="#133d6b"/></linearGradient><linearGradient id="g73" x1="211.1" y1="1.2" x2="697.8" y2="487.9" href="#P"><stop stop-color="#005e98"/><stop offset="1" stop-color="#103862"/></linearGradient><linearGradient id="g74" x1="465.3" y1="169.8" x2="665" y2="530" href="#P"><stop stop-color="#005080"/><stop offset="1" stop-color="#0064a3"/></linearGradient><linearGradient id="g75" x1="125.4" y1="234.9" x2="542" y2="495.2" href="#P"><stop stop-color="#0064a3"/><stop offset="1" stop-color="#1065a7"/></linearGradient><linearGradient id="g76" x1="202.1" y1="89.8" x2="579" y2="453.7" href="#P"><stop stop-color="#00548c"/><stop offset="1" stop-color="#0065a6"/></linearGradient><linearGradient id="g77" x1="392.3" y1="221" x2="695.1" y2="440.9" href="#P"><stop stop-color="#252563"/><stop offset="1" stop-color="#006ba8"/></linearGradient><linearGradient id="g78" x1="322.7" y1="102.5" x2="725.7" y2="519.8" href="#P"><stop stop-color="#252563"/><stop offset="1" stop-color="#006ba8"/></linearGradient></defs><style>.a{fill:url(#g1)}.b{fill:url(#g2)}.c{fill:url(#g3)}.d{fill:url(#g4)}.e{fill:url(#g5)}.f{fill:url(#g6)}.g{fill:url(#g7)}.h{fill:url(#g8)}.i{fill:url(#g9)}.j{fill:url(#g10)}.k{fill:url(#g11)}.l{fill:url(#g12)}.m{fill:url(#g13)}.n{fill:url(#g14)}.o{fill:url(#g15)}.p{fill:url(#g16)}.q{fill:url(#g17)}.r{fill:url(#g18)}.s{fill:url(#g19)}.t{fill:url(#g20)}.u{fill:url(#g21)}.v{fill:url(#g22)}.w{fill:url(#g23)}.x{fill:url(#g24)}.y{fill:url(#g25)}.z{fill:url(#g26)}.A{fill:url(#g27)}.B{fill:url(#g28)}.C{fill:url(#g29)}.D{fill:url(#g30)}.E{fill:url(#g31)}.F{fill:url(#g32)}.G{fill:url(#g33)}.H{fill:url(#g34)}.I{fill:url(#g35)}.J{fill:url(#g36)}.K{fill:url(#g37)}.L{fill:url(#g38)}.M{fill:url(#g39)}.N{fill:url(#g40)}.O{fill:url(#g41)}.P{fill:url(#g42)}.Q{fill:url(#g43)}.R{fill:url(#g44)}.S{fill:url(#g45)}.T{fill:url(#g46)}.U{fill:url(#g47)}.V{fill:url(#g48)}.W{fill:url(#g49)}.X{fill:url(#g50)}.Y{fill:url(#g51)}.Z{fill:url(#g52)}.a0{fill:url(#g53)}.a1{fill:url(#g54)}.a2{fill:url(#g55)}.a3{fill:url(#g56)}.a4{fill:url(#g57)}.a5{fill:url(#g58)}.a6{fill:url(#g59)}.a7{fill:url(#g60)}.a8{fill:url(#g61)}.a9{fill:url(#g62)}.aa{fill:url(#g63)}.ab{fill:url(#g64)}.ac{fill:url(#g65)}.ad{fill:url(#g66)}.ae{fill:url(#g67)}.af{fill:url(#g68)}.ag{fill:url(#g69)}.ah{fill:url(#g70)}.ai{fill:url(#g71)}.aj{fill:url(#g72)}.ak{fill:url(#g73)}.al{fill:url(#g74)}.am{fill:url(#g75)}.an{fill:url(#g76)}.ao{fill:url(#g77)}.ap{fill:url(#g78)}</style><path class="a" d="m396.2 449.7c7.7 3.1 14.5 7.7 20.1 13.3 5.6 5.7 10.2 12.5 13.4 20.1 3 7.3 4.7 15.3 4.7 23.6 0 8.3-1.7 16.2-4.7 23.5-3.2 7.6-7.8 14.5-13.4 20.1-5.6 5.6-12.4 10.2-20.1 13.4-7.3 3-15.2 4.7-23.5 4.7-8.3 0-16.3-1.7-23.6-4.7-7.6-3.2-14.4-7.8-20-13.4-5.7-5.6-10.3-12.5-13.4-20.1-3-7.3-4.7-15.2-4.7-23.5 0-8.3 1.7-16.3 4.7-23.6 3.1-7.6 7.7-14.4 13.4-20.1 5.6-5.6 12.4-10.2 20-13.3 7.3-3 15.3-4.7 23.6-4.7 8.3 0 16.2 1.7 23.5 4.7z"/><path class="b" d="m311 506.7c0-8.3 1.7-16.3 4.7-23.6 3.1-7.6 7.7-14.4 13.4-20.1 5.6-5.6 12.4-10.2 20-13.3 7.3-3 15.3-4.7 23.6-4.7q2.5 0 4.9 0.2l-65.9 70.9q-0.7-4.6-0.7-9.4z"/><path class="c" d="m396.2 563.7c-7.3 3-15.2 4.7-23.5 4.7-8.3 0-16.3-1.7-23.6-4.7-7.6-3.2-14.4-7.8-20-13.4-5.7-5.6-10.3-12.5-13.4-20.1-1.9-4.5-3.2-9.2-4-14.1l65.9-70.9c6.5 0.5 12.8 2.1 18.6 4.5 3.9 1.6 7.5 3.5 10.9 5.8l4 99.4c-4.5 3.6-9.5 6.5-14.9 8.8z"/><path class="d" d="m416.3 463c5.6 5.7 10.2 12.5 13.4 20.1 3 7.3 4.7 15.3 4.7 23.6 0 8.3-1.7 16.2-4.7 23.5-3.2 7.6-7.8 14.5-13.4 20.1q-2.5 2.5-5.2 4.6l-4-99.4q5 3.4 9.2 7.5z"/><path class="e" d="m372.7 423c11.3 0 22 2.3 31.9 6.4 10.3 4.3 19.5 10.5 27.2 18.1 7.7 7.7 13.9 16.9 18.2 27.2 4 9.9 6.3 20.7 6.3 32 0 11.2-2.3 22-6.3 31.9-4.3 10.3-10.5 19.5-18.2 27.2-7.7 7.7-16.9 13.9-27.2 18.1-9.9 4.1-20.6 6.4-31.9 6.4-11.3 0-22.1-2.3-32-6.4-10.3-4.2-19.5-10.4-27.2-18.1-7.6-7.7-13.8-16.9-18.1-27.2-4.1-9.9-6.3-20.7-6.3-31.9 0-11.3 2.2-22.1 6.3-32 4.3-10.3 10.5-19.5 18.1-27.2 7.7-7.6 16.9-13.8 27.2-18.1 9.9-4.1 20.7-6.4 32-6.4z"/><path class="f" d="m404.6 583.9c-9.9 4.1-20.6 6.4-31.9 6.4-11.3 0-22.1-2.3-32-6.4-7.9-3.3-15.2-7.7-21.7-13.1l92.6-2.5-4.1 14.4q-1.4 0.6-2.9 1.2z"/><path class="g" d="m407.5 582.7l4.1-14.4 3.8 10.3q-3.8 2.2-7.9 4.1z"/><path class="h" d="m415.4 578.6l-3.8-10.3 19.2-1.5c-4.6 4.5-9.8 8.4-15.4 11.8z"/><path class="i" d="m430.8 566.8l-19.2 1.5 41.4-38.3q-1.3 4.4-3 8.6c-4.3 10.3-10.5 19.5-18.2 27.2q-0.5 0.5-1 1z"/><path class="j" d="m289.1 506.7c0-11.3 2.2-22.1 6.3-32 4.3-10.3 10.5-19.5 18.1-27.2 7.3-7.2 16-13.2 25.6-17.4l31.2-7q1.2-0.1 2.4-0.1c7.8 0 15.4 1.1 22.6 3.2l-101.2 108.9c-3.3-8.9-5-18.5-5-28.4z"/><path class="k" d="m370.3 423.1l-31.2 7q0.8-0.4 1.6-0.7c9.2-3.8 19.2-6 29.6-6.3z"/><path class="l" d="m313.5 565.8c-7.6-7.7-13.8-16.9-18.1-27.2q-0.7-1.7-1.3-3.5l101.2-108.9q4.8 1.3 9.3 3.2 0.8 0.3 1.5 0.6l5.5 138.3-92.6 2.5q-2.8-2.4-5.5-5z"/><path class="m" d="m406.1 430c9.7 4.3 18.4 10.2 25.7 17.5 7.7 7.7 13.9 16.9 18.2 27.2 4 9.9 6.3 20.7 6.3 32 0 8-1.1 15.8-3.3 23.3l-41.4 38.3z"/><path class="n" d="m607.7 349.8c-9.7-2.9-18.3-9.5-23.6-19.1-11.2-20.7-24.9-38.8-40.4-54.3-16.2-16.2-34.3-29.7-53.8-40.3-18.2-9.8-37.6-17.3-57.7-22.3-20.4-5.1-41.5-7.6-62.7-7.6-21.2 0-42.3 2.5-62.7 7.6-20.1 5-39.5 12.5-57.6 22.3-19.5 10.6-37.7 24.1-53.9 40.3-15.5 15.5-29.1 33.6-40.4 54.3-5.2 9.6-13.9 16.2-23.6 19.1-9.4 2.7-19.8 2-29.1-2.7q-0.6-0.2-1.1-0.5l5.5-10.1-5.5 10c-9.6-5.2-16.2-13.8-19.1-23.6-2.7-9.4-2-19.8 2.7-29.1q0.2-0.6 0.5-1.1l9.4 5.1 0.7 0.4-10.1-5.5c15-27.5 33.3-51.7 53.9-72.4 21.7-21.7 46-39.6 72.1-53.8 24.3-13.2 50-23.2 76.3-29.8 26.9-6.8 54.5-10.2 82-10.2 27.5 0 55.1 3.4 82 10.2 26.3 6.6 52 16.6 76.3 29.8 26.1 14.2 50.5 32.1 72.1 53.8 20.4 20.5 38.5 44.4 53.4 71.6q0.6 0.9 1 1.9c4.8 9.4 5.5 19.8 2.7 29.1-2.7 9.4-9 17.8-18 23.1q-1 0.6-2.1 1.1c-9.4 4.7-19.8 5.4-29.2 2.7z"/><path class="o" d="m80.8 305.8l68.1 25.2-6.5 13.5c-3.4 2.3-7.2 4.1-11.1 5.3-9.4 2.7-19.8 2-29.1-2.7q-0.6-0.2-1.1-0.5l5.5-10.1-5.5 10c-9.6-5.2-16.2-13.8-19.1-23.6-1.6-5.5-2-11.3-1.2-17.1z"/><path class="p" d="m287.5 136.7q11.4-2.9 23-4.9l7.6 79.4q-4.6 1-9.2 2.1l-64.3-62.6c14.1-5.7 28.4-10.3 42.9-14z"/><path class="q" d="m570.8 308.9l29.4-88.3c20.3 20.4 38.3 44.2 53.1 71.3q0.6 0.9 1 1.9c4.8 9.4 5.5 19.8 2.7 29.1q-0.2 0.9-0.5 1.8l-72.2 6.4-0.2-0.4q-6.2-11.4-13.3-21.8z"/><path class="r" d="m639 346q-1 0.6-2.1 1.1c-9.4 4.7-19.8 5.4-29.2 2.7-9.6-2.9-18.1-9.3-23.4-18.7l72.2-6.4c-3 8.7-9 16.3-17.5 21.3z"/><path class="s" d="m554.7 288.2l-17.3-97.2 42.5 11q10.4 8.7 20 18.3l0.3 0.3-29.4 88.3q-7.6-10.9-16.1-20.7z"/><path class="t" d="m527.8 166.5q5.3 2.9 10.5 5.9l-0.9 18.6-52.3-43.9c14.6 5.4 28.9 11.8 42.7 19.4z"/><path class="u" d="m537.4 191l0.9-18.6q6.9 4.2 13.7 8.6z"/><path class="v" d="m552 181q14.5 9.7 27.9 21l-42.5-11z"/><path class="w" d="m369.5 126.5h0.9l-43.8 83.2q-4.3 0.7-8.5 1.5l-7.6-79.4c19.5-3.5 39.3-5.3 59-5.3z"/><path class="x" d="m326.6 209.7l43.8-83.2c26.1 0.1 52.3 3.2 77.9 9.4l-105.5 71.6q-8.1 0.8-16.2 2.2z"/><path class="y" d="m146.4 213.3l40.1 34.5-92.9 30.5c13.2-21.6 28.6-41 45.5-58q3.6-3.6 7.3-7z"/><path class="z" d="m84.7 293.8q0.2-0.6 0.5-1.1l9.4 5.1 0.7 0.4-10.1-5.5q4.1-7.3 8.4-14.4l92.9-30.5-37.6 83.2-68.1-25.2c0.7-4.1 1.9-8.1 3.9-12z"/><path class="A" d="m192.5 177.5l-6 70.3-40.1-34.5c14.4-13.5 29.8-25.4 46.1-35.8z"/><path class="B" d="m186.5 247.8l20 18.1q-5.7 5-11.2 10.5c-15.5 15.5-29.1 33.6-40.4 54.3q-0.2 0.4-0.5 0.8l-5.5-0.5z"/><path class="C" d="m244.6 150.7l64.3 62.6q-1 0.2-2.1 0.5c-20.1 5-39.5 12.5-57.6 22.3l-0.5 0.3-62.2 11.4 6-70.3q9.2-5.8 18.7-11c10.9-6 22.1-11.2 33.4-15.8z"/><path class="D" d="m206.5 265.9l-20-18.1 62.2-11.4c-14.9 8.2-29.1 18-42.2 29.5z"/><path class="E" d="m142.4 344.5l6.5-13.5 2.8 4.6c-2.6 3.5-5.8 6.5-9.3 8.9z"/><path class="F" d="m148.9 331l5.5 0.5q-1.2 2.2-2.7 4.1z"/><path class="G" d="m342.8 207.5l105.5-71.6q1.6 0.4 3.2 0.8 3.5 0.9 6.9 1.8l-19.6 77q-3.3-0.9-6.6-1.7c-20.4-5.1-41.5-7.6-62.7-7.6q-13.4 0-26.7 1.3z"/><path class="H" d="m485.1 147.1l52.3 43.9-48.4 44.7c-15.9-8.6-32.7-15.3-50.2-20.2l19.6-77q13.5 3.7 26.7 8.6z"/><path class="I" d="m537.4 191l17.3 97.2q-5.3-6.1-11-11.8c-16.2-16.2-34.3-29.7-53.8-40.3l-0.9-0.4z"/><path class="J" d="m691.1 248.5c-10-1.9-19.3-7.6-25.5-16.6-12.2-17.8-25.6-33.9-40.2-48.5-15-15-31.2-28.4-48.4-40.2-30.2-20.7-63.3-36.3-97.8-46.8-35.4-10.7-72.5-16.1-109.7-16.1-37.2 0-74.3 5.4-109.7 16.1-34.5 10.5-67.6 26.1-97.8 46.8-17.1 11.8-33.3 25.2-48.3 40.2-14.6 14.6-28.1 30.7-40.3 48.5-6.1 9-15.4 14.7-25.4 16.6-10 1.9-20.7 0-29.8-6.2-9-6.2-14.7-15.5-16.6-25.5-1.9-10 0-20.7 6.2-29.7 15-21.9 31.6-41.8 49.7-59.8 18.6-18.6 38.6-35.2 59.7-49.7 36.9-25.3 77.2-44.3 119.4-57.2 43.2-13.2 88.1-19.7 132.9-19.7 44.8 0 89.8 6.5 133 19.7 42.1 12.9 82.5 31.9 119.3 57.2 21.2 14.5 41.2 31.1 59.8 49.7 18 18 34.6 37.9 49.6 59.8 6.2 9 8.1 19.7 6.2 29.7-1.8 10-7.5 19.3-16.6 25.5-9.1 6.2-19.8 8.1-29.7 6.2z"/><path class="K" d="m236.6 20.4c16.4-5 33-9 49.8-12.1l12.6 4.2-100.4 93.3-2.8-70.8q20.1-8.3 40.8-14.6z"/><path class="L" d="m299.1 6.1l-0.1 6.4-12.6-4.2q6.4-1.2 12.7-2.2z"/><path class="M" d="m299 12.5l7.1 73.1c-15.7 2.6-31.1 6.2-46.3 10.8-17.3 5.3-34.2 11.8-50.7 19.7l-10.5-10.3z"/><path class="N" d="m305.6 5.1l-6.6 7.4 0.1-6.4q3.3-0.5 6.5-1z"/><path class="O" d="m497.5 102.5l46-31.2-2.6 50.3c-14.1-7.4-28.5-13.7-43.4-19.1z"/><path class="P" d="m490.2 16.9q6.2 1.7 12.3 3.5c23.4 7.2 46.2 16.2 68.2 27.2l-27.2 23.7z"/><path class="Q" d="m1.5 202.4l21.6 42.7q-2.5-1.2-4.9-2.8c-9-6.2-14.7-15.5-16.6-25.5-0.9-4.7-0.9-9.6-0.1-14.4z"/><path class="R" d="m195.8 35l2.8 70.8-65.1-38.8c20-12.4 40.8-23.1 62.3-32z"/><path class="S" d="m737.4 216.8c-1.8 10-7.5 19.3-16.6 25.5-9.1 6.2-19.8 8.1-29.7 6.2-10-1.9-19.3-7.6-25.5-16.6q-9.3-13.5-19.5-25.8l91.2-4.8c1.1 5.2 1.1 10.4 0.1 15.5z"/><path class="T" d="m540.9 121.6l2.6-50.3 109.5 40.6-61.3 42q-7.2-5.6-14.7-10.7c-11.6-7.9-23.7-15.2-36.1-21.6z"/><path class="U" d="m591.7 153.9l61.3-42-33.3 65.9q-13.5-12.8-28-23.9z"/><path class="V" d="m543.5 71.3l27.2-23.7c17.7 8.8 34.7 18.8 51.1 30q16.4 11.2 31.8 24.1l-0.6 10.2z"/><path class="W" d="m625.4 183.4q-2.8-2.8-5.7-5.6l33.3-65.9 83.1 85.1q0.7 2.1 1.2 4.3l-91.2 4.8q-10-11.9-20.7-22.7z"/><path class="X" d="m659.7 106.9l-6.7 5 0.6-10.2q3.1 2.5 6.1 5.2z"/><path class="Y" d="m681.6 127.3c18 18 34.6 37.9 49.6 59.8 2.2 3.1 3.8 6.4 4.9 9.9l-83.1-85.1 6.7-5q11.2 9.7 21.9 20.4z"/><path class="Z" d="m399.4 71.3l-5.1 9.8q-12.4-0.8-24.8-0.8c-21.3 0-42.5 1.7-63.4 5.3l-7.1-73.1z"/><path class="a0" d="m299 12.5l6.6-7.4c21.2-2.9 42.6-4.4 63.9-4.4q11.8 0 23.5 0.6l6.4 70z"/><path class="a1" d="m394.3 81.1l5.1-9.8 12.6 11.3q-8.8-0.9-17.7-1.5z"/><path class="a2" d="m439.8 6.1l-40.4 65.2-6.4-70c15.7 0.8 31.3 2.4 46.8 4.8z"/><path class="a3" d="m490.2 16.9l53.3 54.4h-144.1l40.4-65.2c16.9 2.6 33.8 6.2 50.4 10.8z"/><path class="a4" d="m479.2 96.4c-21.9-6.6-44.4-11.2-67.2-13.8l-12.6-11.3h144.1l-46 31.2q-9.1-3.3-18.3-6.1z"/><path class="a5" d="m7.8 187.1q1.1-1.5 2.1-3.1l97.2 6.2c-12.1 12.7-23.4 26.6-33.7 41.7-6.1 9-15.4 14.7-25.4 16.6-8.3 1.6-17 0.5-24.9-3.4l-21.6-42.7c1-5.4 3.1-10.6 6.3-15.3z"/><path class="a6" d="m85.3 101.8l31.1 78.8q-1.4 1.4-2.7 2.8-3.4 3.3-6.6 6.8l-97.2-6.2c14.4-20.6 30.4-39.5 47.6-56.7q13.4-13.5 27.8-25.5z"/><path class="a7" d="m133.5 67l65.1 38.8-30.6 33.4q-3 2-6 4c-16.1 11.1-31.3 23.5-45.6 37.4l-31.1-78.8q15.5-12.9 31.9-24.2 8.1-5.5 16.3-10.6z"/><path class="a8" d="m168 139.2l30.6-33.4-1.4 16.2q-14.9 7.9-29.2 17.2z"/><path class="a9" d="m198.6 105.8l10.5 10.3q-6 2.8-11.9 5.9z"/><path class="aa" d="m154.2 431.4c-8.4-11.7-10.8-27.6-0.7-43.5 10.1-15.9 21.7-30.3 34.4-43.1 13.2-13.2 27.6-24.7 42.8-34.3 20.7-13.2 43.1-23.1 66.3-29.7 23.6-6.8 48.1-10.2 72.5-10.2 24.5 0 48.9 3.4 72.6 10.2 23.1 6.6 45.5 16.5 66.2 29.7 15.2 9.6 29.6 21.1 42.8 34.3 12.8 12.8 24.4 27.2 34.5 43.1 10 15.9 7.7 31.8-0.8 43.5-3.2 4.4-7.2 8.2-11.7 11-4.6 2.9-9.7 5-15 6-14.3 2.6-29.6-2-39.7-17.9-7-11-14.9-20.8-23.5-29.5-8.9-8.9-18.7-16.7-29.2-23.3-28.7-18.3-62.4-27.4-96.2-27.4-33.7 0-67.5 9.1-96.2 27.4-10.4 6.6-20.2 14.4-29.1 23.3-8.7 8.7-16.6 18.5-23.5 29.5-10.1 15.9-25.5 20.5-39.7 17.9-5.4-1-10.5-3.1-15-6-4.5-2.8-8.6-6.6-11.8-11z"/><path class="ab" d="m585.6 387.9c10 15.9 7.7 31.8-0.8 43.5q-1.6 2.2-3.4 4.1l-13-71.5q9.1 11.3 17.2 23.9z"/><path class="ac" d="m230.7 310.5q7.6-4.8 15.5-9.1l49.8 44.8-98.8-10.2c10.6-9.6 21.8-18.1 33.5-25.5z"/><path class="ad" d="m246.2 301.4c16.2-8.7 33.2-15.6 50.8-20.6q6-1.8 12-3.2l-13 68.6z"/><path class="ae" d="m181 448.4c-4.1-0.8-8.1-2.2-11.8-4.1l22.6 4.6c-3.6 0.3-7.3 0.1-10.8-0.5z"/><path class="af" d="m169.7 365.1l44.7 73.3c-6.6 6.5-14.6 9.8-22.6 10.5l-22.6-4.6q-1.6-0.9-3.2-1.9c-4.5-2.8-8.6-6.6-11.8-11-8.4-11.7-10.8-27.6-0.7-43.5q7.6-12 16.2-22.8z"/><path class="ag" d="m197.2 336l98.8 10.2-18.9 29.1q-1.9 1.2-3.8 2.4c-10.4 6.6-20.2 14.4-29.1 23.3-8.7 8.7-16.6 18.5-23.5 29.5q-2.9 4.5-6.3 7.9l-44.7-73.3q8.7-10.7 18.2-20.3 4.6-4.5 9.3-8.8z"/><path class="ah" d="m296 346.2l13-68.6c19.9-4.7 40.2-7 60.5-7q4 0 7.9 0.1l39.3 31.9z"/><path class="ai" d="m423.4 276.1l-6.7 26.5-39.3-31.9c15.4 0.4 30.8 2.3 46 5.4z"/><path class="aj" d="m440.7 280.4l-24 22.2 6.7-26.5q8.7 1.8 17.3 4.3z"/><path class="ak" d="m530.4 326.3l-113.7-23.7 24-22.2 1.4 0.4c23.1 6.6 45.5 16.5 66.2 29.7q11.4 7.2 22.1 15.8z"/><path class="al" d="m568.4 364l13 71.5c-2.5 2.7-5.3 5-8.3 6.9-4.6 2.9-9.7 5-15 6-13.6 2.5-28.1-1.6-38.2-15.7l35.8-83.2q6.5 6.9 12.7 14.5z"/><path class="am" d="m277.1 375.3l18.9-29.1 19.3 12.2c-13.3 4.1-26.1 9.7-38.2 16.9z"/><path class="an" d="m296 346.2l120.7-43.6-5.2 52.5c-13.8-3.2-27.9-4.8-42-4.8-18.3 0-36.6 2.7-54.2 8.1z"/><path class="ao" d="m416.7 302.6l113.7 23.7q8.7 6.9 16.9 14.8l-76.5 39.9q-2.5-1.7-5.1-3.3c-16.7-10.7-35.1-18.2-54.2-22.6z"/><path class="ap" d="m518.4 430.5c-7-11-14.9-20.8-23.5-29.5-7.5-7.4-15.5-14.1-24.1-20l76.5-39.9q1.9 1.8 3.8 3.7 2.3 2.3 4.6 4.7l-35.8 83.2q-0.8-1-1.5-2.2z"/></svg>