<svg version="1.2" xmlns="http://www.w3.org/2000/svg" viewBox="0 0 126 126" width="126" height="126"><defs><linearGradient id="P" gradientUnits="userSpaceOnUse"/><linearGradient id="g1" x1="168.7" y1="-23.9" x2="97.6" y2="179.6" href="#P"><stop stop-color="#bcbec0"/><stop offset="1" stop-color="#fff"/></linearGradient><linearGradient id="g2" x1="3.1" y1="2.7" x2="123.1" y2="2.7" href="#P"><stop stop-color="#bcbec0"/><stop offset="1" stop-color="#fff"/></linearGradient><linearGradient id="g3" x1="71.4" y1="-8.9" x2="210.1" y2="129.8" href="#P"><stop stop-color="#27aae1"/><stop offset="1" stop-color="#0080e1"/></linearGradient><linearGradient id="g4" x1="25.7" y1="14.6" x2="114.5" y2="14.6" href="#P"><stop stop-color="#fff"/><stop offset="1" stop-color="#fff"/></linearGradient></defs><style>.a{fill:url(#g1)}.b{fill:url(#g2)}.c{fill:url(#g3)}.d{opacity:.3;fill:url(#g4)}.e{fill:#fff}</style><path class="a" d="m63.1 125.8c-34.8 0-62.9-28.1-62.9-62.9 0-34.8 28.1-62.9 62.9-62.9 34.8 0 62.9 28.1 62.9 62.9 0 34.8-28.1 62.9-62.9 62.9z"/><path class="b" d="m63.1 122.9c-33.2 0-60-26.8-60-60 0-33.2 26.8-60 60-60 33.2 0 60 26.8 60 60 0 33.2-26.8 60-60 60z"/><path class="c" d="m63.1 114.3c-28.4 0-51.4-23-51.4-51.4 0-28.4 23-51.4 51.4-51.4 28.4 0 51.4 23 51.4 51.4 0 28.4-23 51.4-51.4 51.4z"/><path class="d" d="m114.5 62.9c0 28.4-23 51.4-51.4 51.4-14.7 0-28-6.2-37.4-16.2 3.9 0.9 7.9 1.4 12.1 1.4 29.5 0 53.5-24 53.5-53.5 0-11.7-3.7-22.4-10-31.2 19.4 7.4 33.2 26.1 33.2 48.1z"/><path class="e" d="m97.7 55.4c-9.3-9.3-21.5-14.4-34.6-14.4-13 0-25.3 5.1-34.6 14.4l-5.7-5.8c10.8-10.8 25.1-16.7 40.3-16.7 15.2 0 29.5 5.9 40.3 16.7z"/><path class="e" d="m37.9 64.7l-5.7-5.7c17-17.1 44.8-17.1 61.9 0l-5.8 5.7c-13.9-13.9-36.5-13.9-50.4 0z"/><path class="e" d="m47.2 74.1l-5.7-5.8c11.9-11.9 31.3-11.9 43.2 0l-5.7 5.8c-8.8-8.8-23-8.8-31.8 0z"/><path class="e" d="m63.1 92.9c-5.4 0-9.7-4.4-9.7-9.8 0-5.4 4.3-9.7 9.7-9.7 5.4 0 9.8 4.3 9.8 9.7 0 5.4-4.4 9.8-9.8 9.8z"/></svg>