<svg version="1.2" xmlns="http://www.w3.org/2000/svg" viewBox="0 0 180 95" width="180" height="95">
	<title>trace (2)-svg</title>
	<style>
		.s0 { fill: #37363d } 
		.s1 { fill: #efefef } 
	</style>
	<path id="Layer" fill-rule="evenodd" class="s0" d="m61.1 48.1c-5.2 6.1-16.1 10.4-16.1 6.4 0-0.8-0.7-1.5-1.5-1.5-0.8 0-1.5 0.7-1.5 1.5 0 4-10.9-0.3-16.1-6.4-10.1-11.7-6.4-29.2 7.5-35.7 22.8-10.6 44 16.7 27.7 35.7zm-26.9-24.3c-5.6 2-9.2 4.7-9.2 6.9 0 1.7-0.1 1.8 6.5-1.7 8-4.2 16-4.2 24 0 3.2 1.7 6 2.8 6.4 2.5 1.1-1.2-1.7-4.1-6.2-6.3-6.4-3.3-14.7-3.8-21.5-1.4zm5.2 7.1c-4.2 1-9.4 4.2-9.4 5.8 0 1.8 1.4 1.6 6-0.7 5-2.5 9.5-2.5 14.5 0 4.5 2.3 7.6 2 5.4-0.6-3-3.6-10.9-5.8-16.5-4.5zm-1.7 9.5c-2.5 2-2.2 4 0.5 3.1 1.3-0.4 3.7-0.8 5.3-0.8 1.6 0 4 0.4 5.3 0.8 1.5 0.5 2.2 0.3 2.2-0.5 0-2.2-3.3-3.9-7.5-3.9-2.2 0-4.8 0.6-5.8 1.3z"/>
	<path id="Layer" fill-rule="evenodd" class="s1" d="m73.9 21.5c1.8 4.8 2.2 7.6 1.9 14-0.4 10.2-3.8 17.7-13.7 29.7-8.4 10.3-13.4 18-15.9 24.3-1 2.6-2.2 4.6-2.7 4.6-0.5 0-1.7-2-2.7-4.6-2.5-6.3-7.5-14-15.9-24.3-9.9-12-13.3-19.5-13.7-29.7-0.3-6.4 0.1-9.2 1.9-14 2.9-7.8 10.4-15.4 17.9-18.3 17.2-6.6 36.7 1.8 42.9 18.3zm56.6-18.5c9.5 0 9.5 0 9.5 2.5 0 2.3 0.3 2.5 4.8 2.5 2.7 0 5.7 0.7 7 1.6l2.2 1.5v39.6c0 35.5-0.2 39.8-1.7 41.5-1.5 1.6-3.5 1.8-21.1 1.8-18.7 0-19.7-0.1-21.9-2.2l-2.3-2.1v-76.8l2.5-2.4c1.8-1.9 3.5-2.5 7-2.5 4.1 0 4.5-0.2 4.5-2.5 0-2.5 0-2.5 9.5-2.5zm-97.1 9.4c-13.9 6.5-17.6 24-7.5 35.7 5.2 6.1 16.1 10.4 16.1 6.4 0-0.8 0.7-1.5 1.5-1.5 0.8 0 1.5 0.7 1.5 1.5 0 4 10.9-0.3 16.1-6.4 16.3-19-4.9-46.3-27.7-35.7zm80.3 2.2c-0.4 0.4-0.7 17.1-0.7 37.1v36.3h36l-0.2-36.7-0.3-36.8-17.1-0.3c-9.3-0.1-17.3 0.1-17.7 0.4zm-58 10.6c4.5 2.2 7.3 5.1 6.2 6.3-0.4 0.3-3.2-0.8-6.4-2.5-8-4.2-16-4.2-24 0-6.6 3.5-6.5 3.4-6.5 1.7 0-2.2 3.6-4.9 9.2-6.9 6.8-2.4 15.1-1.9 21.5 1.4zm0.2 10.2c2.2 2.6-0.9 2.9-5.4 0.6-5-2.5-9.5-2.5-14.5 0-4.6 2.3-6 2.5-6 0.7 0-1.5 5.2-4.8 9.4-5.8 5.6-1.3 13.5 0.9 16.5 4.5zm59.1-4.4h32v12h-32zm-71.5 8.1c4.2 0 7.5 1.7 7.5 3.9 0 0.8-0.7 1-2.3 0.5-1.2-0.4-3.6-0.8-5.2-0.8-1.7 0-4 0.4-5.3 0.8-2.7 0.9-3-1.1-0.5-3.1 1-0.7 3.6-1.3 5.8-1.3zm71.4 5.9h32.2l-0.3 6.3-0.3 6.2h-31l-0.3-6.2zm0.1 14h32v13h-32zm0 15h32v12h-32z"/>
</svg>