<?xml version="1.0" encoding="utf-8"?>
<!-- Generator: Adobe Illustrator 16.0.0, SVG Export Plug-In . SVG Version: 6.00 Build 0)  -->
<!DOCTYPE svg PUBLIC "-//W3C//DTD SVG 1.1//EN" "http://www.w3.org/Graphics/SVG/1.1/DTD/svg11.dtd">
<svg version="1.1" id="katman_1" xmlns="http://www.w3.org/2000/svg" xmlns:xlink="http://www.w3.org/1999/xlink" x="0px" y="0px"
	 width="40px" height="59px" viewBox="0 0 40 59" enable-background="new 0 0 40 59" xml:space="preserve">
<g>
	<g>
		<defs>
			<rect id="SVGID_1_" width="40" height="59"/>
		</defs>
		<clipPath id="SVGID_2_">
			<use xlink:href="#SVGID_1_"  overflow="visible"/>
		</clipPath>
		<g clip-path="url(#SVGID_2_)">
			<path fill="#FEFEFE" d="M6.708,6.521c0,0,6.215-2.546,12.493-2.67c7.076-0.124,14.093,2.67,14.093,2.67s1.847,6.273,1.907,12.545
				c0.123,7.142-1.907,14.284-1.907,14.284s-6.586,2.733-13.108,2.795c-6.769,0-13.477-2.795-13.477-2.795
				s-3.446-7.142-3.261-14.284C3.631,12.732,6.708,6.521,6.708,6.521L6.708,6.521z"/>
			<path fill="#CDCDD1" d="M31.445,18.756c-0.369,0.559-1.168,0.621-1.66,0.186c-5.662-4.906-13.847-4.906-19.508-0.062
				l-0.062,0.062c-0.246,0.187-0.492,0.249-0.738,0.249c-0.308,0-0.677-0.124-0.862-0.373c-0.369-0.497-0.308-1.18,0.185-1.615
				c3.139-2.67,7.077-4.161,11.2-4.161s8.123,1.491,11.199,4.161C31.631,17.576,31.754,18.259,31.445,18.756L31.445,18.756z"/>
			<path fill="#CDCDD1" d="M27.938,22.854c-0.246,0.187-0.554,0.311-0.799,0.311c-0.246,0-0.556-0.062-0.738-0.249
				c-3.692-3.229-9.046-3.229-12.8-0.062c-0.431,0.373-1.046,0.435-1.477,0.062c-0.492-0.497-0.492-1.304,0-1.739h0.062
				c2.154-1.925,4.923-2.919,7.815-2.919c2.893,0,5.662,1.056,7.814,2.919C28.309,21.612,28.369,22.358,27.938,22.854L27.938,22.854
				z"/>
			<path fill="#CDCDD1" d="M24.369,26.519c-0.369,0.497-1.107,0.559-1.539,0.124c-1.661-1.428-4-1.428-5.6,0h-0.062
				c-0.185,0.187-0.431,0.311-0.738,0.311c-0.369,0-0.8-0.249-0.984-0.745c-0.247-0.435-0.062-0.932,0.308-1.304
				c2.461-2.112,6.031-2.112,8.492,0.062C24.738,25.339,24.8,26.084,24.369,26.519z"/>
			<path fill="#D7D7DD" d="M40,20.184c0,16.458-14.584,20.308-20,38.628c-5.416-18.32-20-22.17-20-38.628C0,9.067,8.985,0,20,0
				C31.016,0,40,9.067,40,20.184z M34.4,19.998c0-8.012-6.463-14.533-14.4-14.533c-7.938,0-14.4,6.521-14.4,14.533
				c0,7.701,6.031,14.035,13.539,14.471c-0.247-0.248-0.431-0.621-0.431-0.994c0-0.684,0.616-1.305,1.292-1.305
				s1.293,0.621,1.293,1.305c0,0.373-0.186,0.746-0.432,0.994C28.369,34.033,34.4,27.699,34.4,19.998z"/>
		</g>
	</g>
</g>
</svg>
