<svg version="1.2" xmlns="http://www.w3.org/2000/svg" viewBox="0 0 65 95" width="65" height="95"><style>.a{fill:#fefefe}.b{fill:#161746}</style><path class="a" d="m10.9 10.5c0 0 10.1-4.1 20.3-4.3 11.5-0.2 22.9 4.3 22.9 4.3 0 0 3 10.1 3.1 20.2 0.2 11.5-3.1 23-3.1 23 0 0-10.7 4.4-21.3 4.5-11 0-21.9-4.5-21.9-4.5 0 0-5.6-11.5-5.3-23 0.3-10.2 5.3-20.2 5.3-20.2z"/><path class="b" d="m51.1 30.2c-0.6 0.9-1.9 1-2.7 0.3-9.2-7.9-22.5-7.9-31.7-0.1l-0.1 0.1c-0.4 0.3-0.8 0.4-1.2 0.4-0.5 0-1.1-0.2-1.4-0.6-0.6-0.8-0.5-1.9 0.3-2.6 5.1-4.3 11.5-6.7 18.2-6.7q0 0 0 0c6.7 0 13.2 2.4 18.2 6.7 0.7 0.6 0.9 1.7 0.4 2.5z"/><path class="b" d="m45.4 36.8c-0.4 0.3-0.9 0.5-1.3 0.5-0.4 0-0.9-0.1-1.2-0.4-6-5.2-14.7-5.2-20.8-0.1-0.7 0.6-1.7 0.7-2.4 0.1-0.8-0.8-0.8-2.1 0-2.8h0.1c3.5-3.1 8-4.7 12.7-4.7 4.7 0 9.2 1.7 12.7 4.7 0.8 0.7 0.9 1.9 0.2 2.7z"/><path class="b" d="m39.6 42.7c-0.6 0.8-1.8 0.9-2.5 0.2-2.7-2.3-6.5-2.3-9.1 0h-0.1c-0.3 0.3-0.7 0.5-1.2 0.5-0.6 0-1.3-0.4-1.6-1.2-0.4-0.7-0.1-1.5 0.5-2.1 4-3.4 9.8-3.4 13.8 0.1 0.8 0.6 0.9 1.8 0.2 2.5z"/><path fill-rule="evenodd" class="b" d="m65 32.5c0 26.5-23.7 32.7-32.5 62.2-8.8-29.5-32.5-35.7-32.5-62.2 0-17.9 14.6-32.5 32.5-32.5 17.9 0 32.5 14.6 32.5 32.5zm-9.1-0.3c0-12.9-10.5-23.4-23.4-23.4-12.9 0-23.4 10.5-23.4 23.4 0 12.4 9.8 22.6 22 23.3-0.4-0.4-0.7-1-0.7-1.6 0-1.1 1-2.1 2.1-2.1 1.1 0 2.1 1 2.1 2.1 0 0.6-0.3 1.2-0.7 1.6 12.2-0.7 22-10.9 22-23.3z"/></svg>