<svg width="40" height="59" viewBox="0 0 40 59" fill="none" xmlns="http://www.w3.org/2000/svg">
<g clip-path="url(#clip0_1979_5704)">
<path d="M6.70766 6.52123C6.70766 6.52123 12.923 3.97491 19.2 3.8507C26.2769 3.72649 33.2923 6.52123 33.2923 6.52123C33.2923 6.52123 35.1384 12.7939 35.2 19.0665C35.3231 26.2086 33.2923 33.3507 33.2923 33.3507C33.2923 33.3507 26.7077 36.0833 20.1846 36.1454C13.4154 36.1454 6.70766 33.3507 6.70766 33.3507C6.70766 33.3507 3.26151 26.2086 3.44613 19.0665C3.63074 12.7318 6.70766 6.52123 6.70766 6.52123V6.52123Z" fill="#FEFEFE"/>
<path d="M31.4461 18.7557C31.0768 19.3146 30.2768 19.3767 29.7845 18.942C24.123 14.0357 15.9384 14.0357 10.2768 18.8799L10.2153 18.942C9.96914 19.1283 9.72298 19.1904 9.47683 19.1904C9.16914 19.1904 8.79991 19.0662 8.61529 18.8178C8.24606 18.3209 8.3076 17.6378 8.79991 17.203C11.9384 14.5325 15.8768 13.042 19.9999 13.042C24.123 13.042 28.123 14.5325 31.1999 17.203C31.6307 17.5757 31.7538 18.2588 31.4461 18.7557V18.7557Z" fill="#161746"/>
<path d="M27.9385 22.8546C27.6924 23.0409 27.3847 23.1651 27.1385 23.1651C26.8924 23.1651 26.5847 23.103 26.4001 22.9167C22.7078 19.6872 17.3539 19.6872 13.6001 22.8546C13.1693 23.2272 12.5539 23.2893 12.1231 22.9167C11.6308 22.4198 11.6308 21.6125 12.1231 21.1777H12.1847C14.3385 19.2525 17.1078 18.2588 20.0001 18.2588C22.8924 18.2588 25.6616 19.3146 27.8154 21.1777C28.3078 21.6125 28.3693 22.3577 27.9385 22.8546V22.8546Z" fill="#161746"/>
<path d="M24.3691 26.5189C23.9999 27.0157 23.2614 27.0778 22.8307 26.6431C21.1691 25.2147 18.8307 25.2147 17.2307 26.6431H17.1691C16.9845 26.8294 16.7384 26.9536 16.4307 26.9536C16.0615 26.9536 15.6307 26.7052 15.4461 26.2083C15.1999 25.7736 15.3845 25.2768 15.7538 24.9041C18.2153 22.7926 21.7845 22.7926 24.2461 24.9662C24.7384 25.3389 24.7999 26.0841 24.3691 26.5189Z" fill="#161746"/>
<path fill-rule="evenodd" clip-rule="evenodd" d="M40 20.1842C40 36.6421 25.4154 40.4926 20 58.8137C14.5846 40.4926 0 36.6421 0 20.1842C0 9.06737 8.98462 0 20 0C31.0154 0 40 9.06737 40 20.1842ZM34.4 19.9979C34.4 11.9863 27.9385 5.46526 20 5.46526C12.0615 5.46526 5.6 11.9863 5.6 19.9979C5.6 27.6989 11.6308 34.0337 19.1385 34.4684C18.8923 34.22 18.7077 33.8474 18.7077 33.4747C18.7077 32.7916 19.3231 32.1705 20 32.1705C20.6769 32.1705 21.2923 32.7916 21.2923 33.4747C21.2923 33.8474 21.1077 34.22 20.8615 34.4684C28.3692 34.0337 34.4 27.6989 34.4 19.9979Z" fill="#161746"/>
</g>
<defs>
<clipPath id="clip0_1979_5704">
<rect width="40" height="59" fill="white"/>
</clipPath>
</defs>
</svg>
