<?xml version="1.0" standalone="no"?>
<!DOCTYPE svg PUBLIC "-//W3C//DTD SVG 20010904//EN"
 "http://www.w3.org/TR/2001/REC-SVG-20010904/DTD/svg10.dtd">
<svg version="1.0" xmlns="http://www.w3.org/2000/svg"
 width="496.000000pt" height="393.000000pt" viewBox="0 0 496.000000 393.000000"
 preserveAspectRatio="xMidYMid meet">

<g transform="translate(0.000000,393.000000) scale(0.100000,-0.100000)"
fill="#000000" stroke="none">
<path d="M1203 3495 c-378 -68 -667 -315 -777 -662 -119 -379 19 -797 344
-1042 103 -78 193 -127 294 -162 136 -48 226 -34 226 34 0 52 71 76 110 37 11
-11 20 -31 20 -43 0 -84 145 -75 334 20 299 150 507 423 557 727 15 95 7 277
-17 366 -81 307 -322 575 -611 680 -158 57 -327 73 -480 45z m343 -510 c109
-20 216 -55 318 -106 153 -76 266 -176 266 -235 0 -51 -28 -44 -262 67 -192
92 -312 127 -464 136 -201 12 -340 -25 -611 -160 -108 -54 -187 -87 -197 -84
-23 9 -20 62 6 109 58 103 311 232 535 272 106 19 300 19 409 1z m19 -360
c131 -39 210 -80 277 -144 64 -63 74 -94 34 -112 -34 -16 -105 2 -226 56 -133
60 -196 76 -305 76 -113 1 -163 -12 -300 -74 -194 -88 -240 -97 -251 -51 -4
14 -2 36 4 49 28 61 229 177 372 215 105 28 269 22 395 -15z m-40 -349 c89
-32 155 -100 140 -146 -9 -29 -30 -31 -123 -8 -111 27 -256 29 -364 4 -98 -22
-132 -19 -136 12 -5 30 32 86 72 111 83 51 301 65 411 27z"/>
</g>
</svg>
