<svg xmlns="http://www.w3.org/2000/svg" width="180" height="95" viewBox="0 0 180 95" version="1.1"><path d="M 33.383 12.402 C 19.529 18.853, 15.827 36.429, 25.855 48.143 C 31.063 54.228, 42 58.534, 42 54.500 C 42 53.675, 42.675 53, 43.500 53 C 44.325 53, 45 53.675, 45 54.500 C 45 58.534, 55.937 54.228, 61.145 48.143 C 77.437 29.110, 56.205 1.776, 33.383 12.402 M 34.248 23.819 C 28.597 25.836, 25 28.496, 25 30.655 C 25 32.436, 24.936 32.453, 31.500 29 C 39.529 24.776, 47.485 24.784, 55.543 29.022 C 58.703 30.685, 61.545 31.788, 61.859 31.474 C 63.031 30.302, 60.235 27.425, 55.721 25.158 C 49.318 21.942, 40.963 21.421, 34.248 23.819 M 39.431 30.942 C 35.243 31.940, 30 35.150, 30 36.716 C 30 38.498, 31.440 38.326, 36 36 C 40.982 33.458, 45.524 33.463, 50.529 36.015 C 55.050 38.320, 58.066 37.989, 55.935 35.422 C 52.917 31.786, 44.956 29.624, 39.431 30.942 M 37.750 40.392 C 35.158 42.360, 35.489 44.405, 38.250 43.475 C 39.487 43.058, 41.850 42.717, 43.500 42.717 C 45.150 42.717, 47.513 43.058, 48.750 43.475 C 50.292 43.995, 51 43.838, 51 42.977 C 51 40.808, 47.657 39.064, 43.500 39.064 C 41.300 39.064, 38.712 39.661, 37.750 40.392" stroke="none" fill="#f5f5f6" fill-rule="evenodd"/><path d="M 31.035 3.202 C 23.466 6.108, 15.996 13.728, 13.067 21.531 C 11.266 26.332, 10.895 29.066, 11.174 35.500 C 11.617 45.747, 15.035 53.166, 24.852 65.189 C 33.293 75.527, 38.327 83.202, 40.808 89.517 C 41.808 92.063, 43.019 94.147, 43.500 94.147 C 43.981 94.147, 45.192 92.063, 46.192 89.517 C 48.673 83.202, 53.707 75.527, 62.148 65.189 C 71.965 53.166, 75.383 45.747, 75.826 35.500 C 76.105 29.066, 75.734 26.332, 73.933 21.531 C 67.724 4.989, 48.158 -3.371, 31.035 3.202 M 121 5.500 C 121 7.800, 120.636 8, 116.455 8 C 112.962 8, 111.341 8.568, 109.455 10.455 L 107 12.909 107 51.280 L 107 89.651 109.314 91.826 C 111.528 93.905, 112.483 94, 131.159 94 C 148.810 94, 150.849 93.824, 152.345 92.171 C 153.826 90.534, 154 86.186, 154 50.728 L 154 11.113 151.777 9.557 C 150.519 8.675, 147.483 8, 144.777 8 C 140.348 8, 140 7.818, 140 5.500 C 140 3.009, 139.967 3, 130.500 3 C 121.033 3, 121 3.009, 121 5.500 M 33.383 12.402 C 19.529 18.853, 15.827 36.429, 25.855 48.143 C 31.063 54.228, 42 58.534, 42 54.500 C 42 53.675, 42.675 53, 43.500 53 C 44.325 53, 45 53.675, 45 54.500 C 45 58.534, 55.937 54.228, 61.145 48.143 C 77.437 29.110, 56.205 1.776, 33.383 12.402 M 113.689 14.644 C 113.310 15.023, 113 31.683, 113 51.667 L 113 88 131.012 88 L 149.025 88 148.762 51.250 L 148.500 14.500 131.439 14.227 C 122.056 14.077, 114.069 14.265, 113.689 14.644 M 34.248 23.819 C 28.597 25.836, 25 28.496, 25 30.655 C 25 32.436, 24.936 32.453, 31.500 29 C 39.529 24.776, 47.485 24.784, 55.543 29.022 C 58.703 30.685, 61.545 31.788, 61.859 31.474 C 63.031 30.302, 60.235 27.425, 55.721 25.158 C 49.318 21.942, 40.963 21.421, 34.248 23.819 M 39.431 30.942 C 35.243 31.940, 30 35.150, 30 36.716 C 30 38.498, 31.440 38.326, 36 36 C 40.982 33.458, 45.524 33.463, 50.529 36.015 C 55.050 38.320, 58.066 37.989, 55.935 35.422 C 52.917 31.786, 44.956 29.624, 39.431 30.942 M 115 37 L 115 43 131 43 L 147 43 147 37 L 147 31 131 31 L 115 31 115 37 M 37.750 40.392 C 35.158 42.360, 35.489 44.405, 38.250 43.475 C 39.487 43.058, 41.850 42.717, 43.500 42.717 C 45.150 42.717, 47.513 43.058, 48.750 43.475 C 50.292 43.995, 51 43.838, 51 42.977 C 51 40.808, 47.657 39.064, 43.500 39.064 C 41.300 39.064, 38.712 39.661, 37.750 40.392 M 115.202 51.250 L 115.500 57.500 131 57.500 L 146.500 57.500 146.798 51.250 L 147.095 45 131 45 L 114.905 45 115.202 51.250 M 115 65.500 L 115 72 131 72 L 147 72 147 65.500 L 147 59 131 59 L 115 59 115 65.500 M 115 80 L 115 86 131 86 L 147 86 147 80 L 147 74 131 74 L 115 74 115 80" stroke="none" fill="#0c0d20" fill-rule="evenodd"/></svg>