<svg version="1.2" xmlns="http://www.w3.org/2000/svg" viewBox="0 0 638 929" width="638" height="929"><style>.a{fill:#fefefe}.b{fill:#161746}</style><path class="a" d="m106.6 102.7c0 0 106.8-37.5 213.6-37.2 105.2 0.2 210.4 37.2 210.4 37.2 0 0 40 103.3 40.8 206.9 0.9 108.4-40.8 217-40.8 217 0 0-105.2 58.6-210.4 59-106.7 0.3-213.6-59-213.6-59 0 0-55.1-114.3-51.8-227.6 3-98.6 51.8-196.3 51.8-196.3z"/><path class="b" d="m500.9 295.6c-6.1 9-18.4 10.4-26.3 3.5-90-77.7-220.9-78-311.2-0.6l-0.9 0.7c-3.3 2.9-7.4 4.3-11.5 4.3-5.2 0-10.3-2.3-13.8-6.6-6.2-7.6-4.6-18.9 2.8-25.2l0.3-0.2c49.6-42.5 112.9-65.9 178.3-65.9q0.3 0 0.6 0c65.3 0.1 128.5 23.6 178 66.2 7 5.9 8.9 16.3 3.7 23.8z"/><path class="b" d="m444.7 360.8c-3.4 3.4-7.9 5.1-12.5 5.1-4.1 0-8.2-1.4-11.6-4.3-58.8-50.9-144.5-51.1-203.6-0.5v0.1c-6.9 5.9-17.2 6.2-23.9 0.1-8.1-7.3-7.8-19.8 0.3-26.7l0.5-0.4c34.7-29.8 78.9-46.1 124.6-46.1h0.5c45.5 0.1 89.6 16.4 124.2 46 8 6.8 9 19.3 1.5 26.7z"/><path class="b" d="m388.4 419c-6.5 7.4-17.7 8.2-25.1 1.8-25.8-22.3-63.3-22.4-89.2-0.2l-0.3 0.2c-3.3 2.9-7.4 4.3-11.5 4.3-6.7 0-13.3-3.7-16.5-11-3.1-7.1-0.7-15.4 5.1-20.4l0.1-0.1c39.3-33.7 96.3-33.5 135.5 0.3 7.5 6.4 8.3 17.6 1.9 25.1z"/><path fill-rule="evenodd" class="b" d="m637.4 318.7c0 259.8-232.6 320.5-318.7 609.6-86.2-289.1-318.7-349.8-318.7-609.6 0-176 142.7-318.7 318.7-318.7 176 0 318.7 142.7 318.7 318.7zm-89.7-3.3c0-126.4-102.6-229-229-229-126.5 0-229 102.6-229 229 0 122 95.4 221.7 215.6 228.6-4.2-3.7-7-9.2-7-15.3 0-11.2 9.1-20.3 20.4-20.3 11.2 0 20.3 9.1 20.3 20.3 0 6.2-2.8 11.6-7 15.3 120.2-6.9 215.7-106.6 215.7-228.6z"/></svg>